<svg width="70" height="70" viewBox="0 0 70 70" fill="none" xmlns="http://www.w3.org/2000/svg">
<rect x="0.5" y="0.5" width="69" height="69" rx="34.5" stroke="url(#paint0_linear_518_2170)"/>
<path d="M34.0817 49.3926C31.3665 49.3926 28.6659 48.6563 26.4334 47.1284C20.9152 43.35 18.8802 35.1565 21.9893 29.2353C24.3105 24.8148 29.4112 21.8723 34.6577 21.8922C34.747 21.8925 34.8353 21.9105 34.9177 21.945C35 21.9795 35.0747 22.03 35.1375 22.0934C35.2004 22.1568 35.2501 22.232 35.2838 22.3146C35.3176 22.3973 35.3347 22.4858 35.3342 22.5751C35.3315 22.9509 35.02 23.2815 34.6514 23.2507H34.5816C29.8441 23.2507 25.2733 25.9025 23.1921 29.8665C20.3872 35.2081 22.223 42.5992 27.2014 46.0063C32.178 49.4152 39.7339 48.4534 43.698 43.9052C43.8183 43.7768 43.9837 43.7 44.1594 43.6911C44.3351 43.6822 44.5075 43.7419 44.6401 43.8575C44.7727 43.9731 44.8553 44.1357 44.8705 44.3109C44.8856 44.4862 44.8322 44.6606 44.7214 44.7972C42.105 47.7995 38.0775 49.3926 34.0817 49.3926Z" fill="#27272A"/>
<path d="M38.11 28.0445H38.0512C37.4428 28.0318 36.8447 27.8849 36.2996 27.6144C35.7545 27.3439 35.2758 26.9564 34.8977 26.4795C34.3704 25.8156 34.0542 25.009 33.9896 24.1636C33.925 23.3182 34.1151 22.4729 34.5354 21.7366C35.3596 20.2912 36.9146 19.5277 38.5919 19.7577C40.6921 20.0376 42.3594 22.0527 42.2317 24.1592C42.1049 26.2441 40.1858 28.0445 38.11 28.0445ZM38.0086 21.0764C37.5412 21.0701 37.0808 21.1909 36.6766 21.4259C36.2724 21.6608 35.9396 22.0011 35.7137 22.4104C35.4283 22.9125 35.2997 23.4885 35.3446 24.0642C35.3895 24.64 35.6057 25.1891 35.9654 25.6409C36.22 25.9576 36.5404 26.2152 36.9045 26.3957C37.2686 26.5762 37.6676 26.6752 38.0738 26.686H38.111C39.4803 26.6869 40.7917 25.4525 40.8759 24.0777C40.9593 22.6794 39.8082 21.2901 38.4125 21.1035C38.2758 21.0854 38.1408 21.0764 38.0086 21.0764ZM24.3585 44.6453C24.1831 44.644 24.0149 44.5749 23.8893 44.4524C23.7637 44.3299 23.6903 44.1636 23.6846 43.9883C23.6788 43.8129 23.7412 43.6421 23.8585 43.5117C23.9759 43.3813 24.1391 43.3013 24.3141 43.2886C24.527 43.2732 24.7398 43.2623 24.9526 43.2524C25.1455 43.2433 25.3366 43.2334 25.5286 43.2207L49.0432 43.2189C49.2233 43.2189 49.3961 43.2904 49.5235 43.4178C49.6509 43.5452 49.7224 43.718 49.7224 43.8981C49.7224 44.0783 49.6509 44.251 49.5235 44.3784C49.3961 44.5058 49.2233 44.5774 49.0432 44.5774H25.5739C25.419 44.5891 25.2198 44.5991 25.0196 44.6091C24.7991 44.6191 24.5788 44.6311 24.3585 44.6453ZM29.2826 52.1016C29.1024 52.1016 28.9297 52.03 28.8023 51.9026C28.6749 51.7752 28.6033 51.6025 28.6033 51.4223V47.9419C28.6033 47.5669 28.9076 47.2291 29.2826 47.2291C29.6575 47.2291 29.9618 47.5008 29.9618 47.8758V51.4223C29.9618 51.6025 29.8903 51.7752 29.7629 51.9026C29.6355 52.03 29.4627 52.1016 29.2826 52.1016ZM37.4861 52.0346C37.3059 52.0346 37.1331 51.963 37.0058 51.8356C36.8784 51.7082 36.8068 51.5355 36.8068 51.3553V48.2697C36.8068 48.0896 36.8784 47.9168 37.0058 47.7894C37.1331 47.662 37.3059 47.5905 37.4861 47.5905C37.6662 47.5905 37.839 47.662 37.9663 47.7894C38.0937 47.9168 38.1653 48.0896 38.1653 48.2697V51.3553C38.1653 51.5355 38.0937 51.7082 37.9663 51.8356C37.839 51.963 37.6662 52.0346 37.4861 52.0346Z" fill="#27272A"/>
<path d="M21.4875 57.2629C21.3807 57.263 21.2754 57.2378 21.1801 57.1895C21.0848 57.1411 21.0023 57.071 20.9392 56.9848C20.8761 56.8986 20.8343 56.7988 20.817 56.6933C20.7998 56.5879 20.8076 56.4799 20.84 56.3781L21.9449 52.894C22.0834 52.4575 22.2727 51.858 22.7717 51.4413C23.3939 50.9215 24.2063 50.9296 24.7479 50.926L41.5415 50.9912C41.998 50.993 42.5659 50.9958 43.0993 51.2675C44.0765 51.7656 44.3889 52.8632 44.5393 53.6448C44.897 55.5014 45.1533 56.082 45.2466 56.2459C45.2952 56.3233 45.3277 56.4098 45.342 56.5001C45.3564 56.5905 45.3524 56.6827 45.3302 56.7715C45.3081 56.8602 45.2682 56.9435 45.2131 57.0165C45.1579 57.0894 45.0886 57.1505 45.0093 57.196C44.93 57.2415 44.8423 57.2706 44.7515 57.2814C44.6607 57.2922 44.5686 57.2845 44.4808 57.2589C44.393 57.2333 44.3113 57.1902 44.2406 57.1322C44.1699 57.0742 44.1116 57.0025 44.0692 56.9215C43.9633 56.7386 43.6445 56.1825 43.2052 53.9011C43.054 53.1141 42.8176 52.6486 42.4816 52.4774C42.2371 52.3524 41.8649 52.3515 41.5361 52.3506L24.776 52.2845C24.2896 52.2773 23.8658 52.2972 23.643 52.4838C23.4483 52.6468 23.3332 53.0109 23.24 53.3043L22.1351 56.7893C22.0914 56.9267 22.0051 57.0468 21.8887 57.1319C21.7723 57.2171 21.6318 57.263 21.4875 57.2629Z" fill="#27272A"/>
<path d="M46.9466 57.4151H19.5694C19.3892 57.4151 19.2165 57.3435 19.0891 57.2161C18.9617 57.0887 18.8901 56.916 18.8901 56.7358C18.8901 56.5557 18.9617 56.3829 19.0891 56.2555C19.2165 56.1281 19.3892 56.0566 19.5694 56.0566H46.9475C47.1276 56.0566 47.3004 56.1281 47.4278 56.2555C47.5552 56.3829 47.6267 56.5557 47.6267 56.7358C47.6267 56.916 47.5552 57.0887 47.4278 57.2161C47.3004 57.3435 47.1267 57.4151 46.9466 57.4151ZM40.5427 37.2098C39.5609 37.2098 38.5892 36.66 37.7904 36.1212C37.3674 35.8359 36.6601 35.3577 36.4907 34.539C36.3513 33.8615 36.6474 33.2466 36.843 32.8372L41.4981 23.1467C41.8387 22.4403 42.1593 21.6931 42.4835 20.9332C43.2497 19.1437 44.0412 17.2925 45.1661 15.7583C45.6913 15.0419 46.3706 14.3419 47.5552 14.3301C48.6384 14.3482 50.7839 15.5527 51.0692 16.7536C51.2784 17.6321 50.6408 18.9924 49.7867 20.6824C49.5839 21.0809 49.4082 21.425 49.3131 21.6596C47.4497 26.2374 45.3975 30.736 43.1618 35.144C42.8856 35.6874 42.4681 36.5115 41.6775 36.929C41.3043 37.1265 40.9221 37.2098 40.5427 37.2098ZM47.5108 15.6886C47.067 15.6886 46.7265 15.9277 46.261 16.5616C45.2295 17.9699 44.4687 19.7495 43.7324 21.4685C43.3991 22.2455 43.0713 23.0126 42.7235 23.7363L38.0684 33.4268C37.9126 33.7474 37.7786 34.0535 37.8212 34.2655C37.8737 34.5191 38.2251 34.7754 38.5511 34.9954C39.3436 35.5307 40.3443 36.1003 41.0417 35.7281C41.4212 35.5289 41.6775 35.067 41.951 34.5281C44.1702 30.1545 46.2066 25.6906 48.0551 21.1479C48.1602 20.8898 48.3513 20.5076 48.5741 20.0683C48.9581 19.3094 49.8592 17.5316 49.7487 17.0679C49.6427 16.6277 48.152 15.6994 47.5316 15.6886H47.5108Z" fill="#27272A"/>
<path d="M48.8231 16.1124C48.7084 16.1126 48.5955 16.0837 48.495 16.0284C48.3945 15.9731 48.3097 15.8932 48.2485 15.7962C48.1872 15.6993 48.1516 15.5883 48.1448 15.4738C48.1381 15.3593 48.1605 15.245 48.21 15.1415L49.2424 12.9725C49.2807 12.8919 49.3345 12.8196 49.4007 12.7598C49.467 12.7001 49.5443 12.6539 49.6284 12.624C49.7124 12.5941 49.8015 12.5811 49.8906 12.5856C49.9797 12.5901 50.0671 12.6122 50.1476 12.6505C50.2282 12.6888 50.3005 12.7426 50.3603 12.8088C50.42 12.875 50.4662 12.9524 50.4961 13.0364C50.526 13.1205 50.539 13.2096 50.5345 13.2987C50.53 13.3878 50.5079 13.4751 50.4696 13.5557L49.4372 15.7248C49.382 15.8408 49.295 15.9389 49.1863 16.0075C49.0776 16.0761 48.9517 16.1125 48.8231 16.1124ZM37.9597 38.9079C37.845 38.908 37.7321 38.8791 37.6317 38.8239C37.5312 38.7686 37.4463 38.6887 37.3851 38.5917C37.3238 38.4947 37.2882 38.3838 37.2814 38.2693C37.2747 38.1548 37.2971 38.0405 37.3466 37.937L38.3799 35.7679C38.4573 35.6052 38.5961 35.4799 38.7659 35.4195C38.9356 35.3591 39.1224 35.3686 39.2852 35.446C39.4479 35.5233 39.5732 35.6621 39.6336 35.8319C39.694 36.0016 39.6845 36.1884 39.6071 36.3512L38.5738 38.5202C38.5186 38.6363 38.4316 38.7344 38.3229 38.803C38.2142 38.8716 38.0883 38.908 37.9597 38.9079Z" fill="#27272A"/>
<defs>
<linearGradient id="paint0_linear_518_2170" x1="35" y1="57.1981" x2="35" y2="4.24254" gradientUnits="userSpaceOnUse">
<stop stop-color="#27272A"/>
<stop offset="1" stop-color="#F1F4F9" stop-opacity="0"/>
</linearGradient>
</defs>
</svg>
