<svg width="70" height="70" viewBox="0 0 70 70" fill="none" xmlns="http://www.w3.org/2000/svg">
<rect x="0.5" y="0.5" width="69" height="69" rx="34.5" stroke="url(#paint0_linear_518_2203)"/>
<path d="M16.2213 50.6446L16.2213 50.6445C16.6377 48.9425 18.0975 47.2709 19.9346 46.3736C21.3416 45.6848 22.8418 45.2059 24.3874 44.9522C24.2273 43.6976 24.0717 42.443 23.916 41.1863L16.2213 50.6446ZM16.2213 50.6446C15.9116 51.9154 16.1744 53.1649 16.9808 54.2557L16.2213 50.6446ZM23.9073 41.1159L23.916 41.1862L21.643 56.9313C21.643 56.9313 21.643 56.9313 21.6431 56.9313C21.748 56.9387 21.8501 56.9411 21.9501 56.9411C22.9715 56.9411 23.8701 56.5761 24.5583 55.8731C25.4501 54.9628 25.8541 53.6088 25.8505 51.6389C25.8469 49.9797 25.6332 48.3406 25.4272 46.7605L25.4224 46.7242L25.3233 46.7371L25.4224 46.7242C25.1777 44.8489 24.9437 42.9688 24.7097 41.0872L24.7097 41.0871L24.7065 41.0612C23.8712 34.3584 23.0071 27.4252 21.6136 20.7211L21.6136 20.7211C21.2809 19.1252 20.8789 17.1791 21.533 15.5381L21.533 15.538C22.0111 14.3323 22.9102 13.6428 23.9911 13.6187L24.0498 13.6175C25.2559 13.6179 26.4092 14.4327 26.9876 15.7244L26.9876 15.7245C27.5883 17.0613 27.3088 18.7899 26.3262 19.8276C25.966 20.2006 25.5289 20.4906 25.0452 20.6775C24.5629 20.8638 24.0458 20.943 23.5299 20.9096C23.4044 20.8896 23.2963 20.9263 23.2189 21.0008C23.1431 21.0737 23.1034 21.176 23.0959 21.2778L23.1957 21.2851L23.0959 21.2776C23.088 21.383 23.1221 21.4872 23.1907 21.5675C23.2594 21.6479 23.357 21.6978 23.4623 21.7064L23.4633 21.7064C24.0997 21.7522 24.7384 21.6569 25.3338 21.4274C25.9291 21.1978 26.4665 20.8397 26.9075 20.3786L26.908 20.3782C28.1064 19.1096 28.4463 17.0166 27.7185 15.3966C27.0149 13.8279 25.5833 12.8187 24.0489 12.8187H23.9733V12.8187L23.9711 12.8187C22.5439 12.8498 21.3856 13.743 20.7891 15.2421L20.7891 15.2422C20.0465 17.1098 20.4815 19.2093 20.8253 20.8688L20.8285 20.8842L20.8286 20.8843C22.2147 27.5391 23.0747 34.4375 23.9073 41.1159ZM20.2851 47.0922C21.6217 46.4396 23.0344 45.9864 24.4887 45.7459L24.6301 46.828L24.6302 46.8285C24.8355 48.4026 25.0469 50.0233 25.0493 51.6405C25.0528 53.3962 24.6976 54.5887 23.9859 55.313L23.9858 55.3131C23.3925 55.9192 22.6217 56.1983 21.7003 56.133L21.7002 56.1329C20.254 56.032 18.5734 55.0651 17.6241 53.7805L17.624 53.7804C16.9508 52.8707 16.7422 51.881 16.9988 50.8349L16.9988 50.8348C17.3564 49.3682 18.644 47.8944 20.2851 47.0922Z" fill="#27272A" stroke="#27272A" stroke-width="0.2"/>
<path d="M47.1741 19.9712C47.1001 19.9721 47.0261 19.973 46.9521 19.9739C46.4408 19.9804 45.9302 19.9868 45.4197 19.9868H32.1261C31.7949 19.9868 30.4941 20.0168 29.1909 20.048L47.1741 19.9712ZM47.1741 19.9712C47.2293 19.9705 47.2847 19.9699 47.3402 19.9693M47.1741 19.9712L47.3402 19.9693M47.3402 19.9693C48.4466 19.9565 49.5884 19.9433 50.7117 19.9868L47.3402 19.9693ZM29.1885 19.948L29.1885 19.948C27.8925 19.9792 26.5985 20.0104 26.2701 20.0104C26.164 20.0104 26.0622 20.0525 25.9872 20.1275C25.9122 20.2025 25.8701 20.3043 25.8701 20.4104C25.8701 20.5165 25.9122 20.6182 25.9872 20.6932C26.0622 20.7682 26.164 20.8104 26.2701 20.8104C26.6029 20.8104 27.9067 20.7791 29.2088 20.7467C30.5047 20.7167 31.7988 20.6868 32.1261 20.6868H45.4197C45.9325 20.6868 46.4472 20.6803 46.9614 20.6739C47.0351 20.673 47.1088 20.6721 47.1825 20.6712L47.2243 20.6706C48.3661 20.6564 49.538 20.6418 50.6838 20.6867L50.6839 20.6867C51.9506 20.7348 52.9876 20.1882 53.5166 19.1354C54.2565 17.6666 53.9121 15.5273 52.7181 14.0406C51.6882 12.7564 50.3283 12.7742 49.0573 12.7909L49.0393 12.7912L49.0388 12.7912L48.5721 12.7948L48.5717 12.7948L24.6273 12.7912H24.6273C24.5212 12.7912 24.4194 12.8333 24.3444 12.9083C24.2694 12.9833 24.2273 13.0851 24.2273 13.1912C24.2273 13.2973 24.2694 13.399 24.3444 13.474C24.4194 13.549 24.5212 13.5912 24.6273 13.5912C24.6273 13.5912 24.6273 13.5912 24.6273 13.5912L48.5721 13.5948L48.5728 13.5948L49.048 13.5912L49.0487 13.5912C50.2909 13.5731 51.3115 13.5633 52.0941 14.5389C52.5914 15.1595 52.9166 15.9275 53.0427 16.6881C53.1689 17.4496 53.0944 18.1955 52.8027 18.7754C52.4198 19.5368 51.704 19.9321 50.7162 19.8869L50.7155 19.8868C49.5896 19.8433 48.4455 19.8565 47.3397 19.8693C47.284 19.8699 47.2284 19.8705 47.1729 19.8712L47.1728 19.8712C47.0988 19.8721 47.0247 19.873 46.9508 19.8739C46.4394 19.8804 45.9295 19.8868 45.4197 19.8868H32.1261C31.7933 19.8868 30.4907 19.9168 29.1885 19.948Z" fill="#27272A" stroke="#27272A" stroke-width="0.2"/>
<path d="M43.6181 57.1896L43.6183 57.1896C44.079 57.2016 44.5554 57.2136 45.0369 57.2136C46.5337 57.2136 48.0882 57.0964 49.3352 56.4718C50.5914 55.8426 51.5251 54.7038 51.7865 52.6914C52.2016 49.5223 52.0573 46.1745 51.9182 42.9475L51.918 42.9421L51.918 42.9421L51.8724 41.896C51.774 39.4432 51.6215 36.9558 51.4739 34.5511C51.4739 34.5511 51.4739 34.5511 51.4739 34.5511L51.4691 34.4723C51.1849 29.8245 50.8915 25.0249 50.9845 20.2948L50.9845 20.2945C50.9862 20.1886 50.9459 20.0865 50.8724 20.0103L50.8724 20.0103C50.799 19.9341 50.6983 19.8902 50.5925 19.8881V19.888H50.5905H50.5845C50.4798 19.888 50.3793 19.9291 50.3045 20.0024C50.2297 20.0756 50.1866 20.1753 50.1845 20.28L50.1845 20.2801C50.0899 25.0564 50.3871 29.8906 50.6744 34.5619L50.6767 34.5994L50.6767 34.5997C50.835 37.0411 50.9669 39.4841 51.0726 41.9284L51.0726 41.9284L51.1182 42.9759L51.1182 42.976L51.119 42.9942C51.2568 46.1955 51.3989 49.4943 50.993 52.5886L50.9929 52.5888C50.8635 53.5897 50.5408 54.3268 50.0852 54.8707C49.6296 55.4148 49.0354 55.7723 48.3522 56.0048C46.9817 56.4712 45.2711 56.4295 43.6446 56.3898L43.639 56.3897C43.639 56.3897 43.639 56.3897 43.639 56.3897C43.5895 56.3884 43.5402 56.3872 43.491 56.386C43.1086 56.3763 42.7341 56.3668 42.3765 56.3668C39.7086 56.3668 33.6699 56.2853 28.8155 56.2192L28.8112 56.2192C25.5821 56.176 22.8902 56.14 22.0965 56.14C21.9904 56.14 21.8887 56.1822 21.8137 56.2572C21.7387 56.3322 21.6965 56.434 21.6965 56.54C21.6965 56.6461 21.7387 56.7479 21.8137 56.8229H21.8137C21.8887 56.8979 21.9904 56.94 22.0965 56.94C22.8876 56.94 25.5758 56.976 28.8032 57.0192C33.6603 57.0852 39.7032 57.1668 42.3765 57.1668C42.7721 57.1668 43.1884 57.1776 43.6181 57.1896ZM50.8005 20.0797C50.8556 20.1368 50.8858 20.2135 50.8845 20.2928L50.7743 34.5578C50.487 29.8852 50.1899 25.0544 50.2845 20.282C50.2861 20.2035 50.3184 20.1287 50.3745 20.0738C50.4306 20.0188 50.506 19.988 50.5845 19.988H50.5905C50.6699 19.9896 50.7454 20.0226 50.8005 20.0797Z" fill="#27272A" stroke="#27272A" stroke-width="0.2"/>
<path d="M38.1305 42.8335C38.1305 45.2269 40.1668 47.1671 42.6621 47.1671C45.1562 47.1671 47.1925 45.2269 47.1925 42.8335C47.1925 40.44 45.1574 38.4999 42.6621 38.4999C40.1668 38.4999 38.1305 40.44 38.1305 42.8335ZM38.9305 42.8335C38.9305 40.8908 40.5991 39.2999 42.6621 39.2999C44.7239 39.2999 46.3925 40.8896 46.3925 42.8335C46.3925 44.7773 44.7251 46.3671 42.6621 46.3671C40.5991 46.3671 38.9305 44.7761 38.9305 42.8335Z" fill="#27272A" stroke="#27272A" stroke-width="0.2"/>
<mask id="path-6-outside-1_518_2203" maskUnits="userSpaceOnUse" x="24.9701" y="24.1672" width="25" height="29" fill="black">
<rect fill="white" x="24.9701" y="24.1672" width="25" height="29"/>
<path d="M37.6821 52.1936C37.538 52.1949 37.3975 52.1485 37.2825 52.0616C37.1927 51.9886 37.1189 51.8979 37.0659 51.795C37.0128 51.6922 36.9816 51.5795 36.9741 51.464C36.9405 51.1016 37.0701 50.7056 37.1865 50.4008C37.2513 50.2328 37.3605 49.9448 37.3281 49.8668C37.3209 49.8812 37.1769 49.8932 36.9549 50.0084C36.1305 50.4368 35.7621 50.1956 35.6181 50.0156C35.3169 49.6412 35.4897 48.9776 36.0693 48.2852C36.6669 47.5712 37.4253 46.8608 38.1573 46.1732C38.5377 45.8168 38.9133 45.4652 39.2589 45.1196C39.2866 45.091 39.3197 45.0682 39.3564 45.0526C39.393 45.0369 39.4324 45.0287 39.4722 45.0284C39.512 45.0281 39.5515 45.0357 39.5884 45.0509C39.6252 45.066 39.6587 45.0883 39.6868 45.1165C39.7149 45.1447 39.7372 45.1783 39.7522 45.2152C39.7672 45.252 39.7748 45.2916 39.7744 45.3314C39.774 45.3712 39.7656 45.4106 39.7499 45.4472C39.7341 45.4837 39.7112 45.5168 39.6825 45.5444C39.3345 45.8936 38.9529 46.25 38.5665 46.6124C37.8465 47.2868 37.1025 47.984 36.5289 48.6692C36.0993 49.1852 36.0369 49.5728 36.0849 49.64C36.1077 49.6556 36.2853 49.6784 36.6789 49.4756C36.9213 49.3508 37.2705 49.2236 37.5573 49.3268C37.7049 49.3796 37.8153 49.4828 37.8777 49.6268C38.0097 49.9256 37.8777 50.2748 37.7601 50.5832C37.6617 50.84 37.5489 51.1664 37.5717 51.4064C37.5813 51.5024 37.6173 51.5624 37.6449 51.5828C38.7405 51.4064 41.7945 47.738 42.3969 46.6244C42.4157 46.5897 42.4412 46.559 42.472 46.5342C42.5027 46.5093 42.538 46.4908 42.576 46.4797C42.6139 46.4685 42.6536 46.465 42.6929 46.4692C42.7322 46.4735 42.7702 46.4854 42.8049 46.5044C42.8744 46.5425 42.9261 46.6065 42.9485 46.6825C42.971 46.7585 42.9625 46.8403 42.9249 46.91C42.3957 47.8868 39.2157 51.932 37.8093 52.1828C37.7673 52.1907 37.7248 52.1935 37.6821 52.1936ZM46.1313 52.0688C45.6981 52.0688 45.2553 51.6188 44.9553 50.8604C44.5089 49.7288 44.0793 48.4556 43.6065 46.8524C43.5839 46.7761 43.5926 46.6938 43.6306 46.6238C43.6686 46.5538 43.7329 46.5018 43.8093 46.4792C43.8857 46.4566 43.9679 46.4653 44.0379 46.5033C44.1079 46.5414 44.1599 46.6057 44.1825 46.682C44.6505 48.2672 45.0729 49.526 45.5145 50.6396C45.7701 51.2876 46.0461 51.4568 46.1349 51.4676C46.1625 51.4556 46.2729 51.308 46.2825 50.8424C46.2873 50.57 46.3401 50.2004 46.5657 49.9904C46.6176 49.9364 46.681 49.8948 46.7513 49.8689C46.8215 49.8429 46.8967 49.8332 46.9713 49.8404C47.3049 49.856 47.5521 50.1404 47.7681 50.3924C47.9361 50.5856 48.1665 50.8304 48.3825 50.9168C48.4641 50.9468 48.5289 50.9432 48.5649 50.9288C48.8745 50.042 47.0589 47.5304 46.1853 46.3232C45.9381 45.9812 45.7305 45.6932 45.6021 45.4952C45.578 45.4624 45.5608 45.4249 45.5516 45.3852C45.5424 45.3455 45.5415 45.3043 45.5487 45.2641C45.556 45.224 45.5714 45.1858 45.594 45.1518C45.6165 45.1179 45.6457 45.0888 45.6799 45.0665C45.714 45.0442 45.7523 45.0291 45.7925 45.0221C45.8327 45.0152 45.8739 45.0164 45.9135 45.0259C45.9532 45.0354 45.9905 45.0528 46.0232 45.0772C46.0559 45.1015 46.0833 45.1323 46.1037 45.1676C46.2285 45.3596 46.4301 45.6392 46.6713 45.9716C48.1233 47.978 49.5117 50.0228 49.1805 51.0536C49.1525 51.1443 49.106 51.2282 49.0441 51.3C48.9821 51.3719 48.906 51.4302 48.8205 51.4712C48.7163 51.516 48.6041 51.5392 48.4907 51.5397C48.3773 51.5401 48.265 51.5176 48.1605 51.4736C47.8257 51.3416 47.5413 51.0452 47.3301 50.8016C47.2221 50.6756 47.0241 50.4488 46.9413 50.4392C46.9485 50.4524 46.8873 50.5952 46.8825 50.8532C46.8633 51.8048 46.4721 52.0172 46.2417 52.0592C46.2052 52.0656 46.1683 52.0688 46.1313 52.0688ZM43.5873 25.7672H26.2713C26.1917 25.7672 26.1154 25.7356 26.0592 25.6794C26.0029 25.6231 25.9713 25.5468 25.9713 25.4672C25.9713 25.3877 26.0029 25.3114 26.0592 25.2551C26.1154 25.1988 26.1917 25.1672 26.2713 25.1672H43.5873C43.6669 25.1672 43.7432 25.1988 43.7994 25.2551C43.8557 25.3114 43.8873 25.3877 43.8873 25.4672C43.8873 25.5468 43.8557 25.6231 43.7994 25.6794C43.7432 25.7356 43.6669 25.7672 43.5873 25.7672ZM41.0937 29.3396H26.2701C26.1905 29.3396 26.1142 29.308 26.058 29.2518C26.0017 29.1955 25.9701 29.1192 25.9701 29.0396C25.9701 28.9601 26.0017 28.8838 26.058 28.8275C26.1142 28.7712 26.1905 28.7396 26.2701 28.7396H41.0937C41.1733 28.7396 41.2496 28.7712 41.3058 28.8275C41.3621 28.8838 41.3937 28.9601 41.3937 29.0396C41.3937 29.1192 41.3621 29.1955 41.3058 29.2518C41.2496 29.308 41.1733 29.3396 41.0937 29.3396ZM41.0937 33.1628H26.2701C26.1905 33.1628 26.1142 33.1312 26.058 33.075C26.0017 33.0187 25.9701 32.9424 25.9701 32.8628C25.9701 32.7833 26.0017 32.707 26.058 32.6507C26.1142 32.5944 26.1905 32.5628 26.2701 32.5628H41.0937C41.1733 32.5628 41.2496 32.5944 41.3058 32.6507C41.3621 32.707 41.3937 32.7833 41.3937 32.8628C41.3937 32.9424 41.3621 33.0187 41.3058 33.075C41.2496 33.1312 41.1733 33.1628 41.0937 33.1628ZM41.0937 36.9848H26.2701C26.1905 36.9848 26.1142 36.9532 26.058 36.897C26.0017 36.8407 25.9701 36.7644 25.9701 36.6848C25.9701 36.6053 26.0017 36.529 26.058 36.4727C26.1142 36.4164 26.1905 36.3848 26.2701 36.3848H41.0937C41.1733 36.3848 41.2496 36.4164 41.3058 36.4727C41.3621 36.529 41.3937 36.6053 41.3937 36.6848C41.3937 36.7644 41.3621 36.8407 41.3058 36.897C41.2496 36.9532 41.1733 36.9848 41.0937 36.9848ZM36.9945 40.808H26.2701C26.1905 40.808 26.1142 40.7764 26.058 40.7202C26.0017 40.6639 25.9701 40.5876 25.9701 40.508C25.9701 40.4285 26.0017 40.3522 26.058 40.2959C26.1142 40.2396 26.1905 40.208 26.2701 40.208H36.9945C37.0741 40.208 37.1504 40.2396 37.2066 40.2959C37.2629 40.3522 37.2945 40.4285 37.2945 40.508C37.2945 40.5876 37.2629 40.6639 37.2066 40.7202C37.1504 40.7764 37.0741 40.808 36.9945 40.808Z"/>
</mask>
<path d="M37.6821 52.1936C37.538 52.1949 37.3975 52.1485 37.2825 52.0616C37.1927 51.9886 37.1189 51.8979 37.0659 51.795C37.0128 51.6922 36.9816 51.5795 36.9741 51.464C36.9405 51.1016 37.0701 50.7056 37.1865 50.4008C37.2513 50.2328 37.3605 49.9448 37.3281 49.8668C37.3209 49.8812 37.1769 49.8932 36.9549 50.0084C36.1305 50.4368 35.7621 50.1956 35.6181 50.0156C35.3169 49.6412 35.4897 48.9776 36.0693 48.2852C36.6669 47.5712 37.4253 46.8608 38.1573 46.1732C38.5377 45.8168 38.9133 45.4652 39.2589 45.1196C39.2866 45.091 39.3197 45.0682 39.3564 45.0526C39.393 45.0369 39.4324 45.0287 39.4722 45.0284C39.512 45.0281 39.5515 45.0357 39.5884 45.0509C39.6252 45.066 39.6587 45.0883 39.6868 45.1165C39.7149 45.1447 39.7372 45.1783 39.7522 45.2152C39.7672 45.252 39.7748 45.2916 39.7744 45.3314C39.774 45.3712 39.7656 45.4106 39.7499 45.4472C39.7341 45.4837 39.7112 45.5168 39.6825 45.5444C39.3345 45.8936 38.9529 46.25 38.5665 46.6124C37.8465 47.2868 37.1025 47.984 36.5289 48.6692C36.0993 49.1852 36.0369 49.5728 36.0849 49.64C36.1077 49.6556 36.2853 49.6784 36.6789 49.4756C36.9213 49.3508 37.2705 49.2236 37.5573 49.3268C37.7049 49.3796 37.8153 49.4828 37.8777 49.6268C38.0097 49.9256 37.8777 50.2748 37.7601 50.5832C37.6617 50.84 37.5489 51.1664 37.5717 51.4064C37.5813 51.5024 37.6173 51.5624 37.6449 51.5828C38.7405 51.4064 41.7945 47.738 42.3969 46.6244C42.4157 46.5897 42.4412 46.559 42.472 46.5342C42.5027 46.5093 42.538 46.4908 42.576 46.4797C42.6139 46.4685 42.6536 46.465 42.6929 46.4692C42.7322 46.4735 42.7702 46.4854 42.8049 46.5044C42.8744 46.5425 42.9261 46.6065 42.9485 46.6825C42.971 46.7585 42.9625 46.8403 42.9249 46.91C42.3957 47.8868 39.2157 51.932 37.8093 52.1828C37.7673 52.1907 37.7248 52.1935 37.6821 52.1936ZM46.1313 52.0688C45.6981 52.0688 45.2553 51.6188 44.9553 50.8604C44.5089 49.7288 44.0793 48.4556 43.6065 46.8524C43.5839 46.7761 43.5926 46.6938 43.6306 46.6238C43.6686 46.5538 43.7329 46.5018 43.8093 46.4792C43.8857 46.4566 43.9679 46.4653 44.0379 46.5033C44.1079 46.5414 44.1599 46.6057 44.1825 46.682C44.6505 48.2672 45.0729 49.526 45.5145 50.6396C45.7701 51.2876 46.0461 51.4568 46.1349 51.4676C46.1625 51.4556 46.2729 51.308 46.2825 50.8424C46.2873 50.57 46.3401 50.2004 46.5657 49.9904C46.6176 49.9364 46.681 49.8948 46.7513 49.8689C46.8215 49.8429 46.8967 49.8332 46.9713 49.8404C47.3049 49.856 47.5521 50.1404 47.7681 50.3924C47.9361 50.5856 48.1665 50.8304 48.3825 50.9168C48.4641 50.9468 48.5289 50.9432 48.5649 50.9288C48.8745 50.042 47.0589 47.5304 46.1853 46.3232C45.9381 45.9812 45.7305 45.6932 45.6021 45.4952C45.578 45.4624 45.5608 45.4249 45.5516 45.3852C45.5424 45.3455 45.5415 45.3043 45.5487 45.2641C45.556 45.224 45.5714 45.1858 45.594 45.1518C45.6165 45.1179 45.6457 45.0888 45.6799 45.0665C45.714 45.0442 45.7523 45.0291 45.7925 45.0221C45.8327 45.0152 45.8739 45.0164 45.9135 45.0259C45.9532 45.0354 45.9905 45.0528 46.0232 45.0772C46.0559 45.1015 46.0833 45.1323 46.1037 45.1676C46.2285 45.3596 46.4301 45.6392 46.6713 45.9716C48.1233 47.978 49.5117 50.0228 49.1805 51.0536C49.1525 51.1443 49.106 51.2282 49.0441 51.3C48.9821 51.3719 48.906 51.4302 48.8205 51.4712C48.7163 51.516 48.6041 51.5392 48.4907 51.5397C48.3773 51.5401 48.265 51.5176 48.1605 51.4736C47.8257 51.3416 47.5413 51.0452 47.3301 50.8016C47.2221 50.6756 47.0241 50.4488 46.9413 50.4392C46.9485 50.4524 46.8873 50.5952 46.8825 50.8532C46.8633 51.8048 46.4721 52.0172 46.2417 52.0592C46.2052 52.0656 46.1683 52.0688 46.1313 52.0688ZM43.5873 25.7672H26.2713C26.1917 25.7672 26.1154 25.7356 26.0592 25.6794C26.0029 25.6231 25.9713 25.5468 25.9713 25.4672C25.9713 25.3877 26.0029 25.3114 26.0592 25.2551C26.1154 25.1988 26.1917 25.1672 26.2713 25.1672H43.5873C43.6669 25.1672 43.7432 25.1988 43.7994 25.2551C43.8557 25.3114 43.8873 25.3877 43.8873 25.4672C43.8873 25.5468 43.8557 25.6231 43.7994 25.6794C43.7432 25.7356 43.6669 25.7672 43.5873 25.7672ZM41.0937 29.3396H26.2701C26.1905 29.3396 26.1142 29.308 26.058 29.2518C26.0017 29.1955 25.9701 29.1192 25.9701 29.0396C25.9701 28.9601 26.0017 28.8838 26.058 28.8275C26.1142 28.7712 26.1905 28.7396 26.2701 28.7396H41.0937C41.1733 28.7396 41.2496 28.7712 41.3058 28.8275C41.3621 28.8838 41.3937 28.9601 41.3937 29.0396C41.3937 29.1192 41.3621 29.1955 41.3058 29.2518C41.2496 29.308 41.1733 29.3396 41.0937 29.3396ZM41.0937 33.1628H26.2701C26.1905 33.1628 26.1142 33.1312 26.058 33.075C26.0017 33.0187 25.9701 32.9424 25.9701 32.8628C25.9701 32.7833 26.0017 32.707 26.058 32.6507C26.1142 32.5944 26.1905 32.5628 26.2701 32.5628H41.0937C41.1733 32.5628 41.2496 32.5944 41.3058 32.6507C41.3621 32.707 41.3937 32.7833 41.3937 32.8628C41.3937 32.9424 41.3621 33.0187 41.3058 33.075C41.2496 33.1312 41.1733 33.1628 41.0937 33.1628ZM41.0937 36.9848H26.2701C26.1905 36.9848 26.1142 36.9532 26.058 36.897C26.0017 36.8407 25.9701 36.7644 25.9701 36.6848C25.9701 36.6053 26.0017 36.529 26.058 36.4727C26.1142 36.4164 26.1905 36.3848 26.2701 36.3848H41.0937C41.1733 36.3848 41.2496 36.4164 41.3058 36.4727C41.3621 36.529 41.3937 36.6053 41.3937 36.6848C41.3937 36.7644 41.3621 36.8407 41.3058 36.897C41.2496 36.9532 41.1733 36.9848 41.0937 36.9848ZM36.9945 40.808H26.2701C26.1905 40.808 26.1142 40.7764 26.058 40.7202C26.0017 40.6639 25.9701 40.5876 25.9701 40.508C25.9701 40.4285 26.0017 40.3522 26.058 40.2959C26.1142 40.2396 26.1905 40.208 26.2701 40.208H36.9945C37.0741 40.208 37.1504 40.2396 37.2066 40.2959C37.2629 40.3522 37.2945 40.4285 37.2945 40.508C37.2945 40.5876 37.2629 40.6639 37.2066 40.7202C37.1504 40.7764 37.0741 40.808 36.9945 40.808Z" fill="#27272A"/>
<path d="M37.6821 52.1936C37.538 52.1949 37.3975 52.1485 37.2825 52.0616C37.1927 51.9886 37.1189 51.8979 37.0659 51.795C37.0128 51.6922 36.9816 51.5795 36.9741 51.464C36.9405 51.1016 37.0701 50.7056 37.1865 50.4008C37.2513 50.2328 37.3605 49.9448 37.3281 49.8668C37.3209 49.8812 37.1769 49.8932 36.9549 50.0084C36.1305 50.4368 35.7621 50.1956 35.6181 50.0156C35.3169 49.6412 35.4897 48.9776 36.0693 48.2852C36.6669 47.5712 37.4253 46.8608 38.1573 46.1732C38.5377 45.8168 38.9133 45.4652 39.2589 45.1196C39.2866 45.091 39.3197 45.0682 39.3564 45.0526C39.393 45.0369 39.4324 45.0287 39.4722 45.0284C39.512 45.0281 39.5515 45.0357 39.5884 45.0509C39.6252 45.066 39.6587 45.0883 39.6868 45.1165C39.7149 45.1447 39.7372 45.1783 39.7522 45.2152C39.7672 45.252 39.7748 45.2916 39.7744 45.3314C39.774 45.3712 39.7656 45.4106 39.7499 45.4472C39.7341 45.4837 39.7112 45.5168 39.6825 45.5444C39.3345 45.8936 38.9529 46.25 38.5665 46.6124C37.8465 47.2868 37.1025 47.984 36.5289 48.6692C36.0993 49.1852 36.0369 49.5728 36.0849 49.64C36.1077 49.6556 36.2853 49.6784 36.6789 49.4756C36.9213 49.3508 37.2705 49.2236 37.5573 49.3268C37.7049 49.3796 37.8153 49.4828 37.8777 49.6268C38.0097 49.9256 37.8777 50.2748 37.7601 50.5832C37.6617 50.84 37.5489 51.1664 37.5717 51.4064C37.5813 51.5024 37.6173 51.5624 37.6449 51.5828C38.7405 51.4064 41.7945 47.738 42.3969 46.6244C42.4157 46.5897 42.4412 46.559 42.472 46.5342C42.5027 46.5093 42.538 46.4908 42.576 46.4797C42.6139 46.4685 42.6536 46.465 42.6929 46.4692C42.7322 46.4735 42.7702 46.4854 42.8049 46.5044C42.8744 46.5425 42.9261 46.6065 42.9485 46.6825C42.971 46.7585 42.9625 46.8403 42.9249 46.91C42.3957 47.8868 39.2157 51.932 37.8093 52.1828C37.7673 52.1907 37.7248 52.1935 37.6821 52.1936ZM46.1313 52.0688C45.6981 52.0688 45.2553 51.6188 44.9553 50.8604C44.5089 49.7288 44.0793 48.4556 43.6065 46.8524C43.5839 46.7761 43.5926 46.6938 43.6306 46.6238C43.6686 46.5538 43.7329 46.5018 43.8093 46.4792C43.8857 46.4566 43.9679 46.4653 44.0379 46.5033C44.1079 46.5414 44.1599 46.6057 44.1825 46.682C44.6505 48.2672 45.0729 49.526 45.5145 50.6396C45.7701 51.2876 46.0461 51.4568 46.1349 51.4676C46.1625 51.4556 46.2729 51.308 46.2825 50.8424C46.2873 50.57 46.3401 50.2004 46.5657 49.9904C46.6176 49.9364 46.681 49.8948 46.7513 49.8689C46.8215 49.8429 46.8967 49.8332 46.9713 49.8404C47.3049 49.856 47.5521 50.1404 47.7681 50.3924C47.9361 50.5856 48.1665 50.8304 48.3825 50.9168C48.4641 50.9468 48.5289 50.9432 48.5649 50.9288C48.8745 50.042 47.0589 47.5304 46.1853 46.3232C45.9381 45.9812 45.7305 45.6932 45.6021 45.4952C45.578 45.4624 45.5608 45.4249 45.5516 45.3852C45.5424 45.3455 45.5415 45.3043 45.5487 45.2641C45.556 45.224 45.5714 45.1858 45.594 45.1518C45.6165 45.1179 45.6457 45.0888 45.6799 45.0665C45.714 45.0442 45.7523 45.0291 45.7925 45.0221C45.8327 45.0152 45.8739 45.0164 45.9135 45.0259C45.9532 45.0354 45.9905 45.0528 46.0232 45.0772C46.0559 45.1015 46.0833 45.1323 46.1037 45.1676C46.2285 45.3596 46.4301 45.6392 46.6713 45.9716C48.1233 47.978 49.5117 50.0228 49.1805 51.0536C49.1525 51.1443 49.106 51.2282 49.0441 51.3C48.9821 51.3719 48.906 51.4302 48.8205 51.4712C48.7163 51.516 48.6041 51.5392 48.4907 51.5397C48.3773 51.5401 48.265 51.5176 48.1605 51.4736C47.8257 51.3416 47.5413 51.0452 47.3301 50.8016C47.2221 50.6756 47.0241 50.4488 46.9413 50.4392C46.9485 50.4524 46.8873 50.5952 46.8825 50.8532C46.8633 51.8048 46.4721 52.0172 46.2417 52.0592C46.2052 52.0656 46.1683 52.0688 46.1313 52.0688ZM43.5873 25.7672H26.2713C26.1917 25.7672 26.1154 25.7356 26.0592 25.6794C26.0029 25.6231 25.9713 25.5468 25.9713 25.4672C25.9713 25.3877 26.0029 25.3114 26.0592 25.2551C26.1154 25.1988 26.1917 25.1672 26.2713 25.1672H43.5873C43.6669 25.1672 43.7432 25.1988 43.7994 25.2551C43.8557 25.3114 43.8873 25.3877 43.8873 25.4672C43.8873 25.5468 43.8557 25.6231 43.7994 25.6794C43.7432 25.7356 43.6669 25.7672 43.5873 25.7672ZM41.0937 29.3396H26.2701C26.1905 29.3396 26.1142 29.308 26.058 29.2518C26.0017 29.1955 25.9701 29.1192 25.9701 29.0396C25.9701 28.9601 26.0017 28.8838 26.058 28.8275C26.1142 28.7712 26.1905 28.7396 26.2701 28.7396H41.0937C41.1733 28.7396 41.2496 28.7712 41.3058 28.8275C41.3621 28.8838 41.3937 28.9601 41.3937 29.0396C41.3937 29.1192 41.3621 29.1955 41.3058 29.2518C41.2496 29.308 41.1733 29.3396 41.0937 29.3396ZM41.0937 33.1628H26.2701C26.1905 33.1628 26.1142 33.1312 26.058 33.075C26.0017 33.0187 25.9701 32.9424 25.9701 32.8628C25.9701 32.7833 26.0017 32.707 26.058 32.6507C26.1142 32.5944 26.1905 32.5628 26.2701 32.5628H41.0937C41.1733 32.5628 41.2496 32.5944 41.3058 32.6507C41.3621 32.707 41.3937 32.7833 41.3937 32.8628C41.3937 32.9424 41.3621 33.0187 41.3058 33.075C41.2496 33.1312 41.1733 33.1628 41.0937 33.1628ZM41.0937 36.9848H26.2701C26.1905 36.9848 26.1142 36.9532 26.058 36.897C26.0017 36.8407 25.9701 36.7644 25.9701 36.6848C25.9701 36.6053 26.0017 36.529 26.058 36.4727C26.1142 36.4164 26.1905 36.3848 26.2701 36.3848H41.0937C41.1733 36.3848 41.2496 36.4164 41.3058 36.4727C41.3621 36.529 41.3937 36.6053 41.3937 36.6848C41.3937 36.7644 41.3621 36.8407 41.3058 36.897C41.2496 36.9532 41.1733 36.9848 41.0937 36.9848ZM36.9945 40.808H26.2701C26.1905 40.808 26.1142 40.7764 26.058 40.7202C26.0017 40.6639 25.9701 40.5876 25.9701 40.508C25.9701 40.4285 26.0017 40.3522 26.058 40.2959C26.1142 40.2396 26.1905 40.208 26.2701 40.208H36.9945C37.0741 40.208 37.1504 40.2396 37.2066 40.2959C37.2629 40.3522 37.2945 40.4285 37.2945 40.508C37.2945 40.5876 37.2629 40.6639 37.2066 40.7202C37.1504 40.7764 37.0741 40.808 36.9945 40.808Z" stroke="#27272A" stroke-width="0.4" mask="url(#path-6-outside-1_518_2203)"/>
<defs>
<linearGradient id="paint0_linear_518_2203" x1="35" y1="57.1981" x2="35" y2="4.24254" gradientUnits="userSpaceOnUse">
<stop stop-color="#27272A"/>
<stop offset="1" stop-color="#F1F4F9" stop-opacity="0"/>
</linearGradient>
</defs>
</svg>
