<svg width="70" height="70" viewBox="0 0 70 70" fill="none" xmlns="http://www.w3.org/2000/svg">
<rect x="0.5" y="0.5" width="69" height="69" rx="34.5" stroke="url(#paint0_linear_518_2193)"/>
<path d="M45.7184 58.6093C44.9644 58.6093 44.3014 58.3727 43.7385 57.9008C41.301 55.8598 41.392 49.9474 41.4479 46.4153C41.4583 45.6873 41.4674 45.0854 41.4479 44.6798C41.3426 42.3775 41.4557 35.6812 41.4973 33.1605L41.5103 32.3246C41.5181 31.9138 41.4973 31.4913 41.4804 31.0636C41.4479 30.2732 41.4115 29.4555 41.5259 28.6807C41.7001 27.4847 42.6816 26.3836 44.0258 25.8779C45.3232 25.3878 46.6596 25.575 47.5969 26.3758C48.8514 27.447 48.9736 29.6765 49.0321 30.7477C49.0958 31.9242 49.4923 50.3478 49.413 53.7902C49.3831 55.0512 49.0425 58.0373 46.4971 58.5313C46.228 58.5833 45.9667 58.6093 45.7184 58.6093ZM45.4506 26.2601C45.0606 26.2601 44.6576 26.3342 44.2546 26.4863C43.1288 26.9101 42.3098 27.8084 42.1681 28.7743C42.0641 29.4893 42.0979 30.2758 42.1304 31.0363C42.1486 31.4757 42.1681 31.9112 42.1616 32.3337L42.1473 33.1709C42.1057 35.6864 41.9913 42.3684 42.0992 44.6499C42.1174 45.0698 42.1096 45.6678 42.0966 46.4257C42.0485 49.6172 41.9549 55.5595 44.1558 57.4029C44.7564 57.906 45.4818 58.0698 46.3723 57.893C48.4536 57.49 48.7383 54.8796 48.763 53.7759C48.8423 50.34 48.4471 31.9567 48.3821 30.7841C48.3288 29.8026 48.217 27.7603 47.1757 26.8711C46.6925 26.4672 46.0803 26.2504 45.4506 26.2601ZM41.2698 21.5749C41.0748 21.5749 40.8655 21.5593 40.6289 21.5307C37.388 21.1238 34.5059 18.5797 33.7727 15.4831C33.4893 14.2819 33.7441 13.1873 34.489 12.4008C35.373 11.4674 36.8498 11.0813 38.4449 11.3686C40.9669 11.8236 43.6163 14.0596 44.4769 16.4607C44.8773 17.5787 44.7902 18.8345 44.2429 19.8186C43.7463 20.7078 42.939 21.2928 41.9081 21.5112C41.6986 21.5546 41.4838 21.5759 41.2698 21.5749ZM34.4058 15.3336C35.0766 18.1767 37.7273 20.5115 40.7082 20.8846C41.1528 20.9405 41.4804 20.9366 41.7742 20.8755C42.6153 20.6974 43.2731 20.2229 43.6722 19.5027C44.1324 18.6798 44.2039 17.6255 43.8646 16.6791C43.0898 14.5133 40.6055 12.4177 38.3305 12.0082C36.9473 11.7573 35.6941 12.0745 34.9622 12.848C34.3629 13.4798 34.1705 14.3391 34.4058 15.3336Z" fill="black"/>
<path d="M45.357 25.9663H45.3531C45.2671 25.9653 45.1851 25.9302 45.1249 25.8688C45.0647 25.8074 45.0313 25.7247 45.032 25.6387C45.032 25.5087 45.0489 25.341 45.0697 25.1421C45.1841 24.0436 45.3934 21.9961 43.1613 20.7377C43.0861 20.6953 43.0309 20.6248 43.0077 20.5416C42.9846 20.4585 42.9954 20.3696 43.0378 20.2944C43.0802 20.2192 43.1507 20.164 43.2339 20.1408C43.317 20.1177 43.4059 20.1285 43.4811 20.1709C46.0837 21.6386 45.8367 24.0501 45.7171 25.2084C45.699 25.3534 45.6873 25.4992 45.682 25.6452C45.681 25.7307 45.6463 25.8124 45.5854 25.8725C45.5246 25.9326 45.4425 25.9663 45.357 25.9663ZM32.3973 58.725C31.6433 58.725 30.9803 58.4884 30.4174 58.0165C27.9799 55.9742 28.0722 50.0618 28.1281 46.5297C28.1385 45.8017 28.1476 45.1998 28.1281 44.7942C28.0228 42.4932 28.1359 35.7969 28.1775 33.2762L28.1905 32.4403C28.197 32.0308 28.1801 31.6083 28.1606 31.1832C28.1281 30.3902 28.093 29.5712 28.2074 28.7964C28.3816 27.5991 29.3631 26.498 30.7073 25.9923C32.0047 25.5048 33.3398 25.6907 34.2771 26.4915C35.5329 27.5614 35.6551 29.7909 35.7136 30.8634C35.7773 32.0399 36.1738 50.4622 36.0945 53.9059C36.0633 55.1669 35.7201 58.1543 33.1773 58.647C32.9204 58.6978 32.6592 58.7239 32.3973 58.725ZM32.1308 26.3745C31.7421 26.3745 31.3378 26.4499 30.9374 26.6007C29.8103 27.0245 28.9913 27.9228 28.8496 28.8913C28.7456 29.6063 28.7794 30.3941 28.8106 31.1559C28.8288 31.5927 28.847 32.0269 28.8418 32.4481L28.8275 33.2866C28.7859 35.8021 28.6715 42.4841 28.7794 44.7643C28.7976 45.1842 28.7898 45.7835 28.7768 46.5401C28.7287 49.7329 28.6351 55.6752 30.836 57.5186C31.4366 58.0217 32.1672 58.1816 33.0525 58.0074C35.1325 57.6044 35.4185 54.994 35.4445 53.8903C35.5238 50.4557 35.1273 32.075 35.0636 30.8985C35.0103 29.9183 34.8985 27.8747 33.8559 26.9855C33.3727 26.5816 32.7605 26.3647 32.1308 26.3745Z" fill="black"/>
<path d="M33.1046 26.5161H33.1007C33.058 26.5156 33.0158 26.5067 32.9766 26.4899C32.9373 26.4731 32.9018 26.4487 32.872 26.4182C32.8422 26.3876 32.8187 26.3515 32.8028 26.3119C32.7869 26.2723 32.779 26.2299 32.7796 26.1872C32.829 21.827 32.2232 17.4317 27.5016 14.8187C25.9897 13.9828 23.1817 13.6877 21.5151 14.4885C25.3891 14.599 28.7561 16.5386 30.3421 19.5871C31.1741 21.1822 31.49 23.4013 31.282 26.1833C31.2799 26.2261 31.2691 26.2681 31.2503 26.3066C31.2315 26.3451 31.2051 26.3794 31.1726 26.4073C31.1401 26.4353 31.1023 26.4564 31.0614 26.4693C31.0206 26.4822 30.9775 26.4866 30.9349 26.4823C30.849 26.4757 30.7694 26.4353 30.7133 26.3699C30.6573 26.3046 30.6294 26.2197 30.6359 26.1339C30.8296 23.5131 30.528 21.3525 29.7662 19.8874C28.2582 16.9884 25.0017 15.1684 21.2707 15.1333C21.1498 15.1333 20.7793 15.1294 20.6259 14.8239C20.5219 14.612 20.5557 14.2779 20.9899 14.0309C22.858 12.9688 26.0859 13.2938 27.8162 14.2506C32.8368 17.0274 33.4816 21.632 33.4296 26.195C33.4285 26.2805 33.3938 26.3622 33.333 26.4223C33.2722 26.4824 33.1901 26.5161 33.1046 26.5161Z" fill="black"/>
<defs>
<linearGradient id="paint0_linear_518_2193" x1="35" y1="57.1981" x2="35" y2="4.24254" gradientUnits="userSpaceOnUse">
<stop stop-color="#27272A"/>
<stop offset="1" stop-color="#F1F4F9" stop-opacity="0"/>
</linearGradient>
</defs>
</svg>
