<svg width="70" height="70" viewBox="0 0 70 70" fill="none" xmlns="http://www.w3.org/2000/svg">
<rect x="0.5" y="0.5" width="69" height="69" rx="34.5" stroke="url(#paint0_linear_518_2184)"/>
<g clip-path="url(#clip0_518_2184)">
<path d="M55.0013 32.8805H53.7195C53.5491 32.2059 53.2812 31.5597 52.9244 30.9623L53.8306 30.0563C53.9248 29.9622 53.9776 29.8344 53.9776 29.7013C53.9776 29.5681 53.9248 29.4404 53.8306 29.3462L52.0097 27.5252C51.8212 27.337 51.4882 27.337 51.2995 27.5252L50.3936 28.4315C50.1375 28.2785 49.8712 28.1452 49.5985 28.0257C49.9202 25.4266 49.6999 22.735 48.9287 20.0167C48.9248 20.003 48.9203 19.9896 48.9154 19.9763C47.8684 17.2047 46.3386 15.4668 44.368 14.8107C42.0673 14.0443 39.1541 14.7637 35.7082 16.947C33.4304 17.8191 30.8214 17.8188 28.5341 16.947C25.0934 14.7633 22.1811 14.0443 19.8788 14.8104C17.9056 15.4667 16.3742 17.2047 15.327 19.9763C15.322 19.9897 15.3175 20.0033 15.3136 20.0171C13.8265 25.2806 14.3771 30.407 16.9052 34.8411L17.0255 35.0511C17.4624 35.8136 17.5799 36.0183 17.4273 36.9334C16.1286 44.8355 18.5704 50.9927 24.6809 55.2307C24.9161 55.3971 25.1973 55.4864 25.4854 55.4864C25.7101 55.4864 25.9361 55.4321 26.1443 55.3226C26.6174 55.0733 26.9065 54.5881 26.8997 54.0625V44.4263C26.8997 41.5498 29.2442 39.2096 32.1262 39.2096C35.0027 39.2096 37.3429 41.5497 37.3429 44.4263V54.0625C37.3424 54.3226 37.4134 54.5778 37.5481 54.8003C37.6828 55.0228 37.876 55.2041 38.1066 55.3243C38.3353 55.4443 38.5925 55.4992 38.8503 55.4831C39.1081 55.4669 39.3564 55.3804 39.5684 55.2328C43.8613 52.2501 46.3513 48.2994 46.9857 43.4912H47.9733C48.1065 43.4912 48.2342 43.4383 48.3283 43.3441C48.4225 43.25 48.4753 43.1223 48.4753 42.9891V41.7079C49.1557 41.5349 49.7982 41.2687 50.3935 40.9126L51.2997 41.8186C51.3463 41.8653 51.4016 41.9023 51.4625 41.9276C51.5234 41.9528 51.5887 41.9658 51.6546 41.9658C51.7206 41.9658 51.7859 41.9528 51.8468 41.9276C51.9077 41.9023 51.963 41.8653 52.0096 41.8186L53.8305 39.9977C53.8772 39.9511 53.9142 39.8958 53.9394 39.8348C53.9646 39.7739 53.9776 39.7086 53.9776 39.6427C53.9776 39.5767 53.9646 39.5114 53.9393 39.4505C53.914 39.3896 53.877 39.3343 53.8303 39.2877L52.9245 38.3821C53.2804 37.7865 53.5467 37.1439 53.7197 36.4632H55.0012C55.0671 36.4633 55.1324 36.4503 55.1932 36.4251C55.2541 36.3999 55.3095 36.363 55.3561 36.3164C55.4027 36.2698 55.4397 36.2145 55.4649 36.1536C55.4901 36.0927 55.5031 36.0274 55.5031 35.9615V33.3826C55.5032 33.3167 55.4902 33.2514 55.465 33.1905C55.4398 33.1296 55.4028 33.0742 55.3562 33.0276C55.3096 32.981 55.2543 32.944 55.1934 32.9187C55.1325 32.8935 55.0672 32.8805 55.0013 32.8805ZM38.9959 54.4081C38.8117 54.5361 38.638 54.47 38.5722 54.4347C38.431 54.361 38.347 54.2218 38.347 54.0625V44.4263C38.347 40.9964 35.5563 38.206 32.1262 38.206C28.6906 38.206 25.8955 40.9964 25.8955 44.4263L25.8957 54.0693C25.8985 54.2928 25.7432 54.399 25.6762 54.4341C25.6105 54.4688 25.4379 54.5363 25.2562 54.4081C19.4072 50.3511 17.1702 44.6887 18.4177 37.0971C18.6289 35.8299 18.3686 35.3758 17.8963 34.552L17.7779 34.3447C15.389 30.1546 14.8691 25.3021 16.274 20.3109C17.2084 17.8477 18.5278 16.3176 20.1957 15.7632C22.2071 15.0943 24.8453 15.7864 28.0373 17.8209C28.0653 17.8387 28.095 17.8537 28.1259 17.8658C30.6701 18.8505 33.5829 18.8505 36.1173 17.8654C36.1478 17.8536 36.1772 17.8388 36.2049 17.8212C39.4018 15.7864 42.0416 15.0943 44.0508 15.7632C45.7161 16.3179 47.0341 17.848 47.9686 20.3111C48.6764 22.815 48.8935 25.2903 48.6283 27.6811C48.5771 27.6668 48.5271 27.6493 48.4754 27.6362V26.3548C48.4754 26.2216 48.4225 26.0939 48.3284 25.9998C48.2342 25.9056 48.1065 25.8527 47.9734 25.8527H45.3945C45.2614 25.8527 45.1337 25.9056 45.0395 25.9998C44.9454 26.0939 44.8925 26.2216 44.8925 26.3548V27.6362C44.2114 27.8094 43.5684 28.076 42.9726 28.4324L42.0568 27.5241C41.9625 27.4303 41.8347 27.3779 41.7017 27.3782C41.5687 27.3786 41.4412 27.4318 41.3474 27.5262L39.5363 29.3471C39.4426 29.4413 39.39 29.5689 39.3902 29.7018C39.3903 29.8348 39.4432 29.9622 39.5371 30.0563L40.4432 30.9624C40.0865 31.5598 39.8187 32.206 39.6481 32.8806H38.3567C38.2236 32.8806 38.0959 32.9335 38.0018 33.0276C37.9076 33.1217 37.8547 33.2494 37.8547 33.3825V35.9614C37.8547 36.2387 38.0794 36.4631 38.3567 36.4631H39.648C39.8209 37.1438 40.0872 37.7864 40.4432 38.382L39.5371 39.2876C39.4432 39.3816 39.3903 39.5091 39.3901 39.642C39.39 39.7749 39.4426 39.9025 39.5363 39.9967L41.3474 41.8178C41.4412 41.9121 41.5686 41.9653 41.7017 41.9657C41.8347 41.9661 41.9624 41.9137 42.0568 41.82L42.9726 40.912C43.5706 41.2691 44.2173 41.5371 44.8925 41.7079V42.9891C44.8925 43.2666 45.1172 43.4912 45.3945 43.4912H45.9732C45.3482 47.9494 43.0063 51.6216 38.9959 54.4081ZM54.4992 35.4594H53.3181C53.2017 35.4594 53.0889 35.4998 52.999 35.5738C52.9091 35.6478 52.8477 35.7508 52.8254 35.8651C52.6618 36.7019 52.34 37.4775 51.8695 38.1696C51.8037 38.2662 51.7738 38.3827 51.7847 38.4991C51.7957 38.6154 51.847 38.7242 51.9297 38.8068L52.7657 39.6427L51.6547 40.7539L50.8185 39.9177C50.7358 39.8352 50.627 39.7841 50.5107 39.7731C50.3944 39.7621 50.2779 39.792 50.1813 39.8576C49.4893 40.328 48.7139 40.6499 47.8769 40.8137C47.7626 40.8361 47.6598 40.8974 47.5858 40.9873C47.5118 41.0771 47.4713 41.1899 47.4713 41.3063V42.4874H45.8966V41.3063C45.8966 41.1899 45.8561 41.0771 45.7821 40.9872C45.7081 40.8974 45.6052 40.836 45.491 40.8137C44.6538 40.6499 43.8784 40.328 43.1865 39.8576C43.0902 39.7922 42.9741 39.7623 42.8581 39.773C42.7421 39.7837 42.6334 39.8344 42.5506 39.9163L41.7059 40.7544L40.6013 39.6438L41.4384 38.8069C41.521 38.7243 41.5722 38.6154 41.5831 38.4991C41.5941 38.3828 41.5641 38.2663 41.4983 38.1697C41.0278 37.4776 40.7063 36.702 40.5425 35.8651C40.5202 35.7509 40.4588 35.648 40.369 35.574C40.2791 35.5 40.1663 35.4595 40.0499 35.4595H38.859V33.8844H40.0499C40.1663 33.8844 40.2792 33.844 40.369 33.77C40.4589 33.696 40.5202 33.593 40.5425 33.4788C40.7063 32.6419 41.0278 31.8668 41.4983 31.1747C41.5641 31.0782 41.5941 30.9616 41.5832 30.8453C41.5722 30.729 41.521 30.6201 41.4384 30.5374L40.6013 29.7002L41.7059 28.5895L42.5506 29.4278C42.6334 29.5099 42.742 29.5606 42.8581 29.5713C42.9741 29.582 43.0902 29.5521 43.1865 29.4865C43.8785 29.0159 44.6538 28.6944 45.491 28.5306C45.6052 28.5082 45.7082 28.4468 45.7822 28.3569C45.8562 28.267 45.8966 28.1542 45.8966 28.0378V26.8568H47.4713V28.0378C47.4713 28.1542 47.5117 28.267 47.5857 28.3569C47.6597 28.4468 47.7626 28.5082 47.8769 28.5306C48.7139 28.6944 49.4893 29.0159 50.1813 29.4865C50.2779 29.5522 50.3944 29.5821 50.5107 29.5711C50.627 29.5602 50.7359 29.5091 50.8186 29.4266L51.6546 28.5901L52.7657 29.7013L51.9294 30.5373C51.8468 30.6199 51.7956 30.7288 51.7846 30.8452C51.7737 30.9616 51.8037 31.0781 51.8694 31.1747C52.3399 31.8665 52.6616 32.6419 52.8253 33.4788C52.8476 33.593 52.909 33.696 52.9989 33.77C53.0888 33.844 53.2016 33.8845 53.3181 33.8844H54.4991L54.4992 35.4594ZM46.684 30.0162C44.1169 30.0162 42.0282 32.1049 42.0282 34.6721C42.0282 37.2392 44.1169 39.3277 46.684 39.3277C49.2512 39.3277 51.3396 37.2392 51.3396 34.6721C51.3396 32.1049 49.2512 30.0162 46.684 30.0162ZM46.684 38.324C44.6705 38.324 43.0322 36.6858 43.0322 34.6721C43.0322 32.6584 44.6705 31.0204 46.684 31.0204C48.6976 31.0204 50.3356 32.6584 50.3356 34.6721C50.3356 36.6858 48.6976 38.324 46.684 38.324ZM37.5156 20.0605C37.5394 20.122 37.551 20.1875 37.5495 20.2534C37.548 20.3194 37.5336 20.3843 37.507 20.4447C37.4804 20.505 37.4422 20.5595 37.3945 20.6051C37.3468 20.6506 37.2907 20.6863 37.2292 20.7102C35.5815 21.3499 33.8512 21.6697 32.1224 21.6697C30.3932 21.6697 28.6656 21.3499 27.0226 20.71C26.8986 20.6617 26.7988 20.5661 26.7452 20.4442C26.6917 20.3224 26.6887 20.1842 26.737 20.0602C26.7609 19.9987 26.7966 19.9426 26.8422 19.895C26.8878 19.8474 26.9424 19.8092 27.0027 19.7827C27.0631 19.7561 27.128 19.7417 27.194 19.7403C27.2599 19.7389 27.3254 19.7505 27.3868 19.7745C30.4382 20.9625 33.8045 20.9628 36.866 19.7745C37.1244 19.6733 37.4152 19.802 37.5156 20.0605Z" fill="white"/>
</g>
<defs>
<linearGradient id="paint0_linear_518_2184" x1="35" y1="57.1981" x2="35" y2="4.24254" gradientUnits="userSpaceOnUse">
<stop stop-color="white"/>
<stop offset="1" stop-color="#F1F4F9" stop-opacity="0"/>
</linearGradient>
<clipPath id="clip0_518_2184">
<rect width="42" height="42" fill="white" transform="translate(14 14)"/>
</clipPath>
</defs>
</svg>
