<svg width="348" height="237" viewBox="0 0 348 237" fill="none" xmlns="http://www.w3.org/2000/svg">
<path fill-rule="evenodd" clip-rule="evenodd" d="M55.0501 329.017L12.3002 286.267L292.882 5.6854L335.617 48.8954L55.0501 329.017ZM225.465 323.832L225.451 323.824C213.256 316.446 203.458 306.649 196.08 294.453L196.074 294.443C188.667 282.047 184.972 268.295 184.972 253.236C184.972 238.453 188.749 224.843 196.305 212.453C203.83 200.111 213.776 190.24 226.122 182.862C238.503 175.463 251.96 171.76 266.448 171.76C281.362 171.76 295.038 175.456 307.428 182.858C319.782 190.092 329.59 199.898 336.824 212.252C344.232 224.503 347.924 238.183 347.924 253.236C347.924 268.292 344.231 282.043 336.826 294.437C329.59 306.648 319.783 316.452 307.435 323.83L307.418 323.84C295.028 331.093 281.356 334.712 266.448 334.712C251.541 334.712 237.869 331.093 225.479 323.84L225.465 323.832ZM306.305 184.752C294.268 177.559 280.982 173.962 266.448 173.962C252.355 173.962 239.29 177.559 227.252 184.752C215.214 191.946 205.525 201.561 198.185 213.599C190.845 225.637 187.174 238.849 187.174 253.236C187.174 267.916 190.771 281.275 197.965 293.313C205.158 305.204 214.7 314.747 226.591 321.94C238.629 328.987 251.915 332.51 266.448 332.51C280.982 332.51 294.268 328.987 306.305 321.94C318.343 314.747 327.886 305.204 334.932 293.313C342.125 281.275 345.722 267.916 345.722 253.236C345.722 238.556 342.125 225.27 334.932 213.379C327.886 201.341 318.343 191.799 306.305 184.752ZM279.394 276.019L279.409 276.011C283.515 273.547 286.78 270.347 289.232 266.401C291.663 262.344 292.873 257.969 292.873 253.236C292.873 248.497 291.661 244.204 289.24 240.304L289.232 240.29L289.223 240.276C286.767 236.182 283.503 232.918 279.409 230.461L279.394 230.453L279.38 230.444C275.481 228.024 271.187 226.811 266.448 226.811C261.715 226.811 257.341 228.021 253.283 230.452C249.337 232.904 246.138 236.169 243.674 240.276L243.665 240.29L243.656 240.304C241.236 244.204 240.024 248.497 240.024 253.236C240.024 257.97 241.234 262.345 243.666 266.403C246.125 270.361 249.325 273.56 253.283 276.02C257.34 278.451 261.715 279.661 266.448 279.661C271.187 279.661 275.481 278.448 279.38 276.028L279.394 276.019ZM241.785 267.549C239.143 263.145 237.822 258.374 237.822 253.236C237.822 248.098 239.143 243.4 241.785 239.143C244.428 234.739 247.878 231.215 252.135 228.573C256.539 225.931 261.31 224.609 266.448 224.609C271.586 224.609 276.284 225.931 280.541 228.573C284.946 231.215 288.469 234.739 291.111 239.143C293.754 243.4 295.075 248.098 295.075 253.236C295.075 258.374 293.754 263.145 291.111 267.549C288.469 271.807 284.946 275.257 280.541 277.899C276.284 280.541 271.586 281.863 266.448 281.863C261.31 281.863 256.539 280.541 252.135 277.899C247.878 275.257 244.428 271.807 241.785 267.549ZM40.5064 152.08L40.4892 152.07C28.1452 144.694 18.2693 134.895 10.8878 122.693L10.8795 122.679L10.8715 122.666C3.61689 110.272 0 96.5259 0 81.4759C0 66.6934 3.777 53.0831 11.3322 40.6926C18.8574 28.3512 28.8034 18.4796 41.1498 11.1018C53.531 3.70335 66.9871 0 81.4759 0C96.3865 0 109.991 3.69411 122.239 11.0996C134.59 18.3328 144.467 28.1364 151.847 40.4837C159.258 52.7371 162.952 66.4193 162.952 81.4759C162.952 96.5346 159.257 110.287 151.85 122.683L151.844 122.693C144.462 134.895 134.586 144.694 122.242 152.07L122.235 152.074C109.987 159.333 96.3833 162.952 81.4759 162.952C66.5685 162.952 52.8962 159.333 40.5064 152.08ZM149.96 41.6188C142.766 29.5809 133.151 20.0387 121.113 12.9921C109.222 5.79872 96.0095 2.20205 81.4759 2.20205C67.3828 2.20205 54.3173 5.79872 42.2794 12.9921C30.2415 20.1855 20.5525 29.8011 13.2123 41.839C5.87214 53.8769 2.20205 67.0892 2.20205 81.4759C2.20205 96.1563 5.72534 109.515 12.7719 121.553C19.9653 133.444 29.5809 142.987 41.6188 150.18C53.6567 157.227 66.9424 160.75 81.4759 160.75C96.0095 160.75 109.222 157.227 121.113 150.18C133.151 142.987 142.766 133.444 149.96 121.553C157.153 109.515 160.75 96.1563 160.75 81.4759C160.75 66.7956 157.153 53.5099 149.96 41.6188ZM94.4219 104.259L94.4361 104.251C98.5427 101.787 101.807 98.5879 104.259 94.6425C106.69 90.5847 107.901 86.2097 107.901 81.4759C107.901 76.7372 106.688 72.4435 104.268 68.5441L104.259 68.53L104.251 68.5157C101.794 64.4215 98.5303 61.1577 94.4361 58.7012L94.4219 58.6927L94.4078 58.6839C90.5084 56.2636 86.2147 55.0513 81.4759 55.0513C76.7423 55.0513 72.3675 56.2613 68.3097 58.6927C64.3641 61.1447 61.1652 64.409 58.7012 68.5157L58.6927 68.53L58.6839 68.5441C56.2636 72.4435 55.0513 76.7372 55.0513 81.4759C55.0513 86.2097 56.2614 90.5847 58.6929 94.6425C61.1525 98.6004 64.3519 101.8 68.31 104.259C72.3676 106.691 76.7424 107.901 81.4759 107.901C86.2147 107.901 90.5084 106.688 94.4078 104.268L94.4219 104.259ZM56.813 95.7893C54.1705 91.3851 52.8493 86.614 52.8493 81.4759C52.8493 76.3378 54.1705 71.6401 56.813 67.3828C59.4554 62.9787 62.9053 59.4554 67.1626 56.813C71.5667 54.1705 76.3378 52.8493 81.4759 52.8493C86.6141 52.8493 91.3118 54.1705 95.5691 56.813C99.9732 59.4554 103.496 62.9787 106.139 67.3828C108.781 71.6401 110.103 76.3378 110.103 81.4759C110.103 86.614 108.781 91.3851 106.139 95.7893C103.496 100.047 99.9732 103.496 95.5691 106.139C91.3118 108.781 86.6141 110.103 81.4759 110.103C76.3378 110.103 71.5667 108.781 67.1626 106.139C62.9053 103.496 59.4554 100.047 56.813 95.7893ZM55.0539 325.901L332.509 48.8864L292.873 8.80819L292.871 8.81046L15.4144 286.267L55.0513 325.904L55.0539 325.901Z" fill="url(#paint0_linear_518_1941)"/>
<defs>
<linearGradient id="paint0_linear_518_1941" x1="173.962" y1="0" x2="164.472" y2="230.589" gradientUnits="userSpaceOnUse">
<stop stop-color="white"/>
<stop offset="1" stop-color="#DADDE2"/>
</linearGradient>
</defs>
</svg>
