<svg width="720" height="57" viewBox="0 0 720 57" fill="none" xmlns="http://www.w3.org/2000/svg">
<path d="M54.8236 27.5646C54.8236 31.8339 54.0442 35.6041 52.4848 38.8759C50.9257 42.1474 48.8163 44.8967 46.1564 47.1242C43.4967 49.3517 40.3898 51.0338 36.8359 52.1708C33.2817 53.3078 29.5329 53.8761 25.5889 53.8761L11.8316 53.1104C11.1894 53.1104 10.3525 53.1104 9.32075 53.1104C8.289 53.1104 7.19974 53.1222 6.05343 53.1451C4.90689 53.1684 3.7949 53.1916 2.71723 53.2148C1.63957 53.2381 0.733749 53.2728 0 53.3193L0 52.7624C1.28406 52.5768 2.43059 52.3679 3.43938 52.1358C4.4484 51.904 5.29672 51.556 5.98455 51.0918C6.67238 50.6278 7.19973 50.0245 7.5666 49.282C7.93348 48.5395 8.16285 47.565 8.25445 46.3585C8.30037 45.709 8.32331 44.8156 8.32331 43.6786C8.32331 42.5416 8.33467 41.2772 8.35763 39.8852C8.38059 38.4929 8.39219 37.0196 8.39219 35.4649C8.39219 33.9105 8.38059 32.4255 8.35763 31.0102C8.33467 29.5947 8.32331 28.2839 8.32331 27.0774C8.32331 25.8707 8.32331 24.8964 8.32331 24.1539C8.32331 23.0402 8.32331 21.8452 8.32331 20.5691C8.32331 19.293 8.32331 17.9936 8.32331 16.671C8.32331 15.3484 8.31196 14.084 8.289 12.8773C8.26604 11.6709 8.23172 10.5804 8.1858 9.60581C8.13988 8.49207 7.93348 7.56395 7.5666 6.8217C7.19973 6.07921 6.69534 5.47586 6.05343 5.01169C5.41128 4.54775 4.5973 4.18802 3.61147 3.93294C2.6254 3.67762 1.49045 3.45728 0.20639 3.27165V2.78449L11.9002 3.06278C13.4596 3.10925 15.2135 3.05129 17.1626 2.8889C19.1116 2.72627 21.1178 2.64508 23.1815 2.64508C27.2169 2.64508 31.1379 3.07452 34.9442 3.93294C38.7505 4.79136 42.121 6.19515 45.056 8.14408C47.9907 10.0932 50.3525 12.657 52.1409 15.8358C53.9294 19.0144 54.8236 22.924 54.8236 27.5646ZM46.0189 29.096C46.0189 25.43 45.2967 22.1003 43.8522 19.1074C42.419 16.1142 40.4814 13.5619 38.0624 11.4505C35.632 9.33899 32.8575 7.70338 29.7164 6.54317C26.5863 5.38297 23.3077 4.80309 19.8683 4.80309C18.7677 4.80309 17.8275 4.95376 17.0249 5.25555C16.2225 5.5571 15.8213 6.35755 15.8213 7.65691C15.8213 9.69877 15.7983 12.1233 15.7524 14.9309C15.7065 17.7383 15.6835 20.7197 15.6835 23.8753V31.9498C15.6835 34.9198 15.6835 37.646 15.6835 40.1288C15.6835 42.6113 15.7065 44.4328 15.7524 45.5928C16.0274 46.8921 16.4518 47.9362 17.0249 48.7251C17.5982 49.5141 18.3205 50.129 19.1802 50.5699C20.0517 51.0106 21.0262 51.3121 22.1038 51.4748C23.1815 51.6372 24.3278 51.7183 25.5662 51.7183C28.9024 51.7183 31.8601 51.173 34.4169 50.0825C36.9848 48.992 39.1171 47.4608 40.8369 45.4884C42.5565 43.5162 43.8406 41.1381 44.7118 38.3537C45.5833 35.5694 46.0189 32.4835 46.0189 29.096ZM110.266 30.0009C110.266 30.1865 110.278 30.3951 110.301 30.6272C110.324 30.8593 110.335 31.0682 110.335 31.2538C110.335 33.11 110.243 34.943 110.06 36.7528C109.877 38.5626 109.521 40.2911 108.994 41.9385C108.466 43.5859 107.767 45.1171 106.896 46.5326C106.025 47.9479 104.901 49.2123 103.525 50.3261C101.508 51.9387 99.375 53.0292 97.128 53.6208C94.8809 54.2126 92.5191 54.5027 90.0428 54.5027C88.6672 54.5027 87.2683 54.433 85.8468 54.2938C84.4252 54.1662 83.0379 53.9108 81.6852 53.5513C80.3323 53.1916 79.0368 52.7044 77.7987 52.0896C76.5606 51.4748 75.437 50.6973 74.4282 49.7692C71.3098 47.0313 69.59 42.9943 69.269 37.6577C69.1774 36.7761 69.1199 35.7667 69.0972 34.6297C69.0742 33.4928 69.0512 32.3094 69.0283 31.0797C69.0053 29.85 68.994 28.6436 68.994 27.4601C68.994 26.2769 68.994 25.198 68.994 24.2234C68.994 23.1096 68.994 21.9147 68.994 20.6386C68.994 19.3624 68.994 18.0748 68.994 16.7754C68.994 15.4761 68.994 14.2232 68.994 13.0167C68.994 11.8101 68.971 10.7196 68.9251 9.74499C68.8792 8.49209 68.6728 7.49449 68.3059 6.752C67.939 6.0095 67.4233 5.41792 66.7582 4.97697C66.0933 4.53627 65.2679 4.19974 64.2819 3.96765C63.2961 3.73556 62.1609 3.52698 60.877 3.34136V2.92361C61.6108 2.92361 62.505 2.93514 63.5597 2.95837C64.6144 2.9816 65.7034 3.02803 66.827 3.09749C67.9506 3.16719 69.0396 3.22519 70.0946 3.27165C71.1493 3.31812 72.0665 3.34136 72.8459 3.34136C73.7631 3.34136 74.7492 3.3296 75.8039 3.30636C76.8586 3.28313 77.9133 3.24842 78.968 3.20195C80.0229 3.15573 81.0203 3.10925 81.9603 3.06278C82.9004 3.01632 83.7144 2.97008 84.4022 2.92361V3.41078C82.9807 3.54994 81.7884 3.74732 80.8253 4.00241C79.8622 4.25773 79.0828 4.61745 78.4865 5.08139C77.8903 5.54533 77.4432 6.14867 77.1452 6.89117C76.8472 7.63366 76.6751 8.56178 76.6292 9.67552C76.5835 10.4645 76.549 11.4156 76.526 12.5293C76.5033 13.6431 76.4917 14.9424 76.4917 16.4274L76.6292 31.4627C76.6292 33.4116 76.7554 35.3026 77.0077 37.1356C77.2598 38.9686 77.6612 40.6624 78.2115 42.2169C78.7618 43.7715 79.4726 45.1753 80.3439 46.4282C81.2151 47.6811 82.2928 48.7019 83.5769 49.4909C84.9525 50.3725 86.3857 50.9874 87.8762 51.3354C89.3664 51.6834 90.8912 51.8575 92.4505 51.8575C94.2849 51.8575 96.0504 51.4978 97.747 50.7785C99.4438 50.0592 100.865 49.0964 102.012 47.89C102.837 47.0083 103.537 45.9525 104.11 44.7229C104.683 43.493 105.142 42.1474 105.486 40.6856C105.83 39.2239 106.07 37.6924 106.208 36.0915C106.346 34.4906 106.414 32.8779 106.414 31.2538L106.277 19.0029C106.231 17.3323 106.196 15.6617 106.174 13.9911C106.151 12.3205 106.116 10.8819 106.07 9.67552C106.025 8.42262 105.818 7.42479 105.451 6.68229C105.084 5.9398 104.569 5.34822 103.904 4.90727C103.239 4.46657 102.413 4.13008 101.427 3.89823C100.441 3.66614 99.3063 3.45728 98.0223 3.27165V2.85391C99.4898 2.80744 101.152 2.86568 103.009 3.02807C104.866 3.19046 106.575 3.27165 108.134 3.27165C109.968 3.27165 111.78 3.22518 113.568 3.13248C115.357 3.03955 116.916 2.94684 118.246 2.85391V3.34136C116.824 3.48051 115.632 3.67762 114.669 3.93294C113.706 4.18802 112.926 4.54775 112.33 5.01169C111.734 5.47586 111.287 6.07921 110.989 6.8217C110.691 7.56395 110.519 8.49207 110.473 9.60581C110.427 10.3948 110.393 11.3461 110.37 12.4599C110.347 13.5736 110.335 14.8727 110.335 16.3577V21.3696C110.335 21.9729 110.324 22.6572 110.301 23.4229C110.278 24.1886 110.266 24.9544 110.266 25.7201C110.266 26.4856 110.266 27.1933 110.266 27.8429C110.266 28.4927 110.266 29.0031 110.266 29.3743V30.0009ZM163.027 37.936C163.027 39.9779 162.602 41.9268 161.754 43.783C160.906 45.6392 159.679 47.2866 158.074 48.7251C156.469 50.1637 154.531 51.3006 152.261 52.1358C149.991 52.9712 147.458 53.389 144.66 53.389L134.273 52.9016L121.96 53.3193V52.8321C123.29 52.6927 124.448 52.5071 125.434 52.2752C126.42 52.0431 127.257 51.6834 127.945 51.1962C128.633 50.7091 129.16 50.0825 129.527 49.3168C129.894 48.5513 130.1 47.542 130.146 46.2888C130.192 45.3145 130.215 43.8295 130.215 41.8341C130.215 39.8387 130.215 37.7039 130.215 35.4302C130.215 33.1563 130.215 30.987 130.215 28.9219C130.215 26.8568 130.215 25.2676 130.215 24.1539C130.215 23.0402 130.215 21.8452 130.215 20.5691C130.215 19.293 130.215 18.0168 130.215 16.7407C130.215 15.4646 130.203 14.2232 130.18 13.0167C130.157 11.8101 130.123 10.7196 130.077 9.74499C130.031 8.49209 129.836 7.49449 129.493 6.752C129.149 6.0095 128.644 5.4062 127.979 4.94226C127.314 4.47809 126.489 4.13008 125.503 3.89823C124.517 3.66614 123.382 3.45728 122.098 3.27165V2.78449C124.574 2.78449 126.684 2.85392 128.426 2.99308C130.169 3.13248 131.705 3.20195 133.035 3.20195C133.815 3.20195 134.674 3.19043 135.615 3.16719C136.555 3.14396 137.414 3.08601 138.194 2.99308C139.111 2.90039 140.028 2.80748 140.946 2.71478C142.826 2.57563 144.786 2.65682 146.827 2.95837C148.868 3.25992 150.736 3.84002 152.433 4.69868C154.13 5.5571 155.529 6.76351 156.629 8.31819C157.73 9.87264 158.28 11.8565 158.28 14.2696C158.28 16.0329 157.936 17.5527 157.248 18.8288C156.56 20.1049 155.746 21.1839 154.806 22.0656C153.866 22.9472 152.937 23.6433 152.021 24.1539C151.103 24.6643 150.415 24.9891 149.957 25.1282V25.4762C151.608 25.7083 153.213 26.126 154.772 26.7294C156.331 27.3325 157.73 28.1329 158.968 29.1307C160.206 30.1283 161.192 31.3582 161.926 32.82C162.66 34.2818 163.027 35.9871 163.027 37.936ZM154.978 39.4674C154.978 37.6112 154.611 35.9174 153.878 34.3862C153.144 32.8547 152.158 31.5321 150.92 30.4184C149.682 29.3047 148.26 28.4347 146.655 27.8082C145.05 27.1818 143.399 26.8685 141.702 26.8685H140.602V25.5459H141.702C143.124 25.5459 144.396 25.2906 145.52 24.7802C146.644 24.2698 147.584 23.5621 148.34 22.6572C149.097 21.7523 149.67 20.685 150.06 19.4554C150.45 18.2257 150.645 16.8914 150.645 15.4529C150.645 13.736 150.381 12.2278 149.854 10.9284C149.326 9.62906 148.592 8.52704 147.652 7.62215C146.712 6.71727 145.635 6.03273 144.419 5.56856C143.204 5.10462 141.909 4.87256 140.533 4.87256C139.295 4.87256 138.481 5.16261 138.091 5.74272C137.701 6.32282 137.506 6.86793 137.506 7.37834V10.8587V16.0097C137.506 16.381 137.506 16.9958 137.506 17.8545C137.506 18.7129 137.506 19.6989 137.506 20.8127C137.506 21.9264 137.506 23.0981 137.506 24.3278C137.506 25.5574 137.518 26.7061 137.541 27.7734C137.564 28.8407 137.575 29.7803 137.575 30.5925C137.575 31.4045 137.575 31.9498 137.575 32.2281C137.575 32.5994 137.575 33.4231 137.575 34.6992C137.575 35.9753 137.587 37.3444 137.609 38.8062C137.632 40.2679 137.655 41.6138 137.678 42.8434C137.701 44.0731 137.713 44.8041 137.713 45.0359C137.759 46.057 137.896 46.9618 138.125 47.7506C138.355 48.5395 138.756 49.2008 139.329 49.7345C139.902 50.2681 140.659 50.6741 141.599 50.9526C142.539 51.2309 143.766 51.3704 145.279 51.3704C146.288 51.3704 147.366 51.1497 148.512 50.709C149.659 50.2681 150.714 49.5721 151.676 48.6207C152.639 47.6694 153.431 46.4397 154.05 44.9315C154.669 43.4235 154.978 41.602 154.978 39.4674ZM224.247 56.5211C219.616 56.3819 215.66 55.57 212.382 54.085C209.103 52.6 206.294 50.6741 203.978 48.3074C201.651 45.9408 199.679 43.2726 198.074 40.3027C196.469 37.3329 194.99 34.2932 193.66 31.1841C193.247 31.3233 192.743 31.4395 192.146 31.5321C191.539 31.6251 190.885 31.7063 190.175 31.7757C189.464 31.8454 188.742 31.8919 187.996 31.9151C187.262 31.9383 186.598 31.9266 186.001 31.8801V35.8479C186.001 38.9106 186.001 41.3352 186.001 43.1217C186.001 44.9085 186.047 46.1961 186.139 46.9851C186.231 47.9594 186.414 48.7831 186.689 49.4562C186.965 50.129 187.412 50.6858 188.031 51.1268C188.65 51.5675 189.487 51.9272 190.541 52.2055C191.596 52.4841 192.949 52.6927 194.6 52.8321V53.3193C193.866 53.2728 192.983 53.2266 191.952 53.1801C190.92 53.1336 189.831 53.0989 188.684 53.0757C187.538 53.0524 186.414 53.0292 185.325 53.006C184.236 52.9827 183.25 52.9713 182.39 52.9713C181.576 52.9713 180.636 52.9827 179.593 53.006C178.55 53.0292 177.483 53.064 176.406 53.1104C175.328 53.1569 174.273 53.1916 173.242 53.2148C172.21 53.2381 171.327 53.2728 170.593 53.3193V52.9016C171.877 52.7159 173.012 52.5071 173.998 52.2752C174.984 52.0431 175.798 51.7066 176.44 51.2659C177.082 50.8249 177.587 50.2334 177.953 49.4909C178.32 48.7484 178.527 47.7505 178.573 46.4977C178.618 45.5695 178.641 44.1195 178.641 42.1474C178.641 40.175 178.641 38.0752 178.641 35.8479C178.641 33.3419 178.653 30.9985 178.676 28.8175C178.698 26.6364 178.71 24.5134 178.71 22.4483C178.71 20.3834 178.698 18.3301 178.676 16.2883C178.653 14.2464 178.595 12.0654 178.504 9.74499C178.458 8.49209 178.274 7.49449 177.953 6.752C177.632 6.0095 177.151 5.41792 176.509 4.97697C175.867 4.53627 175.064 4.19974 174.101 3.96765C173.138 3.73556 172.015 3.52698 170.731 3.34136V2.85391C173.666 2.85391 176.062 2.90039 177.919 2.99308C179.776 3.08601 181.278 3.13248 182.424 3.13248L190.404 2.92361C192.605 2.92361 194.841 3.10923 197.111 3.48048C199.381 3.85173 201.444 4.50131 203.302 5.42943C205.159 6.35755 206.684 7.64515 207.876 9.29253C209.068 10.9399 209.664 13.0397 209.664 15.592C209.664 18.4693 208.805 20.9054 207.074 22.9008C205.354 24.8964 203.198 26.6597 200.63 28.1912C201.089 29.7688 201.742 31.5206 202.591 33.4463C203.439 35.3723 204.459 37.3212 205.629 39.2933C206.798 41.2655 208.105 43.2029 209.527 45.1056C210.948 47.0083 212.45 48.7252 214.033 50.2566C215.615 51.7878 217.266 53.064 218.985 54.085C220.705 55.1058 222.459 55.7092 224.247 55.8948V56.5211ZM202.029 18.5852C202.029 16.1721 201.582 14.0955 200.676 12.3555C199.782 10.6151 198.613 9.18835 197.157 8.07461C195.712 6.96087 194.05 6.13718 192.181 5.60355C190.324 5.06991 188.421 4.80309 186.483 4.80309L186.001 5.49913V16.1488L185.933 27.2165V30.0704C187.916 30.0241 189.854 29.6991 191.768 29.096C193.683 28.4927 195.402 27.6922 196.916 26.6944C198.441 25.6969 199.667 24.5019 200.608 23.1096C201.559 21.7176 202.029 20.2093 202.029 18.5852ZM278.383 27.3557C278.383 31.2538 277.695 34.8734 276.32 38.2146C274.944 41.5556 273.018 44.4443 270.541 46.8806C268.065 49.3167 265.13 51.2194 261.737 52.5885C258.343 53.9573 254.651 54.6419 250.662 54.6419C246.535 54.6419 242.809 53.9226 239.484 52.4841C236.159 51.0453 233.328 49.1196 230.989 46.7065C228.65 44.2934 226.85 41.4861 225.589 38.284C224.328 35.0822 223.697 31.741 223.697 28.2606C223.697 24.9194 224.305 21.6596 225.52 18.4808C226.735 15.3022 228.512 12.4714 230.851 9.9888C233.19 7.506 236.079 5.4991 239.518 3.96765C242.958 2.43644 246.901 1.67075 251.35 1.67075C255.248 1.67075 258.848 2.27381 262.149 3.48048C265.451 4.68691 268.306 6.404 270.713 8.63148C273.121 10.8587 275.001 13.5504 276.354 16.7057C277.707 19.8613 278.383 23.4114 278.383 27.3557ZM252.588 52.2055C254.56 52.2055 256.52 51.7531 258.469 50.8482C260.418 49.9433 262.149 48.5513 263.663 46.6601C265.176 44.7808 266.414 42.3677 267.377 39.4095C268.34 36.4627 268.822 32.9477 268.822 28.8522C268.822 25.3718 268.363 22.1121 267.446 19.0956C266.529 16.0677 265.233 13.4459 263.56 11.2185C261.886 8.99098 259.88 7.21596 257.541 5.9166C255.202 4.61748 252.634 3.96765 249.836 3.96765C247.452 3.96765 245.251 4.4898 243.233 5.53384C241.215 6.57789 239.461 8.0746 237.97 10.035C236.48 11.9842 235.322 14.3741 234.497 17.2164C233.671 20.0469 233.259 23.2258 233.259 26.7641C233.259 30.3372 233.729 33.6784 234.669 36.7643C235.609 39.8502 236.916 42.5534 238.59 44.8503C240.264 47.1475 242.293 48.9573 244.677 50.2566C247.062 51.556 249.699 52.2055 252.588 52.2055ZM312.227 53.9458H311.608C308.81 47.3563 306.265 41.4164 303.972 36.1262C303.009 33.8525 302.046 31.6133 301.083 29.4091C300.12 27.2048 299.237 25.1862 298.435 23.3534C297.632 21.5204 296.956 19.9773 296.406 18.7244C295.855 17.4715 295.512 16.6595 295.374 16.2883C295.19 15.8705 294.858 15.186 294.376 14.2347C293.895 13.2835 293.391 12.309 292.863 11.3112C292.336 10.3136 291.831 9.38548 291.35 8.52707C290.868 7.66841 290.536 7.12326 290.352 6.89117C289.298 5.68474 288.209 4.84933 287.085 4.38539C285.961 3.92122 284.528 3.57321 282.786 3.34136V2.71478C283.565 2.76125 284.471 2.8192 285.503 2.8889C286.535 2.95836 287.589 3.01632 288.667 3.06278C289.745 3.10925 290.799 3.14396 291.831 3.16719C292.863 3.19043 293.769 3.20195 294.548 3.20195C294.869 3.20195 295.443 3.20195 296.268 3.20195C297.094 3.20195 298.034 3.17871 299.088 3.13248C300.143 3.08602 301.267 3.03954 302.459 2.99308C303.651 2.94685 304.775 2.85394 305.83 2.71478V3.27165C305.325 3.41081 304.775 3.52696 304.179 3.61965C303.583 3.71258 303.044 3.86325 302.562 4.07211C302.081 4.28096 301.679 4.57102 301.358 4.94226C301.037 5.31351 300.877 5.84714 300.877 6.54317C300.877 7.10004 300.991 7.78454 301.221 8.59649C301.45 9.40868 301.817 10.418 302.321 11.6244C302.642 12.4598 303.067 13.5386 303.594 14.8612C304.121 16.1838 304.695 17.6339 305.314 19.2118C305.933 20.7895 306.598 22.4483 307.309 24.1886C308.019 25.9287 308.719 27.6343 309.407 29.3047C311.012 33.2492 312.731 37.4953 314.566 42.043C314.566 41.9965 314.589 41.9733 314.635 41.9733C314.68 41.9733 314.726 41.95 314.772 41.9036C315.093 41.0219 315.643 39.6996 316.423 37.936C317.202 36.1727 318.108 34.1308 319.14 31.8107C320.172 29.4903 321.284 26.938 322.476 24.1539C323.669 21.3696 324.861 18.5387 326.053 15.6617C326.466 14.6409 326.879 13.6548 327.291 12.7035C327.704 11.7521 328.048 10.8819 328.323 10.0932C329.057 7.9122 328.919 6.31107 327.91 5.29026C326.902 4.26921 325.09 3.5732 322.476 3.20195V2.78449C323.944 2.69156 325.491 2.73799 327.119 2.92361C328.747 3.10923 330.341 3.20195 331.9 3.20195C333.734 3.20195 335.592 3.144 337.472 3.02807C339.352 2.91191 340.957 2.80748 342.287 2.71478V3.20195C340.636 3.38758 339.237 3.7473 338.091 4.28093C336.945 4.81457 335.959 5.52235 335.133 6.404C334.308 7.28565 333.585 8.29496 332.966 9.43193C332.347 10.5687 331.74 11.8101 331.143 13.1559L312.227 53.9458ZM371.109 53.3193C370.375 53.2728 369.493 53.2266 368.461 53.1801C367.429 53.1336 366.34 53.0989 365.193 53.0757C364.047 53.0524 362.923 53.0292 361.811 53.006C360.699 52.9827 359.713 52.9713 358.831 52.9713C357.994 52.9713 357.053 52.9827 355.987 53.006C354.921 53.0292 353.855 53.064 352.777 53.1104C351.7 53.1569 350.645 53.1916 349.613 53.2148C348.581 53.2381 347.698 53.2728 346.965 53.3193V52.9016C348.249 52.7159 349.384 52.5071 350.37 52.2752C351.356 52.0431 352.17 51.7066 352.812 51.2659C353.454 50.8249 353.958 50.2334 354.325 49.4909C354.692 48.7484 354.898 47.7505 354.944 46.4977C354.99 45.5233 355.013 44.0266 355.013 42.008C355.013 39.9894 355.013 37.8316 355.013 35.5346C355.013 33.2375 355.013 31.0449 355.013 28.9566C355.013 26.8685 355.013 25.2676 355.013 24.1539C355.013 23.0402 355.024 21.8452 355.047 20.5691C355.07 19.293 355.082 17.9936 355.082 16.671C355.082 15.3484 355.082 14.084 355.082 12.8773C355.082 11.6709 355.059 10.5804 355.013 9.60581C354.967 8.35292 354.749 7.35537 354.359 6.61287C353.97 5.87038 353.431 5.27851 352.743 4.8378C352.055 4.39686 351.218 4.06061 350.232 3.82852C349.246 3.59644 348.111 3.38758 346.827 3.20195V2.78449C347.561 2.78449 348.455 2.79596 349.51 2.8192C350.565 2.84243 351.654 2.88891 352.777 2.95837C353.901 3.02807 354.99 3.08602 356.056 3.13248C357.122 3.17871 358.04 3.20195 358.831 3.20195C359.759 3.20195 360.745 3.19043 361.811 3.16719C362.878 3.14396 363.932 3.10925 364.987 3.06278C366.042 3.01632 367.039 2.97008 367.979 2.92361C368.919 2.87714 369.733 2.83071 370.421 2.78449V3.27165C369 3.41081 367.807 3.60815 366.844 3.86323C365.881 4.11856 365.102 4.47809 364.506 4.94226C363.909 5.4062 363.462 6.0095 363.164 6.752C362.866 7.49449 362.694 8.42261 362.648 9.53635C362.602 10.3251 362.568 11.2764 362.545 12.3902C362.522 13.5039 362.511 14.8033 362.511 16.2883V38.98C362.511 40.465 362.511 41.9733 362.511 43.5047C362.511 45.0359 362.557 46.1961 362.648 46.9851C362.74 47.9594 362.923 48.7831 363.199 49.4562C363.474 50.129 363.921 50.6858 364.54 51.1268C365.159 51.5675 365.996 51.9272 367.051 52.2055C368.105 52.4841 369.458 52.6927 371.109 52.8321V53.3193ZM430.542 50.2566C430.542 50.6279 430.53 51.0453 430.507 51.5095C430.484 51.9734 430.473 52.4144 430.473 52.8321C430.427 53.3425 430.404 53.8297 430.404 54.2938L429.647 54.5027C423.456 48.0524 417.724 42.0197 412.45 36.4048C410.203 34.0382 407.933 31.6365 405.641 29.2004C403.348 26.7641 401.192 24.4902 399.174 22.3789C397.157 20.2673 395.357 18.3763 393.775 16.7057C392.193 15.0353 390.966 13.736 390.094 12.8079C390.094 13.1791 390.094 13.4342 390.094 13.5736C390.094 13.7128 390.094 13.8519 390.094 13.9911C390.094 14.1302 390.094 14.3623 390.094 14.6871C390.094 15.0121 390.094 15.5458 390.094 16.2883L390.026 28.7478L390.094 38.98C390.094 40.465 390.094 41.9733 390.094 43.5047C390.094 45.0359 390.14 46.1961 390.232 46.9851C390.324 47.9594 390.507 48.7831 390.782 49.4562C391.058 50.129 391.505 50.6858 392.124 51.1268C392.743 51.5675 393.58 51.9272 394.634 52.2055C395.689 52.4841 397.042 52.6927 398.693 52.8321V53.3193C397.226 53.2266 395.563 53.1451 393.706 53.0757C391.849 53.006 390.049 52.9713 388.306 52.9713C386.701 52.9713 384.924 53.006 382.975 53.0757C381.026 53.1451 379.318 53.2266 377.85 53.3193V52.9016C379.134 52.7159 380.269 52.5071 381.255 52.2752C382.241 52.0431 383.067 51.7066 383.732 51.2659C384.397 50.8249 384.901 50.2334 385.245 49.4909C385.589 48.7484 385.784 47.7505 385.83 46.4977C385.875 45.5233 385.898 44.0266 385.898 42.008C385.898 39.9894 385.898 37.8316 385.898 35.5346C385.898 33.2375 385.898 31.0449 385.898 28.9566C385.898 26.8685 385.898 25.2676 385.898 24.1539C385.898 23.0402 385.898 21.8452 385.898 20.5691C385.898 19.293 385.898 17.9936 385.898 16.671C385.898 15.3484 385.887 14.084 385.864 12.8773C385.841 11.6709 385.807 10.5804 385.761 9.60581C385.715 8.35292 385.509 7.35537 385.142 6.61287C384.775 5.87038 384.259 5.27851 383.594 4.8378C382.929 4.39686 382.104 4.06061 381.118 3.82852C380.132 3.59644 378.997 3.38758 377.713 3.20195V2.78449C378.951 2.87718 379.971 2.94685 380.774 2.99308C381.576 3.03954 382.298 3.06278 382.941 3.06278C383.583 3.06278 384.19 3.0513 384.763 3.02807C385.337 3.00484 386.013 2.99308 386.793 2.99308C387.068 2.99308 387.458 2.9816 387.962 2.95837C388.466 2.93514 388.994 2.91189 389.544 2.8889C390.094 2.86567 390.61 2.84243 391.092 2.8192C391.573 2.79596 391.952 2.78449 392.227 2.78449C398.555 9.745 404.219 15.9865 409.217 21.5087C411.327 23.8754 413.414 26.184 415.477 28.4347C417.541 30.6852 419.386 32.7038 421.014 34.4906C422.642 36.2771 423.961 37.7389 424.97 38.8759C425.979 40.0126 426.529 40.6044 426.621 40.6507H426.689C426.781 40.6507 426.827 40.6044 426.827 40.5115C426.827 40.3723 426.816 39.7225 426.793 38.5626C426.77 37.4024 426.758 35.9986 426.758 34.3512C426.758 32.7038 426.747 30.952 426.724 29.096C426.701 27.2398 426.689 25.5692 426.689 24.0842C426.689 22.9705 426.678 21.7755 426.655 20.4994C426.632 19.2233 426.621 17.9356 426.621 16.6362C426.621 15.3369 426.621 14.084 426.621 12.8773C426.621 11.6709 426.598 10.5804 426.552 9.60581C426.506 8.35292 426.3 7.35537 425.933 6.61287C425.566 5.87038 425.05 5.27851 424.385 4.8378C423.72 4.39686 422.895 4.06061 421.909 3.82852C420.923 3.59644 419.788 3.38758 418.504 3.20195V2.78449C419.238 2.78449 420.063 2.79596 420.98 2.8192C421.897 2.84243 422.826 2.88891 423.766 2.95837C424.706 3.02807 425.635 3.08602 426.552 3.13248C427.469 3.17871 428.317 3.20195 429.097 3.20195C430.931 3.20195 432.674 3.15571 434.325 3.06278C435.976 2.97009 437.466 2.87718 438.796 2.78449V3.27165C437.374 3.41081 436.182 3.60815 435.219 3.86323C434.256 4.11856 433.477 4.47809 432.88 4.94226C432.284 5.4062 431.837 6.0095 431.539 6.752C431.241 7.49449 431.069 8.42261 431.023 9.53635C430.977 10.3251 430.943 11.2764 430.92 12.3902C430.897 13.5039 430.885 14.8033 430.885 16.2883L430.817 28.7478L430.542 50.2566ZM495.821 53.3193C494.904 53.2728 493.895 53.2034 492.794 53.1104C491.877 53.0177 490.822 52.948 489.63 52.9016C488.438 52.8553 487.177 52.8321 485.847 52.8321C484.792 52.8321 483.68 52.8553 482.511 52.9016C481.341 52.948 480.206 53.006 479.106 53.0757C478.005 53.1451 476.973 53.2033 476.01 53.2496C475.047 53.296 474.222 53.3193 473.534 53.3193V52.8321C476.01 52.4608 477.627 51.8111 478.383 50.883C479.14 49.9548 479.129 48.3539 478.349 46.0802C477.936 45.0127 477.489 43.783 477.008 42.391C476.526 40.9987 476.056 39.6763 475.598 38.4234C475.093 36.9384 474.566 35.4534 474.015 33.9685L465.761 33.8293L457.85 33.9685C457.162 35.7782 456.543 37.4488 455.993 38.98C455.489 40.2794 455.03 41.5093 454.617 42.6693C454.204 43.8295 453.952 44.5952 453.861 44.9664C453.631 45.7089 453.413 46.4282 453.207 47.1242C453.001 47.8202 452.897 48.4004 452.897 48.8643C452.897 49.5606 453.058 50.1522 453.379 50.6394C453.7 51.1268 454.113 51.521 454.617 51.8228C455.122 52.1243 455.683 52.3564 456.303 52.5188C456.922 52.6812 457.529 52.7856 458.125 52.8321V53.3193L448.908 52.8321C448.816 52.8321 448.357 52.8553 447.532 52.9016C446.707 52.948 445.755 53.006 444.677 53.0757C443.6 53.1451 442.557 53.2033 441.548 53.2496C440.539 53.296 439.805 53.3193 439.346 53.3193V52.8321C440.86 52.5535 442.121 52.2055 443.13 51.7878C444.139 51.3703 445.01 50.8249 445.744 50.1522C446.477 49.4794 447.119 48.6324 447.67 47.6114C448.22 46.5906 448.793 45.3377 449.389 43.8527C449.664 43.1567 450.123 42.008 450.765 40.4071C451.407 38.8062 452.175 36.9267 453.07 34.7689C453.964 32.6111 454.927 30.2677 455.959 27.7387C456.99 25.2094 458.034 22.6689 459.088 20.1166C461.519 14.1767 464.202 7.63368 467.136 0.487305H467.687L485.915 44.131C486.879 46.4977 488.151 48.4816 489.733 50.0825C491.315 51.6834 493.345 52.6 495.821 52.8321V53.3193ZM466.036 13.4342C465.99 13.3415 465.944 13.2024 465.898 13.0167C465.852 12.8311 465.784 12.7382 465.692 12.7382C465.554 12.7382 465.486 12.8311 465.486 13.0167L458.607 31.3233L465.554 31.5321L473.19 31.3233L466.036 13.4342Z" fill="#323338"/>
<path d="M531.453 39.3282C531.453 41.834 530.96 44.0265 529.986 45.9059C529.011 47.7854 527.716 49.3399 526.099 50.5698C524.483 51.7994 522.625 52.7158 520.516 53.3191C518.407 53.9225 516.228 54.224 513.981 54.224C511.505 54.224 509.097 53.7484 506.758 52.797C504.42 51.8459 502.287 50.558 500.361 48.9339C500.545 47.2168 500.682 45.6159 500.774 44.1309C500.866 42.6459 500.957 40.8826 501.049 38.8407H501.531C501.897 43.2028 503.25 46.4743 505.589 48.6556C507.928 50.8366 510.955 51.9271 514.669 51.9271C516.045 51.9271 517.306 51.6718 518.452 51.1613C519.599 50.6509 520.585 49.9779 521.41 49.1427C522.236 48.3073 522.866 47.3444 523.302 46.2539C523.738 45.1634 523.955 44.015 523.955 42.8085C523.955 41.6948 523.818 40.7087 523.543 39.8501C523.268 38.9916 522.832 38.168 522.236 37.379C521.64 36.5903 520.86 35.7781 519.897 34.9429C518.934 34.1075 517.787 33.2026 516.457 32.228C514.852 31.068 513.213 29.9196 511.539 28.7826C509.865 27.6456 508.352 26.416 506.999 25.0934C505.646 23.7708 504.546 22.2743 503.698 20.6037C502.849 18.9331 502.425 16.9609 502.425 14.687C502.425 12.8772 502.792 11.1951 503.525 9.64067C504.259 8.08599 505.303 6.74014 506.655 5.60341C508.008 4.46644 509.636 3.56156 511.539 2.88876C513.442 2.21573 515.563 1.87944 517.902 1.87944C518.728 1.87944 519.645 1.92568 520.654 2.01861C521.663 2.1113 522.683 2.26221 523.715 2.47106C524.746 2.67992 525.744 2.95821 526.707 3.30623C527.67 3.65424 528.518 4.06044 529.252 4.52438C529.206 6.14852 529.24 7.7959 529.355 9.46651C529.47 11.1371 529.573 12.7845 529.665 14.4086L529.046 14.6175C528.724 12.483 528.163 10.7079 527.36 9.29239C526.558 7.8771 525.629 6.75189 524.574 5.91646C523.52 5.08128 522.408 4.48969 521.238 4.14167C520.069 3.79366 518.98 3.61951 517.971 3.61951C516.779 3.61951 515.666 3.85162 514.635 4.31555C513.603 4.77973 512.709 5.39455 511.952 6.16028C511.195 6.92577 510.599 7.84236 510.163 8.90964C509.728 9.97691 509.51 11.0907 509.51 12.2509C509.51 13.2252 509.67 14.1071 509.991 14.8958C510.312 15.6848 510.794 16.4505 511.425 17.193C512.067 17.9355 512.835 18.678 513.729 19.4205C514.623 20.1627 515.655 20.9517 516.847 21.7871C518.452 22.9935 520.103 24.177 521.823 25.337C523.531 26.4972 525.113 27.7615 526.546 29.1306C527.991 30.4994 529.172 32.0077 530.077 33.655C530.995 35.3024 531.453 37.1934 531.453 39.3282ZM583.388 13.3646L582.838 13.2252C583.021 10.4411 582.528 8.55013 581.358 7.55231C580.189 6.5545 578.298 6.03263 575.684 5.98616L564.471 5.84699L564.402 35.8478V38.9799C564.402 40.4649 564.402 41.9731 564.402 43.5046C564.402 45.0358 564.448 46.196 564.54 46.985C564.632 47.9593 564.815 48.783 565.09 49.456C565.365 50.1288 565.812 50.6857 566.432 51.1266C567.051 51.5673 567.888 51.9271 568.942 52.2054C569.997 52.4839 571.35 52.6926 573.001 52.832V53.3191C572.267 53.2727 571.384 53.2264 570.352 53.18C569.321 53.1335 568.231 53.0988 567.085 53.0755C565.939 53.0523 564.815 53.0291 563.715 53.0058C562.614 52.9826 561.628 52.9711 560.757 52.9711C559.931 52.9711 558.991 52.9826 557.937 53.0058C556.882 53.0291 555.815 53.0638 554.738 53.1103C553.66 53.1568 552.605 53.1915 551.573 53.2147C550.542 53.2379 549.659 53.2727 548.925 53.3191V52.9014C550.209 52.7158 551.344 52.5069 552.33 52.2751C553.316 52.043 554.142 51.7065 554.806 51.2658C555.472 50.8248 555.976 50.2332 556.32 49.4907C556.664 48.7482 556.859 47.7504 556.904 46.4975C556.95 45.5694 556.985 44.1194 557.008 42.1473C557.031 40.1749 557.042 38.075 557.042 35.8478V18.0282C557.042 16.6826 557.031 15.2903 557.008 13.8518C556.985 12.4132 556.973 11.0907 556.973 9.88425V5.84699L545.83 5.98616C544.454 5.98616 543.342 6.10207 542.494 6.33416C541.645 6.56625 540.923 6.94898 540.327 7.48261C539.73 8.01625 539.18 8.70079 538.676 9.53621C538.171 10.3714 537.575 11.3922 536.887 12.5989L536.406 12.2509C536.406 12.1117 536.543 11.4272 536.818 10.1975C537.094 8.96764 537.415 7.61027 537.782 6.12529C538.194 4.45468 538.676 2.55225 539.226 0.417699L539.639 0C540.006 0.696028 540.51 1.22966 541.152 1.60091C541.794 1.97215 542.471 2.26221 543.181 2.47106C543.892 2.67992 544.626 2.81906 545.383 2.88876C546.139 2.95822 546.793 2.99294 547.343 2.99294L561.032 3.34122L576.784 2.99294C578.389 2.94672 579.673 2.86552 580.636 2.74936C581.599 2.63343 582.379 2.45933 582.975 2.22748C583.571 1.99539 584.007 1.72853 584.282 1.42698C584.557 1.12519 584.809 0.765709 585.039 0.347997L585.589 0.626292L583.388 13.3646ZM644.265 27.3556C644.265 31.2537 643.577 34.8732 642.201 38.2145C640.825 41.5554 638.899 44.4442 636.423 46.8805C633.947 49.3166 631.011 51.2193 627.618 52.5884C624.225 53.9572 620.533 54.6417 616.543 54.6417C612.416 54.6417 608.69 53.9225 605.365 52.484C602.04 51.0452 599.209 49.1195 596.87 46.7064C594.531 44.2933 592.731 41.4859 591.47 38.2839C590.209 35.0821 589.579 31.7408 589.579 28.2604C589.579 24.9192 590.186 21.6595 591.401 18.4807C592.617 15.3021 594.394 12.4712 596.732 9.98867C599.071 7.50587 601.96 5.49896 605.4 3.96751C608.839 2.4363 612.783 1.67061 617.231 1.67061C621.129 1.67061 624.729 2.27367 628.031 3.48034C631.333 4.68678 634.187 6.40386 636.595 8.63134C639.003 10.8586 640.883 13.5502 642.235 16.7056C643.588 19.8612 644.265 23.4113 644.265 27.3556ZM618.469 52.2054C620.441 52.2054 622.402 51.7529 624.351 50.8481C626.3 49.9432 628.031 48.5511 629.544 46.6599C631.057 44.7807 632.296 42.3676 633.259 39.4094C634.222 36.4626 634.703 32.9475 634.703 28.8521C634.703 25.3717 634.245 22.1119 633.328 19.0955C632.41 16.0675 631.115 13.4458 629.441 11.2183C627.767 8.99085 625.761 7.21583 623.422 5.91646C621.083 4.61734 618.515 3.96751 615.718 3.96751C613.333 3.96751 611.132 4.48967 609.114 5.53371C607.097 6.57775 605.342 8.07446 603.852 10.0349C602.362 11.984 601.204 14.3739 600.378 17.2162C599.553 20.0468 599.14 23.2257 599.14 26.764C599.14 30.3371 599.61 33.6783 600.55 36.7642C601.49 39.8501 602.797 42.5532 604.471 44.8502C606.145 47.1473 608.174 48.9571 610.559 50.2565C612.943 51.5558 615.58 52.2054 618.469 52.2054ZM720 53.3191C719.037 53.2727 718.005 53.2147 716.904 53.145C715.804 53.0756 714.715 53.0176 713.637 52.9711C712.559 52.9247 711.505 52.8899 710.473 52.8667C709.441 52.8435 708.512 52.832 707.687 52.832C705.532 52.832 703.514 52.8782 701.634 52.9711C699.753 53.0638 697.85 53.18 695.924 53.3191V52.832C697.208 52.6463 698.309 52.4375 699.226 52.2054C700.143 51.9733 700.9 51.6371 701.496 51.1961C702.092 50.7554 702.539 50.1635 702.838 49.421C703.136 48.6785 703.307 47.681 703.353 46.4281C703.399 45.7783 703.342 44.5371 703.181 42.7041C703.021 40.8711 702.826 38.864 702.597 36.683C702.367 34.5019 702.127 32.3209 701.874 30.1399C701.622 27.9589 701.427 26.1954 701.29 24.8498C701.244 24.2465 701.164 23.4692 701.049 22.5179C700.934 21.5665 700.82 20.6154 700.705 19.6641C700.59 18.7127 700.487 17.8426 700.396 17.0536C700.304 16.2649 700.258 15.7313 700.258 15.4527H699.983C698.699 18.2371 697.69 20.4645 696.956 22.1352C696.222 23.8058 695.592 25.2675 695.064 26.5204C694.537 27.7733 693.998 29.003 693.448 30.2094C692.898 31.4161 692.175 32.959 691.281 34.8385C690.387 36.7177 689.229 39.1193 687.807 42.0428C686.386 44.9663 684.528 48.7482 682.236 53.3888H681.754C679.094 47.4024 676.343 41.4742 673.5 35.604C670.656 29.734 667.928 23.8057 665.314 17.8193H665.107L664.144 24.6409C663.869 26.5899 663.56 28.7361 663.216 31.0796C662.872 33.423 662.516 35.6389 662.149 37.727C661.874 39.3976 661.622 41.045 661.393 42.6691C661.164 44.2933 661.026 45.5 660.98 46.2887C660.934 47.1241 661.015 47.9013 661.221 48.6206C661.427 49.3398 661.829 49.9779 662.425 50.5348C663.021 51.0916 663.846 51.5673 664.901 51.9618C665.956 52.3563 667.309 52.6231 668.96 52.7623V53.3191C667.905 53.2264 666.368 53.1335 664.351 53.0408C662.333 52.9479 660.292 52.9014 658.229 52.9014C656.211 52.9014 654.411 52.9479 652.829 53.0408C651.247 53.1335 649.928 53.2264 648.874 53.3191V52.832C650.066 52.6463 651.144 52.3678 652.107 51.9966C653.07 51.6253 653.918 51.0684 654.652 50.326C655.385 49.5835 656.004 48.6323 656.509 47.4721C657.013 46.3119 657.426 44.8269 657.747 43.0172L662.7 13.8518C662.379 13.1093 662.081 12.39 661.806 11.694C661.576 11.1371 661.347 10.5685 661.118 9.98867C660.888 9.40856 660.705 8.97937 660.567 8.70081C659.742 6.93751 658.699 5.64962 657.438 4.83767C656.176 4.02548 654.675 3.50361 652.932 3.27152V2.78435C653.391 2.83058 653.952 2.86553 654.617 2.88876C655.282 2.91176 655.97 2.935 656.681 2.95823C657.392 2.98146 658.068 2.99294 658.71 2.99294C659.352 2.99294 659.903 2.99294 660.361 2.99294C661.553 2.99294 662.711 2.98146 663.835 2.95823C664.958 2.935 665.933 2.87704 666.758 2.78435C668.18 5.93971 669.602 9.21122 671.023 12.5989C672.445 15.9863 673.878 19.3855 675.322 22.7964C676.767 26.2071 678.2 29.6063 679.622 32.9937C681.043 36.3814 682.442 39.6297 683.818 42.7388C685.377 39.6297 686.959 36.4047 688.564 33.0634C690.169 29.7222 691.763 26.3463 693.345 22.9356C694.927 19.5247 696.509 16.1257 698.091 12.738C699.673 9.35058 701.244 6.03264 702.803 2.78435C703.17 2.83058 703.617 2.86553 704.144 2.88876C704.672 2.91176 705.222 2.935 705.795 2.95823C706.368 2.98146 706.919 3.0047 707.446 3.02793C707.973 3.05117 708.421 3.06264 708.788 3.06264C710.026 3.06264 711.138 3.03941 712.124 2.99294C713.11 2.94672 714.015 2.87704 714.841 2.78435V3.27152C713.419 3.41067 712.25 3.60802 711.333 3.8631C710.415 4.11842 709.67 4.47795 709.097 4.94213C708.524 5.40607 708.1 6.00937 707.824 6.75186C707.549 7.49435 707.389 8.42247 707.343 9.53621C707.343 9.72183 707.355 10.0581 707.377 10.5455C707.4 11.0327 707.435 11.4154 707.48 11.694C707.71 13.9215 707.985 16.3343 708.306 18.9331C708.627 21.5318 708.937 24.0726 709.235 26.5551C709.533 29.0377 709.808 31.3116 710.06 33.3767C710.312 35.4416 710.507 37.031 710.645 38.1447C710.782 39.4906 710.92 40.7667 711.058 41.9731C711.149 42.9942 711.252 43.9803 711.367 44.9314C711.482 45.8827 711.585 46.544 711.677 46.9153C711.86 47.8898 712.078 48.7135 712.33 49.3863C712.582 50.0591 713.007 50.616 713.603 51.0569C714.199 51.4976 715.001 51.8574 716.01 52.1357C717.019 52.4142 718.349 52.6231 720 52.7623V53.3191Z" fill="#323338"/>
</svg>
