<svg width="1437" height="113" viewBox="0 0 1437 113" fill="none" xmlns="http://www.w3.org/2000/svg">
<path d="M109.419 55.0144C109.419 63.5353 107.863 71.06 104.751 77.5898C101.639 84.1193 97.4293 89.6065 92.1204 94.0522C86.8121 98.4979 80.6113 101.855 73.5182 104.124C66.4247 106.394 58.9428 107.528 51.0712 107.528L23.6139 106C22.3323 106 20.6619 106 18.6027 106C16.5435 106 14.3695 106.023 12.0816 106.069C9.79333 106.115 7.57399 106.162 5.42315 106.208C3.27231 106.254 1.46444 106.324 0 106.416L0 105.305C2.56277 104.935 4.85106 104.518 6.86443 104.054C8.87827 103.592 10.5714 102.897 11.9442 101.971C13.317 101.045 14.3695 99.8406 15.1017 98.3587C15.8339 96.8769 16.2917 94.9318 16.4745 92.524C16.5662 91.2276 16.6119 89.4445 16.6119 87.1753C16.6119 84.9061 16.6346 82.3826 16.6804 79.6043C16.7263 76.8255 16.7494 73.8851 16.7494 70.7822C16.7494 67.6798 16.7263 64.716 16.6804 61.8913C16.6346 59.0662 16.6119 56.4499 16.6119 54.0421C16.6119 51.6338 16.6119 49.6891 16.6119 48.2072C16.6119 45.9844 16.6119 43.5995 16.6119 41.0526C16.6119 38.5056 16.6119 35.9123 16.6119 33.2726C16.6119 30.633 16.5893 28.1094 16.5435 25.7011C16.4977 23.2933 16.4291 21.1168 16.3375 19.1717C16.2458 16.9488 15.8339 15.0965 15.1017 13.6151C14.3695 12.1332 13.3628 10.929 12.0816 10.0026C10.8 9.07662 9.17544 8.35867 7.20789 7.84957C5.23987 7.33999 2.97469 6.90023 0.41192 6.52975V5.55745L23.7509 6.11288C26.863 6.20562 30.3635 6.08994 34.2537 5.76584C38.1435 5.44126 42.1476 5.27922 46.2664 5.27922C54.3204 5.27922 62.1462 6.13631 69.7428 7.84957C77.3395 9.56282 84.0665 12.3646 89.9242 16.2543C95.7815 20.1445 100.495 25.2613 104.065 31.6057C107.634 37.9496 109.419 45.7526 109.419 55.0144ZM91.846 58.0709C91.846 50.7542 90.4047 44.1087 87.5216 38.1352C84.6613 32.1612 80.7942 27.0673 75.9662 22.8535C71.1156 18.6391 65.5781 15.3747 59.3089 13.0592C53.0619 10.7436 46.5182 9.58625 39.6538 9.58625C37.4571 9.58625 35.5807 9.88696 33.9788 10.4893C32.3774 11.0911 31.5767 12.6887 31.5767 15.282C31.5767 19.3572 31.5308 24.1963 31.4392 29.7997C31.3475 35.4027 31.3017 41.3532 31.3017 47.6513V63.7667C31.3017 69.6942 31.3017 75.1352 31.3017 80.0904C31.3017 85.0452 31.3475 88.6806 31.4392 90.9957C31.9881 93.589 32.8352 95.6727 33.9788 97.2473C35.123 98.822 36.5647 100.049 38.2805 100.929C40.0199 101.809 41.9647 102.411 44.1156 102.735C46.2664 103.059 48.5542 103.221 51.0258 103.221C57.6843 103.221 63.5875 102.133 68.6904 99.9564C73.8154 97.7799 78.0712 94.7239 81.5037 90.7873C84.9357 86.8512 87.4985 82.1048 89.2374 76.5477C90.9768 70.9906 91.846 64.8317 91.846 58.0709ZM220.073 59.8769C220.073 60.2473 220.096 60.6637 220.142 61.1269C220.188 61.5901 220.211 62.007 220.211 62.3775C220.211 66.0822 220.028 69.7406 219.662 73.3526C219.295 76.9645 218.586 80.4145 217.534 83.7024C216.481 86.9903 215.085 90.0463 213.346 92.8715C211.608 95.6962 209.365 98.2197 206.619 100.443C202.592 103.661 198.336 105.838 193.851 107.018C189.366 108.199 184.653 108.778 179.711 108.778C176.965 108.778 174.173 108.639 171.336 108.362C168.499 108.107 165.73 107.597 163.03 106.88C160.33 106.162 157.744 105.189 155.273 103.962C152.802 102.735 150.56 101.184 148.546 99.3311C142.322 93.8668 138.89 85.8096 138.249 75.1586C138.067 73.399 137.952 71.3845 137.906 69.1153C137.861 66.8461 137.815 64.4842 137.769 62.03C137.723 59.5758 137.701 57.1679 137.701 54.8059C137.701 52.4445 137.701 50.291 137.701 48.3459C137.701 46.1231 137.701 43.7382 137.701 41.1912C137.701 38.6443 137.701 36.0743 137.701 33.481C137.701 30.8877 137.701 28.3872 137.701 25.9793C137.701 23.571 137.655 21.3946 137.563 19.4494C137.471 16.9489 137.059 14.9578 136.327 13.4759C135.595 11.994 134.566 10.8133 133.238 9.93329C131.911 9.05372 130.264 8.38205 128.296 7.91884C126.328 7.45563 124.063 7.03934 121.5 6.66887V5.83512C122.965 5.83512 124.75 5.85812 126.855 5.90449C128.96 5.95086 131.133 6.04353 133.376 6.18216C135.618 6.32126 137.792 6.43702 139.897 6.52975C142.002 6.62249 143.833 6.66887 145.388 6.66887C147.219 6.66887 149.187 6.6454 151.292 6.59903C153.397 6.55266 155.502 6.48338 157.607 6.39064C159.712 6.29838 161.703 6.20562 163.579 6.11288C165.455 6.02014 167.08 5.92786 168.453 5.83512V6.80742C165.616 7.08516 163.236 7.47911 161.314 7.98821C159.392 8.49779 157.836 9.21574 156.646 10.1417C155.456 11.0676 154.564 12.2718 153.969 13.7537C153.374 15.2356 153.031 17.088 152.939 19.3108C152.848 20.8854 152.779 22.7837 152.733 25.0065C152.688 27.2294 152.665 29.8227 152.665 32.7865L152.939 62.7943C152.939 66.6841 153.191 70.4581 153.695 74.1165C154.198 77.7748 154.999 81.1555 156.097 84.2579C157.195 87.3608 158.614 90.1625 160.353 92.6631C162.092 95.1637 164.243 97.201 166.806 98.7756C169.551 100.535 172.412 101.762 175.386 102.457C178.36 103.152 181.404 103.499 184.516 103.499C188.177 103.499 191.701 102.781 195.087 101.346C198.473 99.91 201.311 97.9883 203.599 95.5805C205.246 93.8209 206.642 91.7137 207.786 89.2595C208.93 86.8048 209.846 84.1193 210.532 81.2019C211.218 78.2844 211.699 75.2279 211.973 72.0327C212.248 68.8376 212.385 65.619 212.385 62.3775L212.111 37.9267C212.019 34.5924 211.95 31.2582 211.905 27.9239C211.859 24.5897 211.79 21.7186 211.699 19.3108C211.608 16.8102 211.196 14.8187 210.463 13.3368C209.731 11.8549 208.701 10.6742 207.374 9.79418C206.047 8.9146 204.4 8.24302 202.432 7.78029C200.464 7.31708 198.199 6.90023 195.636 6.52975V5.696C198.565 5.60327 201.883 5.7195 205.59 6.0436C209.296 6.36771 212.705 6.52975 215.818 6.52975C219.479 6.52975 223.094 6.43699 226.663 6.25199C230.233 6.06652 233.345 5.88148 235.999 5.696V6.66887C233.162 6.9466 230.782 7.33999 228.86 7.84957C226.938 8.35867 225.382 9.07662 224.192 10.0026C223.002 10.929 222.11 12.1332 221.515 13.6151C220.92 15.0965 220.577 16.9488 220.485 19.1717C220.394 20.7463 220.325 22.6451 220.279 24.8679C220.234 27.0907 220.211 29.6836 220.211 32.6474V42.6501C220.211 43.8543 220.188 45.2201 220.142 46.7483C220.096 48.2766 220.073 49.8048 220.073 51.3331C220.073 52.8609 220.073 54.2734 220.073 55.5698C220.073 56.8667 220.073 57.8854 220.073 58.6263V59.8769ZM325.374 75.714C325.374 79.7892 324.527 83.6789 322.834 87.3837C321.141 91.0884 318.692 94.3763 315.489 97.2473C312.286 100.118 308.418 102.388 303.888 104.054C299.357 105.722 294.301 106.556 288.717 106.556L267.987 105.583L243.412 106.416V105.444C246.067 105.166 248.378 104.795 250.345 104.333C252.313 103.87 253.984 103.152 255.357 102.179C256.729 101.207 257.782 99.9564 258.514 98.4281C259.246 96.9003 259.658 94.8859 259.75 92.3849C259.841 90.4402 259.887 87.4764 259.887 83.494C259.887 79.5115 259.887 75.2509 259.887 70.7129C259.887 66.1745 259.887 61.845 259.887 57.7234C259.887 53.6018 259.887 50.4301 259.887 48.2072C259.887 45.9844 259.887 43.5995 259.887 41.0526C259.887 38.5056 259.887 35.9587 259.887 33.4118C259.887 30.8648 259.864 28.3872 259.818 25.9793C259.773 23.571 259.704 21.3946 259.612 19.4494C259.521 16.9489 259.132 14.9578 258.446 13.4759C257.759 11.994 256.752 10.79 255.425 9.86401C254.098 8.93759 252.45 8.24302 250.483 7.78029C248.515 7.31708 246.25 6.90023 243.687 6.52975V5.55745C248.63 5.55745 252.84 5.69603 256.317 5.97376C259.796 6.25198 262.862 6.39064 265.516 6.39064C267.072 6.39064 268.788 6.36764 270.664 6.32127C272.541 6.2749 274.256 6.15924 275.812 5.97376C277.643 5.78877 279.474 5.60333 281.304 5.41833C285.056 5.1406 288.969 5.30265 293.042 5.90449C297.115 6.50633 300.845 7.66412 304.231 9.37786C307.618 11.0911 310.409 13.4989 312.606 16.6018C314.803 19.7042 315.901 23.6638 315.901 28.4799C315.901 31.9992 315.214 35.0323 313.842 37.5792C312.468 40.1261 310.844 42.2797 308.968 44.0393C307.091 45.799 305.238 47.1881 303.408 48.2072C301.577 49.2259 300.204 49.8741 299.289 50.1519V50.8464C302.584 51.3096 305.787 52.1433 308.899 53.3475C312.011 54.5511 314.802 56.1487 317.274 58.1402C319.745 60.1312 321.713 62.5859 323.177 65.5033C324.642 68.4208 325.374 71.8243 325.374 75.714ZM309.311 78.7705C309.311 75.0658 308.579 71.6852 307.114 68.6291C305.65 65.5726 303.682 62.933 301.211 60.7102C298.74 58.4873 295.902 56.7511 292.699 55.5006C289.496 54.2505 286.201 53.6252 282.814 53.6252H280.618V50.9855H282.814C285.652 50.9855 288.191 50.476 290.434 49.4573C292.676 48.4386 294.553 47.026 296.062 45.22C297.573 43.414 298.717 41.2839 299.495 38.8297C300.273 36.3755 300.662 33.7125 300.662 30.8414C300.662 27.4149 300.135 24.4047 299.083 21.8114C298.03 19.2181 296.566 17.0186 294.69 15.2126C292.813 13.4066 290.662 12.0404 288.237 11.114C285.812 10.188 283.226 9.7249 280.48 9.7249C278.009 9.7249 276.385 10.3038 275.606 11.4616C274.828 12.6194 274.44 13.7073 274.44 14.726V21.6723V31.9528C274.44 32.6938 274.44 33.9209 274.44 35.6346C274.44 37.3478 274.44 39.3159 274.44 41.5387C274.44 43.7616 274.44 46.1001 274.44 48.5543C274.44 51.0085 274.462 53.3011 274.508 55.4312C274.554 57.5613 274.577 59.4367 274.577 61.0577C274.577 62.6782 274.577 63.7666 274.577 64.3221C274.577 65.063 274.577 66.707 274.577 69.2539C274.577 71.8009 274.6 74.5333 274.646 77.4507C274.691 80.3681 274.737 83.0542 274.783 85.5084C274.828 87.9626 274.852 89.4215 274.852 89.8843C274.943 91.9221 275.218 93.7281 275.675 95.3023C276.133 96.8769 276.934 98.1967 278.078 99.2618C279.222 100.327 280.732 101.137 282.608 101.693C284.485 102.248 286.933 102.527 289.953 102.527C291.967 102.527 294.117 102.086 296.406 101.207C298.694 100.327 300.799 98.9377 302.721 97.0389C304.643 95.1402 306.222 92.686 307.458 89.6759C308.693 86.6662 309.311 83.0307 309.311 78.7705ZM447.561 112.807C438.316 112.529 430.422 110.909 423.878 107.945C417.334 104.981 411.728 101.137 407.106 96.4137C402.461 91.6903 398.526 86.3651 395.322 80.4375C392.119 74.5104 389.167 68.4437 386.513 62.2384C385.689 62.5161 384.682 62.748 383.492 62.933C382.28 63.1185 380.975 63.2805 379.557 63.4191C378.138 63.5583 376.697 63.6509 375.209 63.6973C373.745 63.7436 372.418 63.7203 371.228 63.6275V71.5466C371.228 77.6592 371.228 82.4982 371.228 86.0639C371.228 89.63 371.32 92.1999 371.503 93.7745C371.686 95.7191 372.052 97.3631 372.601 98.7063C373.15 100.049 374.042 101.161 375.278 102.041C376.514 102.92 378.184 103.638 380.289 104.194C382.394 104.75 385.094 105.166 388.389 105.444V106.416C386.925 106.324 385.163 106.231 383.104 106.139C381.044 106.046 378.87 105.977 376.583 105.93C374.294 105.884 372.052 105.838 369.878 105.791C367.704 105.745 365.737 105.722 364.02 105.722C362.396 105.722 360.52 105.745 358.437 105.791C356.355 105.838 354.227 105.907 352.076 106C349.925 106.092 347.82 106.162 345.761 106.208C343.702 106.254 341.94 106.324 340.476 106.416V105.583C343.038 105.212 345.303 104.795 347.271 104.333C349.239 103.87 350.864 103.198 352.145 102.318C353.426 101.438 354.433 100.258 355.165 98.7756C355.898 97.2937 356.31 95.3022 356.401 92.8017C356.492 90.9493 356.538 88.0553 356.538 84.1192C356.538 80.1827 356.538 75.9918 356.538 71.5466C356.538 66.545 356.561 61.8679 356.607 57.5149C356.652 53.162 356.676 48.9247 356.676 44.8032C356.676 40.6821 356.652 36.5839 356.607 32.5087C356.561 28.4335 356.446 24.0806 356.264 19.4494C356.172 16.9489 355.806 14.9578 355.165 13.4759C354.525 11.994 353.563 10.8133 352.282 9.93329C351.001 9.05372 349.399 8.38205 347.477 7.91884C345.555 7.45563 343.313 7.03934 340.75 6.66887V5.696C346.608 5.696 351.39 5.78877 355.097 5.97376C358.803 6.15924 361.801 6.25199 364.089 6.25199L380.015 5.83512C384.408 5.83512 388.87 6.20559 393.4 6.94654C397.931 7.68748 402.049 8.98395 405.756 10.8363C409.463 12.6887 412.506 15.2585 414.886 18.5464C417.266 21.8343 418.455 26.0252 418.455 31.1191C418.455 36.8616 416.739 41.7237 413.284 45.7062C409.852 49.6891 405.55 53.2084 400.425 56.2649C401.34 59.4137 402.644 62.91 404.337 66.7534C406.031 70.5972 408.067 74.4869 410.401 78.423C412.735 82.3591 415.343 86.2259 418.181 90.0234C421.018 93.8209 424.015 97.2474 427.173 100.304C430.331 103.36 433.626 105.907 437.058 107.945C440.49 109.982 443.991 111.186 447.561 111.557V112.807ZM403.217 37.093C403.217 32.2769 402.324 28.1324 400.516 24.6595C398.732 21.1861 396.398 18.3385 393.492 16.1157C390.609 13.8928 387.291 12.2489 383.561 11.1838C379.854 10.1188 376.056 9.58625 372.189 9.58625L371.228 10.9754V32.2305L371.091 54.3198V60.0155C375.049 59.9233 378.916 59.2746 382.737 58.0709C386.559 56.8668 389.991 55.2692 393.011 53.2777C396.054 51.2867 398.503 48.9018 400.379 46.1231C402.278 43.3447 403.217 40.3346 403.217 37.093ZM555.607 54.5975C555.607 62.3775 554.234 69.6015 551.488 76.27C548.742 82.9381 544.898 88.7035 539.956 93.566C535.013 98.4281 529.156 102.226 522.383 104.958C515.61 107.69 508.242 109.056 500.28 109.056C492.042 109.056 484.606 107.621 477.97 104.75C471.334 101.878 465.683 98.0347 461.015 93.2185C456.347 88.4024 452.755 82.7994 450.238 76.4086C447.721 70.0183 446.462 63.3498 446.462 56.4035C446.462 49.735 447.675 43.2291 450.1 36.8847C452.526 30.5407 456.072 24.8908 460.74 19.9361C465.408 14.9808 471.174 10.9754 478.039 7.91884C484.903 4.8628 492.774 3.33461 501.652 3.33461C509.432 3.33461 516.617 4.53822 523.207 6.94654C529.797 9.35437 535.494 12.7814 540.299 17.2271C545.104 21.6723 548.857 27.0443 551.557 33.3419C554.257 39.64 555.607 46.7253 555.607 54.5975ZM504.124 104.194C508.059 104.194 511.972 103.291 515.862 101.485C519.752 99.6786 523.207 96.9003 526.227 93.1258C529.247 89.3752 531.718 84.559 533.641 78.6549C535.563 72.7737 536.524 65.7581 536.524 57.5843C536.524 50.638 535.609 44.1321 533.778 38.1118C531.947 32.0685 529.362 26.8359 526.021 22.3903C522.68 17.9446 518.676 14.4019 514.008 11.8086C509.34 9.21579 504.215 7.91884 498.632 7.91884C493.872 7.91884 489.48 8.96098 485.452 11.0447C481.425 13.1284 477.924 16.1156 474.95 20.0283C471.975 23.9185 469.664 28.6883 468.017 34.3611C466.369 40.0104 465.546 46.3549 465.546 53.4168C465.546 60.5481 466.484 67.2166 468.36 73.3755C470.236 79.5345 472.845 84.9295 476.185 89.5138C479.526 94.0986 483.576 97.7106 488.336 100.304C493.094 102.897 498.357 104.194 504.124 104.194ZM623.153 107.667H621.917C616.334 94.5154 611.255 82.6603 606.678 72.102C604.756 67.5641 602.834 63.095 600.912 58.6957C598.99 54.2964 597.228 50.2676 595.627 46.6097C594.025 42.9513 592.675 39.8714 591.577 37.3708C590.478 34.8702 589.792 33.2497 589.517 32.5087C589.151 31.675 588.488 30.3088 587.526 28.4101C586.565 26.5118 585.559 24.5668 584.506 22.5753C583.454 20.5843 582.447 18.7319 581.486 17.0187C580.525 15.3049 579.861 14.2169 579.495 13.7537C577.39 11.3459 575.217 9.67854 572.974 8.75259C570.732 7.82617 567.871 7.1316 564.393 6.66887V5.41833C565.949 5.51107 567.757 5.62673 569.817 5.76584C571.876 5.90447 573.981 6.02014 576.132 6.11288C578.282 6.20562 580.387 6.2749 582.447 6.32127C584.506 6.36764 586.314 6.39064 587.87 6.39064C588.51 6.39064 589.654 6.39064 591.302 6.39064C592.949 6.39064 594.826 6.34425 596.931 6.25199C599.036 6.15926 601.278 6.0665 603.658 5.97376C606.038 5.8815 608.28 5.69607 610.385 5.41833V6.52975C609.378 6.80749 608.28 7.0393 607.09 7.2243C605.9 7.40977 604.825 7.71048 603.864 8.12733C602.903 8.54417 602.102 9.12307 601.461 9.86401C600.821 10.605 600.5 11.67 600.5 13.0592C600.5 14.1706 600.729 15.5367 601.187 17.1572C601.644 18.7782 602.377 20.7927 603.383 23.2005C604.024 24.8679 604.871 27.0209 605.923 29.6606C606.976 32.3003 608.12 35.1943 609.355 38.3436C610.591 41.4924 611.918 44.8032 613.337 48.2765C614.756 51.7494 616.151 55.1535 617.524 58.4873C620.728 66.36 624.16 74.8345 627.821 83.9109C627.821 83.8181 627.867 83.7717 627.958 83.7717C628.049 83.7717 628.141 83.7254 628.233 83.6326C628.873 81.873 629.972 79.2338 631.528 75.714C633.083 72.1948 634.891 68.1196 636.95 63.4889C639.01 58.8577 641.229 53.7639 643.609 48.2072C645.989 42.6501 648.368 37.0003 650.748 31.2582C651.572 29.2208 652.395 27.2528 653.219 25.3541C654.043 23.4553 654.729 21.7186 655.279 20.1445C656.743 15.7915 656.469 12.5959 654.455 10.5586C652.441 8.52072 648.826 7.13159 643.609 6.39064V5.55745C646.538 5.37197 649.627 5.46464 652.876 5.83512C656.125 6.20559 659.306 6.39064 662.417 6.39064C666.079 6.39064 669.785 6.27497 673.538 6.0436C677.29 5.81176 680.494 5.60333 683.148 5.41833V6.39064C679.853 6.76111 677.061 7.47906 674.774 8.54411C672.485 9.60916 670.518 11.0218 668.87 12.7814C667.223 14.541 665.781 16.5554 664.546 18.8246C663.31 21.0934 662.097 23.571 660.907 26.2571L623.153 107.667ZM740.672 106.416C739.208 106.324 737.446 106.231 735.386 106.139C733.327 106.046 731.154 105.977 728.865 105.93C726.577 105.884 724.335 105.838 722.115 105.791C719.896 105.745 717.928 105.722 716.166 105.722C714.496 105.722 712.619 105.745 710.492 105.791C708.364 105.838 706.235 105.907 704.085 106C701.934 106.092 699.829 106.162 697.77 106.208C695.71 106.254 693.948 106.324 692.484 106.416V105.583C695.047 105.212 697.312 104.795 699.28 104.333C701.247 103.87 702.872 103.198 704.154 102.318C705.435 101.438 706.441 100.258 707.174 98.7756C707.906 97.2937 708.318 95.3022 708.409 92.8017C708.501 90.857 708.546 87.8699 708.546 83.841C708.546 79.8122 708.546 75.5056 708.546 70.9213C708.546 66.3365 708.546 61.9606 708.546 57.7927C708.546 53.6252 708.546 50.4301 708.546 48.2072C708.546 45.9844 708.57 43.5995 708.615 41.0526C708.661 38.5056 708.684 35.9123 708.684 33.2726C708.684 30.633 708.684 28.1094 708.684 25.7011C708.684 23.2933 708.638 21.1168 708.546 19.1717C708.455 16.6711 708.02 14.6802 707.243 13.1983C706.465 11.7164 705.389 10.5351 704.016 9.65553C702.643 8.77548 700.973 8.10439 699.005 7.64117C697.037 7.17796 694.772 6.76111 692.209 6.39064V5.55745C693.674 5.55745 695.459 5.58036 697.564 5.62673C699.669 5.6731 701.843 5.76586 704.085 5.90449C706.327 6.04359 708.501 6.15926 710.629 6.25199C712.757 6.34425 714.587 6.39064 716.166 6.39064C718.019 6.39064 719.987 6.36764 722.115 6.32127C724.243 6.2749 726.348 6.20562 728.453 6.11288C730.558 6.02014 732.549 5.92786 734.425 5.83512C736.302 5.74238 737.926 5.64971 739.299 5.55745V6.52975C736.462 6.80749 734.083 7.20135 732.16 7.71045C730.238 8.22003 728.682 8.93759 727.492 9.86401C726.303 10.79 725.41 11.994 724.815 13.4759C724.22 14.9578 723.877 16.8102 723.786 19.033C723.694 20.6072 723.625 22.5059 723.58 24.7288C723.534 26.9516 723.511 29.5449 723.511 32.5087V77.7978C723.511 80.7616 723.511 83.7717 723.511 86.8282C723.511 89.8843 723.603 92.1999 723.786 93.7745C723.969 95.7191 724.335 97.3631 724.884 98.7063C725.433 100.049 726.326 101.161 727.561 102.041C728.797 102.92 730.467 103.638 732.572 104.194C734.677 104.75 737.377 105.166 740.672 105.444V106.416ZM859.289 100.304C859.289 101.045 859.267 101.878 859.221 102.804C859.175 103.73 859.152 104.61 859.152 105.444C859.061 106.463 859.015 107.435 859.015 108.362L857.505 108.778C845.149 95.9046 833.708 83.8645 823.182 72.658C818.698 67.9346 814.167 63.1413 809.591 58.2793C805.015 53.4168 800.713 48.8784 796.686 44.6646C792.659 40.4503 789.066 36.6762 785.909 33.3419C782.751 30.0081 780.303 27.4148 778.564 25.5624C778.564 26.3034 778.564 26.8125 778.564 27.0907C778.564 27.3685 778.564 27.6462 778.564 27.9239C778.564 28.2017 778.564 28.6649 778.564 29.3131C778.564 29.9618 778.564 31.0268 778.564 32.5087L778.426 57.3759L778.564 77.7978C778.564 80.7616 778.564 83.7717 778.564 86.8282C778.564 89.8843 778.655 92.1999 778.838 93.7745C779.021 95.7191 779.388 97.3631 779.937 98.7063C780.486 100.049 781.378 101.161 782.614 102.041C783.849 102.92 785.52 103.638 787.625 104.194C789.73 104.75 792.43 105.166 795.725 105.444V106.416C792.796 106.231 789.478 106.069 785.772 105.93C782.065 105.791 778.472 105.722 774.994 105.722C771.791 105.722 768.244 105.791 764.354 105.93C760.465 106.069 757.055 106.231 754.126 106.416V105.583C756.689 105.212 758.954 104.795 760.922 104.333C762.89 103.87 764.537 103.198 765.865 102.318C767.192 101.438 768.198 100.258 768.885 98.7756C769.571 97.2937 769.96 95.3022 770.052 92.8017C770.143 90.857 770.189 87.8699 770.189 83.841C770.189 79.8122 770.189 75.5056 770.189 70.9213C770.189 66.3365 770.189 61.9606 770.189 57.7927C770.189 53.6252 770.189 50.4301 770.189 48.2072C770.189 45.9844 770.189 43.5995 770.189 41.0526C770.189 38.5056 770.189 35.9123 770.189 33.2726C770.189 30.633 770.166 28.1094 770.12 25.7011C770.075 23.2933 770.006 21.1168 769.915 19.1717C769.823 16.6711 769.411 14.6802 768.679 13.1983C767.947 11.7164 766.917 10.5351 765.59 9.65553C764.263 8.77548 762.615 8.10439 760.647 7.64117C758.68 7.17796 756.415 6.76111 753.852 6.39064V5.55745C756.323 5.74245 758.36 5.8815 759.961 5.97376C761.563 6.0665 763.004 6.11288 764.286 6.11288C765.567 6.11288 766.78 6.08997 767.924 6.0436C769.068 5.99723 770.418 5.97376 771.974 5.97376C772.523 5.97376 773.301 5.95086 774.308 5.90449C775.315 5.85812 776.367 5.81173 777.465 5.76584C778.564 5.71947 779.594 5.6731 780.554 5.62673C781.515 5.58036 782.271 5.55745 782.82 5.55745C795.45 19.4495 806.754 31.9064 816.73 42.9279C820.94 47.6513 825.105 52.259 829.223 56.7511C833.342 61.2427 837.026 65.2715 840.275 68.8376C843.524 72.4032 846.155 75.3206 848.169 77.5898C850.182 79.8586 851.281 81.0398 851.464 81.132H851.601C851.784 81.132 851.876 81.0397 851.876 80.8543C851.876 80.5765 851.853 79.2797 851.807 76.9646C851.761 74.649 851.739 71.8473 851.739 68.5594C851.739 65.2715 851.716 61.7752 851.67 58.0709C851.624 54.3662 851.601 51.0319 851.601 48.0681C851.601 45.8453 851.578 43.4604 851.533 40.9135C851.487 38.3665 851.464 35.7966 851.464 33.2033C851.464 30.61 851.464 28.1094 851.464 25.7011C851.464 23.2933 851.418 21.1168 851.327 19.1717C851.235 16.6711 850.824 14.6802 850.091 13.1983C849.359 11.7164 848.329 10.5351 847.002 9.65553C845.675 8.77548 844.028 8.10439 842.06 7.64117C840.092 7.17796 837.827 6.76111 835.264 6.39064V5.55745C836.728 5.55745 838.376 5.58036 840.206 5.62673C842.037 5.6731 843.89 5.76586 845.766 5.90449C847.643 6.04359 849.496 6.15926 851.327 6.25199C853.157 6.34425 854.85 6.39064 856.406 6.39064C860.067 6.39064 863.545 6.29835 866.84 6.11288C870.135 5.92788 873.11 5.74245 875.764 5.55745V6.52975C872.927 6.80749 870.547 7.20135 868.625 7.71045C866.703 8.22003 865.147 8.93759 863.957 9.86401C862.767 10.79 861.875 11.994 861.28 13.4759C860.685 14.9578 860.342 16.8102 860.25 19.033C860.159 20.6072 860.09 22.5059 860.044 24.7288C859.999 26.9516 859.976 29.5449 859.976 32.5087L859.838 57.3759L859.289 100.304ZM989.576 106.416C987.746 106.324 985.732 106.185 983.535 106C981.705 105.815 979.6 105.676 977.22 105.583C974.84 105.491 972.324 105.444 969.67 105.444C967.565 105.444 965.345 105.491 963.011 105.583C960.677 105.676 958.412 105.791 956.215 105.93C954.018 106.069 951.959 106.185 950.037 106.277C948.115 106.37 946.468 106.416 945.095 106.416V105.444C950.037 104.703 953.264 103.406 954.774 101.554C956.284 99.7016 956.261 96.5064 954.705 91.9685C953.881 89.8379 952.989 87.3837 952.028 84.6054C951.067 81.8266 950.129 79.1874 949.214 76.6868C948.207 73.723 947.154 70.7592 946.056 67.7955L929.581 67.5177L913.793 67.7955C912.42 71.4075 911.185 74.7417 910.086 77.7978C909.079 80.3911 908.164 82.8457 907.341 85.1608C906.517 87.4764 906.013 89.0047 905.83 89.7456C905.373 91.2275 904.938 92.663 904.526 94.0522C904.114 95.4413 903.908 96.5991 903.908 97.5251C903.908 98.9147 904.228 100.096 904.869 101.068C905.51 102.041 906.334 102.827 907.341 103.43C908.347 104.032 909.468 104.495 910.704 104.819C911.939 105.143 913.153 105.351 914.342 105.444V106.416L895.945 105.444C895.763 105.444 894.847 105.491 893.2 105.583C891.552 105.676 889.653 105.791 887.502 105.93C885.351 106.069 883.269 106.185 881.256 106.277C879.242 106.37 877.778 106.416 876.862 106.416V105.444C879.883 104.888 882.4 104.194 884.413 103.36C886.427 102.527 888.166 101.438 889.63 100.095C891.095 98.7526 892.376 97.0623 893.474 95.0245C894.573 92.9871 895.717 90.4866 896.907 87.5228C897.456 86.1336 898.371 83.841 899.652 80.6459C900.933 77.4507 902.467 73.6996 904.251 69.393C906.036 65.0865 907.958 60.4094 910.018 55.3619C912.077 50.3139 914.159 45.2434 916.264 40.1495C921.115 28.2944 926.469 15.2356 932.327 0.972656H933.425L969.806 88.0783C971.729 92.8017 974.268 96.7613 977.426 99.9564C980.584 103.152 984.634 104.981 989.576 105.444V106.416ZM930.13 26.8125C930.039 26.6275 929.947 26.3498 929.856 25.9793C929.764 25.6088 929.627 25.4233 929.444 25.4233C929.169 25.4233 929.032 25.6088 929.032 25.9793L915.303 62.5161L929.169 62.933L944.408 62.5161L930.13 26.8125Z" fill="#EAECF0"/>
<path d="M1060.69 78.4925C1060.69 83.4937 1059.71 87.8695 1057.76 91.6206C1055.82 95.3717 1053.23 98.4742 1050.01 100.929C1046.78 103.383 1043.07 105.212 1038.86 106.416C1034.65 107.62 1030.31 108.222 1025.82 108.222C1020.88 108.222 1016.07 107.273 1011.41 105.374C1006.74 103.476 1002.48 100.905 998.638 97.6639C999.004 94.2369 999.278 91.0417 999.461 88.078C999.645 85.1142 999.827 81.5949 1000.01 77.5197H1000.97C1001.7 86.2255 1004.4 92.755 1009.07 97.1084C1013.74 101.461 1019.78 103.638 1027.19 103.638C1029.94 103.638 1032.46 103.128 1034.74 102.11C1037.03 101.091 1039 99.7476 1040.65 98.0807C1042.3 96.4134 1043.55 94.4916 1044.42 92.3152C1045.29 90.1387 1045.73 87.8465 1045.73 85.4387C1045.73 83.2159 1045.45 81.2478 1044.9 79.5341C1044.35 77.8208 1043.49 76.1769 1042.3 74.6023C1041.11 73.0281 1039.55 71.4071 1037.63 69.7402C1035.71 68.0728 1033.42 66.2668 1030.76 64.3217C1027.56 62.0066 1024.29 59.7145 1020.95 57.4453C1017.61 55.1761 1014.59 52.7219 1011.89 50.0822C1009.19 47.4426 1006.99 44.4558 1005.3 41.1215C1003.6 37.7872 1002.76 33.8512 1002.76 29.3128C1002.76 25.7008 1003.49 22.3436 1004.95 19.2412C1006.42 16.1383 1008.5 13.4522 1011.2 11.1835C1013.9 8.91427 1017.15 7.10828 1020.95 5.76549C1024.75 4.42223 1028.98 3.75104 1033.65 3.75104C1035.29 3.75104 1037.12 3.84333 1039.14 4.0288C1041.15 4.2138 1043.19 4.51499 1045.25 4.93183C1047.31 5.34867 1049.3 5.9041 1051.22 6.59868C1053.14 7.29326 1054.83 8.10397 1056.3 9.02991C1056.21 12.2714 1056.28 15.5593 1056.5 18.8936C1056.73 22.2278 1056.94 25.5157 1057.12 28.7572L1055.89 29.1741C1055.25 24.9139 1054.13 21.3712 1052.52 18.5461C1050.92 15.7214 1049.07 13.4756 1046.96 11.8083C1044.86 10.1414 1042.64 8.96067 1040.3 8.26609C1037.97 7.57151 1035.8 7.22395 1033.78 7.22395C1031.4 7.22395 1029.18 7.68719 1027.12 8.61313C1025.07 9.53955 1023.28 10.7666 1021.77 12.2949C1020.26 13.8227 1019.07 15.6521 1018.2 17.7822C1017.33 19.9123 1016.9 22.1351 1016.9 24.4507C1016.9 26.3953 1017.22 28.1555 1017.86 29.7296C1018.5 31.3043 1019.46 32.8324 1020.72 34.3143C1022 35.7962 1023.53 37.2781 1025.32 38.76C1027.1 40.2414 1029.16 41.8161 1031.54 43.4835C1034.74 45.8913 1038.04 48.2533 1041.47 50.5684C1044.88 52.884 1048.04 55.4074 1050.9 58.1398C1053.78 60.8718 1056.14 63.882 1057.95 67.1698C1059.78 70.4577 1060.69 74.2318 1060.69 78.4925ZM1164.35 26.6735L1163.25 26.3954C1163.61 20.8388 1162.63 17.0646 1160.29 15.0732C1157.96 13.0817 1154.19 12.0401 1148.97 11.9474L1126.59 11.6696L1126.45 71.5462V77.7974C1126.45 80.7612 1126.45 83.7714 1126.45 86.8279C1126.45 89.8839 1126.54 92.1995 1126.73 93.7742C1126.91 95.7188 1127.28 97.3627 1127.83 98.706C1128.38 100.049 1129.27 101.16 1130.5 102.04C1131.74 102.92 1133.41 103.638 1135.51 104.193C1137.62 104.749 1140.32 105.166 1143.61 105.444V106.416C1142.15 106.323 1140.39 106.231 1138.33 106.138C1136.27 106.046 1134.1 105.976 1131.81 105.93C1129.52 105.884 1127.28 105.837 1125.08 105.791C1122.88 105.744 1120.92 105.722 1119.18 105.722C1117.53 105.722 1115.65 105.744 1113.55 105.791C1111.44 105.837 1109.32 105.907 1107.16 105.999C1105.01 106.092 1102.91 106.161 1100.85 106.208C1098.79 106.254 1097.03 106.323 1095.56 106.416V105.582C1098.13 105.212 1100.39 104.795 1102.36 104.332C1104.33 103.869 1105.97 103.198 1107.3 102.318C1108.63 101.438 1109.64 100.257 1110.32 98.7753C1111.01 97.2934 1111.4 95.3019 1111.49 92.8013C1111.58 90.9489 1111.65 88.055 1111.69 84.1189C1111.74 80.1823 1111.76 75.9914 1111.76 71.5462V35.9813C1111.76 33.2957 1111.74 30.5169 1111.69 27.6458C1111.65 24.7748 1111.63 22.1352 1111.63 19.7273V11.6696L1089.39 11.9474C1086.64 11.9474 1084.42 12.1787 1082.73 12.6419C1081.03 13.1051 1079.59 13.869 1078.4 14.934C1077.21 15.9991 1076.11 17.3653 1075.11 19.0327C1074.1 20.6996 1072.91 22.737 1071.54 25.1453L1070.58 24.4507C1070.58 24.1729 1070.85 22.8068 1071.4 20.3526C1071.95 17.8979 1072.59 15.1888 1073.32 12.2251C1074.15 8.8908 1075.11 5.09386 1076.21 0.833658L1077.03 0C1077.76 1.38916 1078.77 2.4542 1080.05 3.19515C1081.33 3.93609 1082.68 4.51499 1084.1 4.93183C1085.52 5.34867 1086.98 5.62638 1088.49 5.76549C1090 5.90412 1091.31 5.97341 1092.41 5.97341L1119.73 6.66852L1151.17 5.97341C1154.37 5.88115 1156.93 5.71911 1158.85 5.48726C1160.78 5.2559 1162.33 4.90841 1163.52 4.44568C1164.71 3.98247 1165.58 3.44985 1166.13 2.84801C1166.68 2.2457 1167.18 1.52823 1167.64 0.694544L1168.74 1.24997L1164.35 26.6735ZM1285.85 54.5972C1285.85 62.3771 1284.47 69.6012 1281.73 76.2697C1278.98 82.9377 1275.14 88.7032 1270.19 93.5657C1265.25 98.4277 1259.39 102.225 1252.62 104.958C1245.85 107.69 1238.48 109.056 1230.52 109.056C1222.28 109.056 1214.84 107.62 1208.21 104.749C1201.57 101.878 1195.92 98.0343 1191.25 93.2182C1186.59 88.402 1182.99 82.799 1180.48 76.4082C1177.96 70.0179 1176.7 63.3494 1176.7 56.4032C1176.7 49.7346 1177.91 43.2287 1180.34 36.8843C1182.76 30.5404 1186.31 24.8905 1190.98 19.9357C1195.65 14.9805 1201.41 10.975 1208.28 7.91849C1215.14 4.86245 1223.01 3.33426 1231.89 3.33426C1239.67 3.33426 1246.86 4.53787 1253.45 6.94619C1260.04 9.35402 1265.73 12.781 1270.54 17.2267C1275.34 21.6719 1279.09 27.044 1281.8 33.3416C1284.49 39.6396 1285.85 46.725 1285.85 54.5972ZM1234.36 104.193C1238.3 104.193 1242.21 103.29 1246.1 101.484C1249.99 99.6783 1253.45 96.9 1256.47 93.1255C1259.49 89.3748 1261.96 84.5587 1263.88 78.6545C1265.8 72.7733 1266.76 65.7578 1266.76 57.5839C1266.76 50.6377 1265.85 44.1317 1264.02 38.1114C1262.19 32.0682 1259.6 26.8356 1256.26 22.3899C1252.92 17.9442 1248.91 14.4016 1244.25 11.8083C1239.58 9.21544 1234.45 7.91849 1228.87 7.91849C1224.11 7.91849 1219.72 8.96063 1215.69 11.0444C1211.66 13.1281 1208.16 16.1153 1205.19 20.028C1202.21 23.9182 1199.9 28.688 1198.25 34.3607C1196.61 40.0101 1195.78 46.3546 1195.78 53.4165C1195.78 60.5477 1196.72 67.2162 1198.6 73.3752C1200.47 79.5341 1203.08 84.9291 1206.42 89.5135C1209.76 94.0982 1213.81 97.7103 1218.57 100.304C1223.33 102.897 1228.6 104.193 1234.36 104.193ZM1437 106.416C1435.08 106.323 1433.02 106.208 1430.82 106.069C1428.63 105.93 1426.45 105.814 1424.3 105.722C1422.15 105.629 1420.05 105.56 1417.99 105.513C1415.93 105.467 1414.07 105.444 1412.43 105.444C1408.12 105.444 1404.1 105.536 1400.34 105.722C1396.59 105.907 1392.79 106.138 1388.95 106.416V105.444C1391.51 105.073 1393.71 104.656 1395.54 104.193C1397.37 103.73 1398.88 103.059 1400.07 102.179C1401.26 101.299 1402.15 100.118 1402.75 98.6362C1403.34 97.1543 1403.68 95.1633 1403.78 92.6628C1403.87 91.3659 1403.75 88.8887 1403.43 85.2303C1403.11 81.572 1402.72 77.566 1402.27 73.2131C1401.81 68.8602 1401.33 64.5072 1400.82 60.1543C1400.32 55.8013 1399.93 52.2817 1399.66 49.5961C1399.57 48.3919 1399.41 46.8407 1399.18 44.9419C1398.95 43.0432 1398.72 41.145 1398.49 39.2463C1398.26 37.3475 1398.06 35.6108 1397.87 34.0362C1397.69 32.4621 1397.6 31.397 1397.6 30.8411H1397.05C1394.49 36.3982 1392.47 40.8438 1391.01 44.1781C1389.54 47.5124 1388.29 50.4298 1387.23 52.9303C1386.18 55.4309 1385.1 57.8851 1384.01 60.2929C1382.91 62.7012 1381.47 65.7807 1379.68 69.5318C1377.9 73.2824 1375.59 78.0757 1372.75 83.9105C1369.91 89.7453 1366.2 97.2934 1361.63 106.555H1360.67C1355.36 94.6073 1349.87 82.7757 1344.19 71.0596C1338.52 59.3441 1333.07 47.5123 1327.86 35.5644H1327.44L1325.52 49.1792C1324.97 53.0689 1324.35 57.3526 1323.67 62.0296C1322.98 66.7067 1322.27 71.1294 1321.54 75.2968C1320.99 78.6311 1320.49 81.919 1320.03 85.1605C1319.57 88.402 1319.3 90.8104 1319.21 92.3845C1319.11 94.0519 1319.28 95.6031 1319.69 97.0386C1320.1 98.4741 1320.9 99.7476 1322.09 100.859C1323.28 101.97 1324.93 102.92 1327.03 103.707C1329.14 104.494 1331.84 105.027 1335.13 105.305V106.416C1333.03 106.231 1329.96 106.046 1325.93 105.861C1321.91 105.675 1317.83 105.582 1313.71 105.582C1309.69 105.582 1306.1 105.675 1302.94 105.861C1299.78 106.046 1297.15 106.231 1295.04 106.416V105.444C1297.42 105.073 1299.57 104.517 1301.5 103.776C1303.42 103.036 1305.11 101.924 1306.58 100.442C1308.04 98.9603 1309.28 97.0621 1310.28 94.7465C1311.29 92.4309 1312.11 89.4671 1312.75 85.8551L1322.64 27.6458C1322 26.1639 1321.4 24.7284 1320.85 23.3393C1320.4 22.2278 1319.94 21.093 1319.48 19.9357C1319.02 18.7779 1318.66 17.9213 1318.38 17.3654C1316.74 13.8461 1314.65 11.2757 1312.14 9.65518C1309.62 8.03418 1306.62 6.99262 1303.14 6.5294V5.5571C1304.06 5.64936 1305.18 5.71912 1306.51 5.76549C1307.83 5.81138 1309.21 5.85777 1310.63 5.90414C1312.04 5.95051 1313.39 5.97341 1314.68 5.97341C1315.96 5.97341 1317.06 5.97341 1317.97 5.97341C1320.35 5.97341 1322.66 5.95051 1324.9 5.90414C1327.15 5.85777 1329.09 5.7421 1330.74 5.5571C1333.58 11.8547 1336.41 18.3841 1339.25 25.1453C1342.09 31.9061 1344.95 38.6903 1347.83 45.4979C1350.71 52.3051 1353.57 59.0893 1356.41 65.85C1359.25 72.6113 1362.04 79.0943 1364.79 85.2996C1367.9 79.0943 1371.06 72.6577 1374.26 65.9891C1377.46 59.3206 1380.64 52.5828 1383.8 45.7757C1386.96 38.968 1390.12 32.1842 1393.27 25.423C1396.43 18.6622 1399.57 12.0401 1402.68 5.5571C1403.41 5.64936 1404.3 5.71912 1405.35 5.76549C1406.41 5.81138 1407.51 5.85777 1408.65 5.90414C1409.79 5.95051 1410.89 5.99688 1411.94 6.04325C1413 6.08962 1413.89 6.11253 1414.62 6.11253C1417.09 6.11253 1419.31 6.06615 1421.28 5.97341C1423.25 5.88115 1425.06 5.7421 1426.7 5.5571V6.5294C1423.87 6.80714 1421.53 7.201 1419.7 7.7101C1417.87 8.21968 1416.38 8.93724 1415.24 9.86366C1414.1 10.7896 1413.25 11.9937 1412.7 13.4756C1412.15 14.9575 1411.83 16.8099 1411.74 19.0327C1411.74 19.4032 1411.76 20.0743 1411.81 21.0471C1411.85 22.0195 1411.92 22.7833 1412.01 23.3393C1412.47 27.7849 1413.02 32.6006 1413.66 37.7872C1414.3 42.9739 1414.92 48.0448 1415.51 52.9996C1416.11 57.9544 1416.66 62.4928 1417.16 66.6144C1417.67 70.7355 1418.05 73.9077 1418.33 76.1306C1418.6 78.8166 1418.88 81.3636 1419.15 83.7714C1419.34 85.8092 1419.54 87.7773 1419.77 89.6755C1420 91.5743 1420.21 92.8941 1420.39 93.6351C1420.75 95.5802 1421.19 97.2241 1421.69 98.5669C1422.2 99.9097 1423.04 101.021 1424.23 101.901C1425.42 102.781 1427.02 103.499 1429.04 104.054C1431.05 104.61 1433.71 105.027 1437 105.305V106.416Z" fill="#EAECF0"/>
</svg>
