<svg width="124" height="97" viewBox="0 0 124 97" fill="none" xmlns="http://www.w3.org/2000/svg">
<g filter="url(#filter0_b_518_2229)">
<path d="M105.917 44.9364C101.629 44.9364 97.7319 48.0623 89.547 48.0623C75.9054 48.0623 67.3308 39.0754 67.3308 25.009C67.3308 10.5519 78.244 1.17426 93.0548 1.17426C110.594 1.17426 122.287 14.4592 122.287 35.1681C122.287 67.2083 103.188 90.2615 69.6693 95.3411L68.8898 91.4337C94.224 87.5264 111.763 71.1156 111.763 52.3604C111.763 46.4994 108.645 44.9364 105.917 44.9364ZM39.6579 44.9364C35.3706 44.9364 31.473 48.0623 23.2881 48.0623C9.64659 48.0623 1.0719 39.0754 1.0719 25.009C1.0719 10.5519 11.9851 1.17426 26.7959 1.17426C44.335 1.17426 56.0278 14.4592 56.0278 35.1681C56.0278 67.2083 36.9296 90.2615 3.41047 95.3411L2.63094 91.4337C27.9652 87.5264 45.5043 71.1156 45.5043 52.3604C45.5043 46.4994 42.3862 44.9364 39.6579 44.9364Z" fill="white" fill-opacity="0.1"/>
<path d="M69.179 95.4389L69.2723 95.9069L69.7442 95.8354C86.6029 93.2806 99.8723 86.1986 108.926 75.6912C117.98 65.1841 122.787 51.2895 122.787 35.1681C122.787 24.7222 119.837 16.0984 114.626 10.0781C109.409 4.051 101.959 0.674255 93.0548 0.674255C85.5447 0.674255 78.988 3.05261 74.3029 7.29976C69.6131 11.5511 66.8308 17.647 66.8308 25.009C66.8308 32.1438 69.007 38.0407 72.9628 42.157C76.9207 46.2755 82.6131 48.5623 89.547 48.5623C93.7094 48.5623 96.7836 47.766 99.3408 46.9771C99.7584 46.8483 100.159 46.7209 100.547 46.5978C102.556 45.9591 104.201 45.4364 105.917 45.4364C107.19 45.4364 108.508 45.8004 109.509 46.8036C110.508 47.8049 111.263 49.516 111.263 52.3604C111.263 70.7718 94.0142 87.0529 68.8136 90.9396L68.2972 91.0192L68.3994 91.5316L69.179 95.4389ZM2.92014 95.4389L3.01351 95.9069L3.48538 95.8354C20.344 93.2806 33.6135 86.1986 42.6676 75.6912C51.7215 65.1841 56.5278 51.2895 56.5278 35.1681C56.5278 24.7222 53.5783 16.0984 48.3671 10.0781C43.15 4.051 35.7003 0.674255 26.7959 0.674255C19.2859 0.674255 12.7292 3.05261 8.04405 7.29976C3.35427 11.5511 0.571899 17.647 0.571899 25.009C0.571899 32.1438 2.74812 38.0407 6.70393 42.157C10.6619 46.2755 16.3542 48.5623 23.2881 48.5623C27.4506 48.5623 30.5247 47.766 33.082 46.9771C33.4996 46.8483 33.9004 46.7209 34.2878 46.5978C36.2974 45.9591 37.9422 45.4364 39.6579 45.4364C40.9313 45.4364 42.2495 45.8004 43.2502 46.8036C44.249 47.8049 45.0043 49.516 45.0043 52.3604C45.0043 70.7718 27.7554 87.0529 2.55472 90.9396L2.03838 91.0192L2.1406 91.5316L2.92014 95.4389Z" stroke="white"/>
</g>
<defs>
<filter id="filter0_b_518_2229" x="-5.9281" y="-5.82568" width="135.215" height="108.299" filterUnits="userSpaceOnUse" color-interpolation-filters="sRGB">
<feFlood flood-opacity="0" result="BackgroundImageFix"/>
<feGaussianBlur in="BackgroundImageFix" stdDeviation="3"/>
<feComposite in2="SourceAlpha" operator="in" result="effect1_backgroundBlur_518_2229"/>
<feBlend mode="normal" in="SourceGraphic" in2="effect1_backgroundBlur_518_2229" result="shape"/>
</filter>
</defs>
</svg>
