<svg width="14" height="14" viewBox="0 0 14 14" fill="none" xmlns="http://www.w3.org/2000/svg">
<path fill-rule="evenodd" clip-rule="evenodd" d="M7.23839 0.925415C5.98852 0.925415 4.76672 1.29604 3.7275 1.99043C2.68827 2.68482 1.87829 3.67178 1.39999 4.82651C0.921683 5.98124 0.796537 7.25187 1.04037 8.47772C1.28421 9.70357 1.88608 10.8296 2.76987 11.7134C3.65366 12.5972 4.77968 13.199 6.00553 13.4429C7.23138 13.6867 8.50201 13.5616 9.65674 13.0833C10.8115 12.605 11.7984 11.795 12.4928 10.7558C13.1872 9.71653 13.5578 8.49473 13.5578 7.24486C13.5578 6.41498 13.3944 5.59322 13.0768 4.82651C12.7592 4.0598 12.2937 3.36315 11.7069 2.77634C11.1201 2.18952 10.4234 1.72404 9.65674 1.40645C8.89003 1.08887 8.06827 0.925415 7.23839 0.925415ZM9.46916 9.47562C9.42524 9.51972 9.37304 9.55472 9.31557 9.57859C9.25809 9.60247 9.19646 9.61476 9.13423 9.61476C9.07199 9.61476 9.01036 9.60247 8.95289 9.57859C8.89541 9.55472 8.84321 9.51972 8.7993 9.47562L6.90346 7.57979C6.85935 7.53588 6.82436 7.48369 6.8005 7.42621C6.77664 7.36873 6.76439 7.3071 6.76443 7.24486V4.08514C6.76443 3.95944 6.81437 3.83888 6.90325 3.75C6.99214 3.66111 7.11269 3.61118 7.23839 3.61118C7.36409 3.61118 7.48465 3.66111 7.57353 3.75C7.66242 3.83888 7.71235 3.95944 7.71235 4.08514V7.04832L9.46916 8.80576C9.51318 8.84972 9.54811 8.90193 9.57193 8.9594C9.59576 9.01687 9.60803 9.07848 9.60803 9.14069C9.60803 9.20291 9.59576 9.26451 9.57193 9.32198C9.54811 9.37945 9.51318 9.43166 9.46916 9.47562Z" fill="#27272A"/>
</svg>
