<svg width="16" height="11" viewBox="0 0 16 11" fill="none" xmlns="http://www.w3.org/2000/svg">
<path d="M10.8422 5.32252L15.9552 8.55492V1.95362L10.8422 5.32252ZM0.788574 1.95362V8.55492L5.90164 5.32252L0.788574 1.95362ZM15.0073 0.03125H1.73649C1.26348 0.03125 0.888105 0.383875 0.817012 0.837927L8.37191 5.81544L15.9268 0.837927C15.8557 0.383875 15.4803 0.03125 15.0073 0.03125ZM9.97389 5.89506L8.63258 6.77852C8.55517 6.82937 8.46453 6.8564 8.37191 6.85625C8.28091 6.85625 8.19086 6.83066 8.11123 6.77852L6.76993 5.89411L0.818908 9.65829C0.891897 10.1086 1.26538 10.4583 1.73649 10.4583H15.0073C15.4784 10.4583 15.8519 10.1086 15.9249 9.65829L9.97389 5.89506Z" fill="#27272A"/>
</svg>
