<svg width="16" height="16" viewBox="0 0 16 16" fill="none" xmlns="http://www.w3.org/2000/svg">
<path fill-rule="evenodd" clip-rule="evenodd" d="M15.0557 14.002C14.955 14.1024 14.8336 14.2308 14.7048 14.3666C14.3834 14.7076 13.982 15.1316 13.7304 15.3035C12.4066 16.2081 10.6355 15.7753 9.38274 15.2533C7.73014 14.5647 5.9309 13.2955 4.31539 11.6798C2.69836 10.064 1.42928 8.26418 0.740703 6.61252C0.219349 5.35949 -0.214412 3.58807 0.690345 2.26395C0.862155 2.01216 1.28709 1.61134 1.62769 1.28938C1.76395 1.16099 1.89133 1.03969 1.99204 0.939298C2.17085 0.761379 2.41283 0.661499 2.66508 0.661499C2.91732 0.661499 3.15931 0.761379 3.33811 0.939298L5.7739 3.37438C5.95173 3.55318 6.05154 3.79509 6.05154 4.04726C6.05154 4.29943 5.95173 4.54135 5.7739 4.72015L5.11036 5.38236C4.88876 5.60234 4.74412 5.88799 4.69795 6.19681C4.65179 6.50562 4.70658 6.82109 4.85416 7.09625C5.76682 8.81881 7.1758 10.2275 8.8985 11.1399C9.17361 11.2874 9.48901 11.3422 9.79774 11.2959C10.1065 11.2497 10.392 11.105 10.6118 10.8833L11.2737 10.2211C11.4525 10.0431 11.6945 9.94326 11.9468 9.94326C12.199 9.94326 12.441 10.0431 12.6198 10.2211L15.0557 12.6566C15.2336 12.8353 15.3334 13.0772 15.3334 13.3293C15.3334 13.5814 15.2336 13.8233 15.0557 14.002Z" fill="#27272A"/>
</svg>
