<svg width="105" height="105" viewBox="0 0 105 105" fill="none" xmlns="http://www.w3.org/2000/svg">
<path fill-rule="evenodd" clip-rule="evenodd" d="M0 82.6943V60.6514H12.2V0H60.9543C61.4368 0 62.7029 0.0296364 64.73 0.0875549C66.808 0.146923 69.083 0.354351 71.5529 0.707195L71.5572 0.707809C79.1833 1.83104 85.4889 4.35366 90.4203 8.32106C95.3812 12.2075 99.0309 17.1157 101.36 23.0292C103.677 28.9094 104.829 35.3387 104.829 42.3057C104.829 53.1077 102.111 62.0545 96.5988 69.0651C91.1109 76.1193 82.7112 80.3931 71.5529 81.9871C69.083 82.3399 66.808 82.5474 64.73 82.6067C62.7029 82.6647 61.4368 82.6943 60.9543 82.6943H37.9029V91.5H78.6857V111.8H37.9029V127.486H12.2V111.8H0V91.5H12.2V82.6943H0ZM13.2 81.6943V92.5H1V110.8H13.2V126.486H36.9029V110.8H77.6857V92.5H36.9029V81.6943H60.9543C61.4191 81.6943 62.6681 81.6652 64.7014 81.6072C66.7348 81.549 68.9714 81.3457 71.4114 80.9972C82.3914 79.4286 90.5248 75.2457 95.8114 68.4486C101.156 61.6514 103.829 52.9371 103.829 42.3057C103.829 35.4505 102.696 29.1471 100.43 23.3957C98.1643 17.6443 94.6205 12.8805 89.7986 9.10428C85.0348 5.27 78.9057 2.80095 71.4114 1.69715C68.9714 1.34857 66.7348 1.14524 64.7014 1.08715C62.6681 1.02905 61.4191 1 60.9543 1H13.2V61.6514H1V81.6943H13.2ZM36.9029 23.1343V61.6514H59.9086C60.78 61.6514 61.8838 61.6224 63.22 61.5643C64.6143 61.4481 66.1829 61.1286 67.9257 60.6057C72.2829 59.2695 75.3619 57.0619 77.1629 53.9829C79.0219 50.9038 79.9514 47.2438 79.9514 43.0029C79.9514 40.5629 79.6029 38.0357 78.9057 35.4214C78.2667 32.8071 77.0757 30.4833 75.3329 28.45C73.59 26.3586 71.121 24.8772 67.9257 24.0057C66.3571 23.541 64.7886 23.2795 63.22 23.2214C61.6514 23.1633 60.5476 23.1343 59.9086 23.1343H36.9029ZM63.1564 60.5661C64.459 60.4558 65.9501 60.1542 67.6354 59.6488C71.8201 58.3649 74.658 56.2847 76.2997 53.478L76.3067 53.4659C78.0559 50.5689 78.9514 47.0946 78.9514 43.0029C78.9514 40.6587 78.6166 38.2183 77.9395 35.6791L77.9368 35.669L77.9343 35.6589C77.3324 33.1963 76.2138 31.0143 74.5736 29.1008L74.5646 29.0903C72.979 27.1876 70.7037 25.7999 67.6626 24.9705L67.6521 24.9676L67.6416 24.9645C66.15 24.5226 64.6644 24.2756 63.183 24.2207C61.6142 24.1626 60.5271 24.1343 59.9086 24.1343H37.9029V60.6514H59.9086C60.7557 60.6514 61.8371 60.6233 63.1564 60.5661Z" fill="url(#paint0_linear_552_2444)"/>
<defs>
<linearGradient id="paint0_linear_552_2444" x1="34" y1="-29.5" x2="52" y2="102" gradientUnits="userSpaceOnUse">
<stop stop-color="white"/>
<stop offset="1" stop-color="#27272A"/>
</linearGradient>
</defs>
</svg>
