<svg width="357" height="48" viewBox="0 0 357 48" fill="none" xmlns="http://www.w3.org/2000/svg">
<path d="M13.6112 36.8372V11.6535H10.072V10.9084H22.7384C24.4273 10.9084 26.3396 11.312 28.4756 12.1191C30.6114 12.9263 32.4617 14.3233 34.0264 16.3102C35.5911 18.2971 36.3734 20.9049 36.3734 24.1336C36.3486 27.7597 35.4545 30.5661 33.6911 32.553C31.9278 34.5399 29.9905 35.8562 27.8795 36.502C25.7684 37.1477 24.0547 37.4706 22.7384 37.4706H10.072V36.8372H13.6112ZM19.0875 36.5392H21.1365C22.8502 36.5392 24.3093 36.3529 25.5138 35.9804C26.7184 35.6079 27.805 34.5088 28.7736 32.6834C29.7422 30.858 30.2265 28.008 30.2265 24.1336C30.301 19.2409 29.5559 15.9812 27.9913 14.3544C26.4266 12.7276 24.39 11.9142 21.8816 11.9142H19.0875V36.5392ZM56.1926 18.8062H55.1867C53.8207 13.988 51.3247 11.4672 47.6986 11.2437C45.9353 11.1443 44.5507 11.579 43.5448 12.5476C42.5389 13.5162 42.0733 14.609 42.1478 15.8259C42.2968 16.9187 42.7625 17.7383 43.5448 18.2847C44.3272 18.8311 45.3268 19.2657 46.5438 19.5886C47.0405 19.7376 48.2947 20.1226 50.3064 20.7435C52.6162 21.4141 54.5285 22.3702 56.0436 23.612C57.5586 24.8538 58.2788 26.8904 58.2043 29.7217C58.1298 32.0066 57.304 33.9811 55.7269 35.6451C54.1498 37.3091 51.8835 38.1039 48.928 38.0294C47.0902 37.9549 45.2275 37.5823 43.3399 36.9117C42.6942 36.6634 42.185 36.4523 41.8125 36.2784C41.5145 36.0301 41.1792 35.9432 40.8066 36.0176C40.4838 36.0176 40.1857 36.1418 39.9125 36.3902C39.6393 36.6386 39.4655 36.9614 39.391 37.3588L38.4224 37.3216L38.6459 28.7531H39.6517C40.223 31.3361 41.3841 33.3602 43.135 34.8255C44.886 36.2909 46.817 37.0856 48.928 37.2098C50.9397 37.2843 52.492 36.8497 53.5848 35.9059C54.6776 34.9621 55.2488 33.8321 55.2985 32.5158C55.3481 30.6034 54.3796 29.0387 52.3927 27.8217C51.3992 27.2505 49.9836 26.7786 48.1457 26.4061C45.4882 25.7603 43.3089 24.8663 41.6076 23.7238C39.9063 22.5813 39.0929 20.6317 39.1674 17.8749C39.242 15.5155 40.1361 13.6528 41.8497 12.2868C43.5634 10.9208 45.5007 10.2378 47.6614 10.2378C49.1516 10.2378 50.7659 10.6725 52.5044 11.5417C53.0508 11.8646 53.4358 12.026 53.6593 12.026C54.4541 12.026 55.0129 11.6907 55.3357 11.0202H56.3788L56.1926 18.8062Z" fill="#27272A"/>
<path fill-rule="evenodd" clip-rule="evenodd" d="M65.2638 1.88599L23.865 0.760228L67.1408 0L66.6914 33.3182L65.2638 1.88599Z" fill="#27272A"/>
<path fill-rule="evenodd" clip-rule="evenodd" d="M1.87696 45.7817L43.2758 46.9075L0 47.6677L0.449379 14.3496L1.87696 45.7817Z" fill="#27272A"/>
<path d="M107.689 13.4095C107.689 14.9909 107.397 16.3873 106.812 17.5991C106.228 18.8109 105.437 19.8292 104.44 20.6542C103.444 21.4793 102.279 22.1023 100.947 22.5235C99.615 22.9446 98.2099 23.1551 96.7317 23.1551L91.5754 22.8715C91.3347 22.8715 91.021 22.8715 90.6343 22.8715C90.2476 22.8715 89.8394 22.8758 89.4097 22.8843C88.98 22.8929 88.5632 22.9016 88.1593 22.9102C87.7554 22.9188 87.4159 22.9316 87.1409 22.9488V22.7426C87.6221 22.6738 88.0519 22.5965 88.43 22.5105C88.8082 22.4246 89.1261 22.2957 89.3839 22.1238C89.6417 21.952 89.8394 21.7285 89.9769 21.4535C90.1144 21.1785 90.2003 20.8175 90.2347 20.3706C90.2519 20.13 90.2605 19.7991 90.2605 19.378C90.2605 18.9569 90.2647 18.4886 90.2733 17.973C90.282 17.4573 90.2863 16.9116 90.2863 16.3358C90.2863 15.76 90.282 15.21 90.2733 14.6858C90.2647 14.1615 90.2605 13.676 90.2605 13.2291C90.2605 12.7822 90.2605 12.4213 90.2605 12.1463C90.2605 11.7337 90.2605 11.2911 90.2605 10.8185C90.2605 10.3458 90.2605 9.86454 90.2605 9.37466C90.2605 8.88479 90.2562 8.41646 90.2476 7.96952C90.239 7.52267 90.2262 7.11876 90.2089 6.75778C90.1917 6.34526 90.1144 6.0015 89.9769 5.72657C89.8394 5.45156 89.6503 5.22809 89.4097 5.05616C89.169 4.88432 88.864 4.75108 88.4945 4.6566C88.1249 4.56203 87.6995 4.48042 87.2182 4.41167V4.23123L91.6011 4.3343C92.1856 4.35151 92.8429 4.33005 93.5735 4.2699C94.304 4.20966 95.0559 4.17959 95.8294 4.17959C97.3419 4.17959 98.8115 4.33865 100.238 4.6566C101.665 4.97455 102.928 5.4945 104.028 6.21637C105.128 6.93832 106.013 7.8879 106.684 9.06531C107.354 10.2426 107.689 11.6907 107.689 13.4095ZM104.389 13.9768C104.389 12.6189 104.118 11.3856 103.577 10.2771C103.04 9.16841 102.313 8.22306 101.407 7.44105C100.496 6.65895 99.456 6.05314 98.2787 5.62341C97.1055 5.19368 95.8767 4.9789 94.5876 4.9789C94.1751 4.9789 93.8227 5.03471 93.5219 5.14648C93.2211 5.25817 93.0708 5.55465 93.0708 6.03593C93.0708 6.79221 93.0622 7.69025 93.0449 8.73015C93.0277 9.76997 93.0191 10.8743 93.0191 12.0431V15.0338C93.0191 16.1339 93.0191 17.1436 93.0191 18.0632C93.0191 18.9827 93.0277 19.6574 93.0449 20.087C93.148 20.5683 93.3071 20.955 93.5219 21.2472C93.7367 21.5394 94.0075 21.7672 94.3297 21.9305C94.6563 22.0937 95.0216 22.2054 95.4255 22.2656C95.8294 22.3258 96.259 22.3559 96.7232 22.3559C97.9736 22.3559 99.0822 22.1539 100.04 21.75C101.003 21.3461 101.802 20.7789 102.447 20.0483C103.091 19.3179 103.573 18.437 103.899 17.4057C104.226 16.3744 104.389 15.2315 104.389 13.9768ZM128.469 14.3119C128.469 14.3807 128.473 14.458 128.482 14.5439C128.491 14.6299 128.495 14.7072 128.495 14.776C128.495 15.4635 128.461 16.1424 128.392 16.8128C128.323 17.4831 128.19 18.1233 127.992 18.7335C127.795 19.3437 127.532 19.9108 127.206 20.4351C126.879 20.9593 126.458 21.4277 125.943 21.8402C125.186 22.4375 124.387 22.8414 123.545 23.0605C122.703 23.2797 121.817 23.3872 120.889 23.3872C120.374 23.3872 119.849 23.3613 119.317 23.3098C118.784 23.2625 118.264 23.1679 117.757 23.0348C117.25 22.9015 116.764 22.7211 116.3 22.4934C115.836 22.2656 115.415 21.9777 115.037 21.6339C113.868 20.6198 113.224 19.1246 113.103 17.1479C113.069 16.8214 113.047 16.4475 113.039 16.0264C113.03 15.6053 113.022 15.167 113.013 14.7115C113.004 14.256 113 13.8092 113 13.3709C113 12.9326 113 12.533 113 12.172C113 11.7595 113 11.3169 113 10.8442C113 10.3715 113 9.89461 113 9.41334C113 8.93206 113 8.46801 113 8.02115C113 7.57422 112.992 7.17031 112.974 6.80933C112.957 6.34527 112.88 5.97577 112.742 5.70075C112.605 5.42574 112.411 5.20662 112.162 5.0433C111.913 4.88007 111.604 4.75542 111.234 4.66946C110.865 4.58349 110.439 4.50624 109.958 4.43749V4.28276C110.233 4.28276 110.568 4.28702 110.963 4.29563C111.359 4.30423 111.767 4.32143 112.188 4.34716C112.609 4.37298 113.017 4.39446 113.413 4.41167C113.808 4.42888 114.152 4.43749 114.444 4.43749C114.788 4.43749 115.157 4.43313 115.552 4.42452C115.948 4.41592 116.343 4.40306 116.738 4.38585C117.134 4.36873 117.508 4.35151 117.86 4.3343C118.212 4.31709 118.517 4.29997 118.775 4.28276V4.4632C118.242 4.51474 117.796 4.58785 117.435 4.68233C117.074 4.7769 116.781 4.91014 116.558 5.08198C116.335 5.25381 116.167 5.47729 116.055 5.7523C115.944 6.02731 115.879 6.37108 115.862 6.7836C115.845 7.07582 115.832 7.42811 115.823 7.84063C115.815 8.25314 115.81 8.73442 115.81 9.28444L115.862 14.8534C115.862 15.5752 115.909 16.2756 116.004 16.9545C116.098 17.6335 116.249 18.2609 116.455 18.8366C116.661 19.4124 116.928 19.9324 117.254 20.3965C117.581 20.8605 117.985 21.2386 118.466 21.5308C118.981 21.8574 119.519 22.0851 120.077 22.214C120.636 22.3429 121.207 22.4074 121.792 22.4074C122.479 22.4074 123.141 22.2742 123.777 22.0078C124.413 21.7413 124.946 21.3847 125.375 20.9379C125.685 20.6113 125.947 20.2203 126.162 19.7648C126.377 19.3093 126.548 18.8109 126.677 18.2695C126.806 17.728 126.897 17.1608 126.948 16.5678C127 15.9749 127.025 15.3776 127.025 14.776L126.974 10.2384C126.957 9.6196 126.944 9.00082 126.935 8.38204C126.927 7.76326 126.914 7.23045 126.896 6.7836C126.879 6.31954 126.802 5.94995 126.665 5.67494C126.527 5.39992 126.334 5.18081 126.084 5.01749C125.835 4.85425 125.526 4.72962 125.156 4.64374C124.787 4.55778 124.361 4.48042 123.88 4.41167V4.25694C124.43 4.23973 125.053 4.2613 125.749 4.32145C126.445 4.38159 127.086 4.41167 127.67 4.41167C128.358 4.41167 129.036 4.39445 129.707 4.36012C130.377 4.3257 130.961 4.29136 131.46 4.25694V4.43749C130.927 4.48903 130.48 4.56203 130.119 4.6566C129.758 4.75108 129.466 4.88432 129.243 5.05616C129.019 5.22809 128.852 5.45156 128.74 5.72657C128.628 6.0015 128.564 6.34526 128.547 6.75778C128.529 7.05 128.517 7.40238 128.508 7.8149C128.499 8.22741 128.495 8.7086 128.495 9.25862V11.115C128.495 11.3384 128.491 11.5919 128.482 11.8755C128.473 12.1591 128.469 12.4427 128.469 12.7264C128.469 13.0099 128.469 13.272 128.469 13.5126C128.469 13.7533 128.469 13.9423 128.469 14.0799V14.3119ZM148.244 17.251C148.244 18.0073 148.085 18.7292 147.767 19.4167C147.449 20.1042 146.989 20.7144 146.388 21.2472C145.786 21.78 145.06 22.2012 144.209 22.5105C143.358 22.8199 142.409 22.9746 141.36 22.9746L137.467 22.7941L132.852 22.9488V22.7684C133.351 22.7168 133.785 22.648 134.154 22.5621C134.524 22.4762 134.837 22.3429 135.095 22.1625C135.353 21.982 135.551 21.75 135.688 21.4663C135.826 21.1828 135.903 20.809 135.92 20.3448C135.937 19.9839 135.946 19.4339 135.946 18.6948C135.946 17.9558 135.946 17.1651 135.946 16.3229C135.946 15.4807 135.946 14.6772 135.946 13.9123C135.946 13.1474 135.946 12.5588 135.946 12.1463C135.946 11.7337 135.946 11.2911 135.946 10.8185C135.946 10.3458 135.946 9.87315 135.946 9.40048C135.946 8.92781 135.942 8.46801 135.933 8.02115C135.924 7.57422 135.912 7.17031 135.894 6.80933C135.877 6.34527 135.804 5.97577 135.675 5.70075C135.546 5.42574 135.357 5.20228 135.108 5.03045C134.859 4.85852 134.549 4.72962 134.18 4.64374C133.81 4.55778 133.385 4.48042 132.904 4.41167V4.23123C133.832 4.23123 134.622 4.25694 135.276 4.30849C135.929 4.36012 136.505 4.38585 137.003 4.38585C137.295 4.38585 137.617 4.38158 137.97 4.37298C138.322 4.36437 138.644 4.34291 138.937 4.30849C139.28 4.27415 139.624 4.23974 139.968 4.20541C140.673 4.15387 141.407 4.18394 142.172 4.29563C142.937 4.40732 143.638 4.62219 144.273 4.94022C144.909 5.25817 145.434 5.70502 145.846 6.28086C146.259 6.85661 146.465 7.59143 146.465 8.48522C146.465 9.13833 146.336 9.70122 146.078 10.1739C145.82 10.6465 145.515 11.0462 145.163 11.3728C144.811 11.6993 144.463 11.9571 144.119 12.1463C143.775 12.3353 143.517 12.4556 143.345 12.5071V12.636C143.964 12.722 144.566 12.8767 145.15 13.1002C145.735 13.3236 146.259 13.62 146.723 13.9896C147.187 14.3591 147.556 14.8147 147.831 15.3561C148.106 15.8975 148.244 16.5292 148.244 17.251ZM145.227 17.8182C145.227 17.1307 145.09 16.5033 144.815 15.9362C144.54 15.3689 144.17 14.8791 143.706 14.4666C143.242 14.0541 142.709 13.7318 142.108 13.4998C141.506 13.2678 140.887 13.1517 140.252 13.1517H139.839V12.6619H140.252C140.784 12.6619 141.261 12.5673 141.682 12.3782C142.104 12.1892 142.456 11.927 142.739 11.5919C143.023 11.2567 143.238 10.8614 143.384 10.406C143.53 9.9505 143.603 9.45628 143.603 8.92347C143.603 8.28757 143.504 7.72894 143.307 7.24767C143.109 6.76639 142.834 6.35821 142.482 6.02305C142.129 5.68789 141.725 5.43435 141.27 5.26242C140.814 5.09058 140.329 5.00463 139.813 5.00463C139.349 5.00463 139.044 5.11206 138.898 5.32693C138.752 5.54179 138.679 5.7437 138.679 5.93274V7.22185V9.12973C138.679 9.26724 138.679 9.49496 138.679 9.813C138.679 10.1309 138.679 10.4962 138.679 10.9087C138.679 11.3212 138.679 11.7552 138.679 12.2107C138.679 12.6661 138.683 13.0916 138.692 13.4869C138.7 13.8822 138.705 14.2302 138.705 14.5311C138.705 14.8318 138.705 15.0338 138.705 15.1369C138.705 15.2744 138.705 15.5795 138.705 16.0521C138.705 16.5248 138.709 17.0319 138.718 17.5733C138.726 18.1147 138.735 18.6132 138.743 19.0687C138.752 19.5241 138.756 19.7949 138.756 19.8808C138.773 20.2589 138.825 20.5941 138.911 20.8862C138.997 21.1785 139.147 21.4234 139.362 21.6211C139.577 21.8187 139.861 21.9691 140.213 22.0722C140.565 22.1753 141.025 22.227 141.592 22.227C141.97 22.227 142.374 22.1453 142.804 21.982C143.234 21.8187 143.629 21.5609 143.99 21.2085C144.351 20.8562 144.647 20.4007 144.879 19.8421C145.111 19.2835 145.227 18.6089 145.227 17.8182ZM171.19 24.1348C169.454 24.0832 167.971 23.7825 166.742 23.2325C165.513 22.6824 164.461 21.9691 163.593 21.0925C162.72 20.2159 161.981 19.2277 161.38 18.1276C160.778 17.0276 160.224 15.9018 159.725 14.7502C159.571 14.8017 159.382 14.8448 159.158 14.8791C158.93 14.9135 158.686 14.9436 158.419 14.9693C158.153 14.9951 157.882 15.0123 157.603 15.0209C157.328 15.0295 157.078 15.0252 156.855 15.008V16.4776C156.855 17.612 156.855 18.51 156.855 19.1718C156.855 19.8336 156.872 20.3105 156.907 20.6027C156.941 20.9636 157.01 21.2687 157.113 21.518C157.216 21.7672 157.384 21.9734 157.616 22.1368C157.848 22.3 158.161 22.4332 158.557 22.5363C158.952 22.6395 159.459 22.7168 160.078 22.7684V22.9488C159.803 22.9316 159.472 22.9145 159.085 22.8973C158.699 22.8801 158.29 22.8672 157.861 22.8586C157.431 22.85 157.01 22.8414 156.602 22.8328C156.193 22.8242 155.824 22.8199 155.502 22.8199C155.196 22.8199 154.844 22.8242 154.453 22.8328C154.062 22.8414 153.662 22.8543 153.258 22.8715C152.855 22.8887 152.459 22.9016 152.073 22.9102C151.686 22.9188 151.355 22.9316 151.08 22.9488V22.7941C151.561 22.7254 151.987 22.648 152.356 22.5621C152.726 22.4762 153.031 22.3515 153.271 22.1883C153.512 22.025 153.701 21.8058 153.839 21.5308C153.976 21.2558 154.053 20.8862 154.071 20.4222C154.088 20.0784 154.096 19.5413 154.096 18.8109C154.096 18.0803 154.096 17.3026 154.096 16.4776C154.096 15.5494 154.101 14.6814 154.109 13.8736C154.118 13.0658 154.122 12.2794 154.122 11.5145C154.122 10.7497 154.118 9.98918 154.109 9.23289C154.101 8.47661 154.079 7.66879 154.045 6.80933C154.028 6.34527 153.959 5.97577 153.839 5.70075C153.718 5.42574 153.538 5.20662 153.297 5.0433C153.057 4.88007 152.756 4.75542 152.395 4.66946C152.034 4.58349 151.613 4.50624 151.131 4.43749V4.25694C152.232 4.25694 153.13 4.27415 153.826 4.30849C154.522 4.34291 155.085 4.36012 155.514 4.36012L158.505 4.28276C159.33 4.28276 160.168 4.35151 161.019 4.48902C161.87 4.62652 162.643 4.86712 163.339 5.21089C164.035 5.55465 164.607 6.03157 165.054 6.64174C165.501 7.25192 165.724 8.02967 165.724 8.975C165.724 10.0407 165.402 10.943 164.753 11.6821C164.108 12.4213 163.301 13.0744 162.338 13.6416C162.51 14.226 162.755 14.8748 163.073 15.5881C163.391 16.3014 163.773 17.0233 164.212 17.7538C164.65 18.4842 165.14 19.2018 165.672 19.9066C166.205 20.6113 166.768 21.2472 167.361 21.8145C167.954 22.3816 168.573 22.8543 169.217 23.2325C169.862 23.6106 170.52 23.834 171.19 23.9028V24.1348ZM162.862 10.0837C162.862 9.18987 162.695 8.42073 162.355 7.77622C162.02 7.13163 161.582 6.60316 161.036 6.19064C160.495 5.77812 159.872 5.47303 159.171 5.27538C158.475 5.07772 157.762 4.9789 157.036 4.9789L156.855 5.23671V9.18126L156.829 13.2806V14.3377C157.573 14.3205 158.299 14.2002 159.016 13.9768C159.734 13.7533 160.379 13.4568 160.946 13.0872C161.517 12.7178 161.977 12.2752 162.329 11.7595C162.686 11.2439 162.862 10.6852 162.862 10.0837ZM191.48 13.3322C191.48 14.776 191.222 16.1166 190.707 17.3542C190.191 18.5917 189.469 19.6616 188.541 20.564C187.613 21.4663 186.513 22.1711 185.241 22.6782C183.969 23.1852 182.585 23.4387 181.09 23.4387C179.543 23.4387 178.147 23.1723 176.901 22.6395C175.654 22.1066 174.593 21.3933 173.716 20.4995C172.84 19.6057 172.165 18.5659 171.693 17.3799C171.22 16.194 170.984 14.9564 170.984 13.6673C170.984 12.4298 171.211 11.2224 171.667 10.045C172.122 8.86767 172.788 7.81915 173.665 6.89964C174.541 5.98003 175.624 5.23669 176.913 4.66946C178.202 4.10231 179.681 3.81871 181.348 3.81871C182.809 3.81871 184.158 4.04208 185.396 4.48902C186.633 4.93587 187.703 5.57186 188.605 6.3969C189.508 7.22185 190.213 8.2188 190.72 9.38752C191.227 10.5563 191.48 11.8712 191.48 13.3322ZM181.812 22.5363C182.551 22.5363 183.286 22.3687 184.016 22.0336C184.747 21.6984 185.396 21.1828 185.963 20.4823C186.53 19.7863 186.994 18.8925 187.355 17.7968C187.716 16.7053 187.896 15.4034 187.896 13.8865C187.896 12.5974 187.725 11.39 187.381 10.2727C187.037 9.1512 186.552 8.18013 185.924 7.35509C185.297 6.53005 184.545 5.8726 183.668 5.39133C182.792 4.91015 181.829 4.66946 180.781 4.66946C179.887 4.66946 179.062 4.86286 178.306 5.24956C177.549 5.63627 176.892 6.19063 176.333 6.91676C175.775 7.63871 175.341 8.52389 175.031 9.57666C174.722 10.6251 174.567 11.8025 174.567 13.1131C174.567 14.4365 174.743 15.674 175.096 16.817C175.448 17.96 175.938 18.9612 176.565 19.812C177.193 20.6629 177.953 21.3332 178.847 21.8145C179.741 22.2957 180.729 22.5363 181.812 22.5363ZM204.165 23.1809H203.933C202.884 20.7402 201.93 18.5401 201.071 16.5807C200.71 15.7385 200.349 14.9092 199.988 14.0927C199.627 13.2763 199.296 12.5286 198.996 11.8498C198.695 11.1708 198.441 10.5993 198.235 10.1352C198.029 9.67115 197.9 9.3704 197.848 9.23289C197.78 9.07818 197.655 8.82463 197.474 8.47226C197.294 8.11998 197.105 7.75902 196.907 7.38943C196.71 7.01994 196.521 6.67617 196.34 6.35822C196.16 6.04018 196.035 5.83827 195.966 5.7523C195.571 5.30545 195.163 4.99603 194.742 4.82419C194.321 4.65226 193.783 4.52336 193.13 4.43749V4.20541C193.422 4.22262 193.762 4.24408 194.149 4.2699C194.535 4.29563 194.931 4.31709 195.335 4.3343C195.739 4.35151 196.134 4.36437 196.521 4.37298C196.907 4.38158 197.247 4.38585 197.539 4.38585C197.659 4.38585 197.874 4.38585 198.183 4.38585C198.493 4.38585 198.845 4.37724 199.241 4.36012C199.636 4.34291 200.057 4.3257 200.504 4.30849C200.951 4.29136 201.372 4.25695 201.767 4.20541V4.41167C201.578 4.46321 201.372 4.50623 201.148 4.54056C200.925 4.57498 200.723 4.63079 200.543 4.70815C200.362 4.78551 200.212 4.89294 200.091 5.03045C199.971 5.16795 199.911 5.36561 199.911 5.62341C199.911 5.82967 199.954 6.0832 200.04 6.38394C200.126 6.68476 200.263 7.0586 200.452 7.50545C200.573 7.81489 200.732 8.21446 200.929 8.70434C201.127 9.19421 201.342 9.73129 201.574 10.3157C201.806 10.9001 202.055 11.5145 202.322 12.1591C202.588 12.8036 202.85 13.4354 203.108 14.0541C203.709 15.5151 204.354 17.0878 205.041 18.7722C205.041 18.755 205.05 18.7464 205.067 18.7464C205.084 18.7464 205.102 18.7378 205.119 18.7206C205.239 18.394 205.445 17.9042 205.738 17.251C206.03 16.5979 206.369 15.8416 206.756 14.9823C207.143 14.1228 207.56 13.1775 208.006 12.1463C208.453 11.115 208.9 10.0664 209.347 9.00082C209.502 8.62272 209.656 8.25749 209.811 7.90512C209.966 7.55275 210.095 7.23044 210.198 6.93831C210.473 6.13048 210.421 5.53744 210.043 5.15934C209.665 4.78115 208.986 4.52336 208.006 4.38585V4.23123C208.556 4.1968 209.137 4.214 209.747 4.28276C210.357 4.35151 210.954 4.38585 211.539 4.38585C212.226 4.38585 212.922 4.36438 213.627 4.32145C214.332 4.27842 214.933 4.23974 215.432 4.20541V4.38585C214.813 4.4546 214.289 4.58784 213.859 4.7855C213.429 4.98315 213.06 5.2453 212.75 5.57186C212.441 5.89841 212.17 6.27225 211.938 6.69338C211.706 7.11441 211.478 7.57422 211.255 8.0727L204.165 23.1809ZM226.234 22.9488C225.959 22.9316 225.628 22.9145 225.242 22.8973C224.855 22.8801 224.447 22.8672 224.017 22.8586C223.587 22.85 223.166 22.8414 222.749 22.8328C222.333 22.8242 221.963 22.8199 221.632 22.8199C221.318 22.8199 220.966 22.8242 220.567 22.8328C220.167 22.8414 219.767 22.8543 219.363 22.8715C218.959 22.8887 218.564 22.9016 218.177 22.9102C217.791 22.9188 217.46 22.9316 217.185 22.9488V22.7941C217.666 22.7254 218.091 22.648 218.461 22.5621C218.831 22.4762 219.136 22.3515 219.376 22.1883C219.617 22.025 219.806 21.8058 219.943 21.5308C220.081 21.2558 220.158 20.8862 220.175 20.4222C220.193 20.0613 220.201 19.5069 220.201 18.7592C220.201 18.0116 220.201 17.2123 220.201 16.3616C220.201 15.5107 220.201 14.6986 220.201 13.9251C220.201 13.1517 220.201 12.5588 220.201 12.1463C220.201 11.7337 220.206 11.2911 220.214 10.8185C220.223 10.3458 220.227 9.86454 220.227 9.37466C220.227 8.88479 220.227 8.41646 220.227 7.96952C220.227 7.52267 220.218 7.11876 220.201 6.75778C220.184 6.29372 220.102 5.92424 219.956 5.64922C219.81 5.37421 219.608 5.15499 219.35 4.99176C219.093 4.82843 218.779 4.70389 218.409 4.61793C218.04 4.53196 217.615 4.4546 217.133 4.38585V4.23123C217.408 4.23123 217.743 4.23548 218.139 4.24408C218.534 4.25269 218.942 4.2699 219.363 4.29563C219.784 4.32145 220.193 4.34291 220.592 4.36012C220.992 4.37724 221.336 4.38585 221.632 4.38585C221.98 4.38585 222.35 4.38158 222.749 4.37298C223.149 4.36437 223.544 4.35151 223.94 4.3343C224.335 4.31709 224.709 4.29997 225.061 4.28276C225.414 4.26555 225.719 4.24835 225.976 4.23123V4.41167C225.444 4.46321 224.997 4.5363 224.636 4.63078C224.275 4.72535 223.983 4.85852 223.759 5.03045C223.536 5.20228 223.368 5.42574 223.256 5.70075C223.145 5.97577 223.08 6.31953 223.063 6.73205C223.046 7.02419 223.033 7.37656 223.024 7.78908C223.016 8.2016 223.011 8.68287 223.011 9.23289V17.6377C223.011 18.1877 223.011 18.7464 223.011 19.3136C223.011 19.8808 223.029 20.3105 223.063 20.6027C223.097 20.9636 223.166 21.2687 223.269 21.518C223.372 21.7672 223.54 21.9734 223.772 22.1368C224.004 22.3 224.318 22.4332 224.713 22.5363C225.108 22.6395 225.615 22.7168 226.234 22.7684V22.9488ZM248.51 21.8145C248.51 21.952 248.506 22.1066 248.497 22.2785C248.488 22.4503 248.484 22.6137 248.484 22.7684C248.467 22.9574 248.458 23.1379 248.458 23.3098L248.175 23.3872C245.854 20.998 243.706 18.7636 241.729 16.6839C240.887 15.8073 240.036 14.9178 239.177 14.0154C238.317 13.1131 237.51 12.2708 236.753 11.4888C235.997 10.7067 235.322 10.0063 234.729 9.38752C234.136 8.76883 233.677 8.28756 233.35 7.94379C233.35 8.0813 233.35 8.17578 233.35 8.22741C233.35 8.27896 233.35 8.3305 233.35 8.38204C233.35 8.43358 233.35 8.51955 233.35 8.63985C233.35 8.76023 233.35 8.95788 233.35 9.23289L233.324 13.8478L233.35 17.6377C233.35 18.1877 233.35 18.7464 233.35 19.3136C233.35 19.8808 233.367 20.3105 233.402 20.6027C233.436 20.9636 233.505 21.2687 233.608 21.518C233.711 21.7672 233.879 21.9734 234.111 22.1368C234.343 22.3 234.656 22.4332 235.052 22.5363C235.447 22.6395 235.954 22.7168 236.573 22.7684V22.9488C236.023 22.9145 235.4 22.8843 234.704 22.8586C234.007 22.8328 233.333 22.8199 232.68 22.8199C232.078 22.8199 231.412 22.8328 230.682 22.8586C229.951 22.8843 229.311 22.9145 228.761 22.9488V22.7941C229.242 22.7254 229.668 22.648 230.037 22.5621C230.407 22.4762 230.716 22.3515 230.965 22.1883C231.214 22.025 231.403 21.8058 231.532 21.5308C231.661 21.2558 231.734 20.8862 231.752 20.4222C231.769 20.0613 231.777 19.5069 231.777 18.7592C231.777 18.0116 231.777 17.2123 231.777 16.3616C231.777 15.5107 231.777 14.6986 231.777 13.9251C231.777 13.1517 231.777 12.5588 231.777 12.1463C231.777 11.7337 231.777 11.2911 231.777 10.8185C231.777 10.3458 231.777 9.86454 231.777 9.37466C231.777 8.88479 231.773 8.41646 231.764 7.96952C231.756 7.52267 231.743 7.11876 231.726 6.75778C231.709 6.29372 231.631 5.92424 231.494 5.64922C231.356 5.37421 231.163 5.15499 230.914 4.99176C230.664 4.82843 230.355 4.70389 229.985 4.61793C229.616 4.53196 229.191 4.4546 228.709 4.38585V4.23123C229.173 4.26556 229.556 4.29136 229.857 4.30849C230.157 4.3257 230.428 4.3343 230.669 4.3343C230.909 4.3343 231.137 4.33005 231.352 4.32145C231.567 4.31284 231.82 4.30849 232.112 4.30849C232.216 4.30849 232.362 4.30423 232.551 4.29563C232.74 4.28702 232.938 4.27842 233.144 4.2699C233.35 4.26129 233.543 4.25269 233.724 4.24408C233.904 4.23548 234.046 4.23123 234.149 4.23123C236.521 6.80933 238.644 9.12112 240.517 11.1665C241.308 12.0431 242.09 12.8982 242.864 13.7318C243.637 14.5654 244.329 15.3131 244.939 15.9749C245.549 16.6366 246.043 17.178 246.421 17.5991C246.8 18.0202 247.006 18.2394 247.04 18.2565H247.066C247.1 18.2565 247.118 18.2394 247.118 18.205C247.118 18.1534 247.113 17.9127 247.105 17.4831C247.096 17.0534 247.092 16.5334 247.092 15.9232C247.092 15.3131 247.088 14.6642 247.079 13.9768C247.07 13.2892 247.066 12.6705 247.066 12.1204C247.066 11.7079 247.062 11.2653 247.053 10.7927C247.044 10.32 247.04 9.84306 247.04 9.36179C247.04 8.88052 247.04 8.41646 247.04 7.96952C247.04 7.52267 247.032 7.11876 247.014 6.75778C246.997 6.29372 246.92 5.92424 246.782 5.64922C246.645 5.37421 246.452 5.15499 246.202 4.99176C245.953 4.82843 245.644 4.70389 245.274 4.61793C244.905 4.53196 244.479 4.4546 243.998 4.38585V4.23123C244.273 4.23123 244.582 4.23548 244.926 4.24408C245.27 4.25269 245.618 4.2699 245.97 4.29563C246.323 4.32145 246.671 4.34291 247.014 4.36012C247.358 4.37724 247.676 4.38585 247.968 4.38585C248.656 4.38585 249.309 4.36872 249.928 4.3343C250.547 4.29997 251.105 4.26556 251.604 4.23123V4.41167C251.071 4.46321 250.624 4.5363 250.263 4.63078C249.902 4.72535 249.61 4.85852 249.386 5.03045C249.163 5.20228 248.995 5.42574 248.884 5.70075C248.772 5.97577 248.707 6.31953 248.69 6.73205C248.673 7.02419 248.66 7.37656 248.652 7.78908C248.643 8.2016 248.639 8.68287 248.639 9.23289L248.613 13.8478L248.51 21.8145ZM272.977 22.9488C272.633 22.9316 272.255 22.9059 271.842 22.8715C271.499 22.8372 271.103 22.8113 270.656 22.7941C270.21 22.777 269.737 22.7684 269.238 22.7684C268.843 22.7684 268.426 22.777 267.988 22.7941C267.55 22.8113 267.124 22.8328 266.712 22.8586C266.299 22.8843 265.913 22.9059 265.552 22.923C265.191 22.9402 264.881 22.9488 264.623 22.9488V22.7684C265.552 22.6309 266.158 22.3902 266.441 22.0464C266.725 21.7027 266.72 21.1097 266.428 20.2675C266.274 19.8721 266.106 19.4167 265.925 18.9011C265.745 18.3854 265.569 17.8956 265.397 17.4315C265.208 16.8815 265.01 16.3315 264.804 15.7815L261.71 15.7299L258.745 15.7815C258.487 16.4518 258.255 17.0706 258.049 17.6377C257.86 18.119 257.688 18.5745 257.533 19.0042C257.379 19.4339 257.284 19.7175 257.25 19.855C257.164 20.13 257.082 20.3964 257.005 20.6542C256.928 20.912 256.889 21.1269 256.889 21.2988C256.889 21.5566 256.949 21.7758 257.069 21.9562C257.19 22.1368 257.344 22.2828 257.533 22.3945C257.723 22.5062 257.933 22.5922 258.165 22.6523C258.397 22.7125 258.625 22.7512 258.848 22.7684V22.9488L255.394 22.7684C255.359 22.7684 255.187 22.777 254.878 22.7941C254.569 22.8113 254.212 22.8328 253.808 22.8586C253.404 22.8843 253.013 22.9059 252.635 22.923C252.257 22.9402 251.982 22.9488 251.81 22.9488V22.7684C252.377 22.6652 252.85 22.5363 253.228 22.3816C253.606 22.227 253.933 22.025 254.208 21.7758C254.483 21.5266 254.723 21.2129 254.929 20.8347C255.136 20.4566 255.351 19.9925 255.574 19.4425C255.677 19.1847 255.849 18.7592 256.09 18.1663C256.33 17.5733 256.618 16.8772 256.953 16.078C257.289 15.2787 257.649 14.4108 258.036 13.474C258.423 12.5372 258.814 11.5962 259.209 10.6509C260.12 8.45079 261.126 6.02732 262.226 3.38037H262.432L269.264 19.5456C269.625 20.4222 270.102 21.157 270.695 21.75C271.288 22.3429 272.049 22.6824 272.977 22.7684V22.9488ZM261.813 8.17578C261.796 8.14145 261.779 8.08991 261.762 8.02115C261.744 7.9524 261.719 7.91797 261.684 7.91797C261.633 7.91797 261.607 7.9524 261.607 8.02115L259.029 14.8017L261.633 14.8791L264.495 14.8017L261.813 8.17578Z" fill="#27272A"/>
<path d="M286.332 17.7665C286.332 18.6946 286.147 19.5067 285.782 20.2028C285.417 20.899 284.931 21.4747 284.325 21.9303C283.719 22.3857 283.023 22.7251 282.233 22.9486C281.442 23.1721 280.625 23.2838 279.783 23.2838C278.855 23.2838 277.953 23.1076 277.076 22.7552C276.2 22.4029 275.4 21.9259 274.678 21.3244C274.747 20.6884 274.799 20.0954 274.833 19.5454C274.868 18.9954 274.902 18.3422 274.936 17.586H275.117C275.254 19.2016 275.761 20.4134 276.638 21.2213C277.514 22.0291 278.649 22.433 280.041 22.433C280.557 22.433 281.029 22.3384 281.459 22.1494C281.889 21.9603 282.258 21.7111 282.568 21.4017C282.877 21.0923 283.113 20.7356 283.277 20.3317C283.44 19.9278 283.522 19.5024 283.522 19.0556C283.522 18.6431 283.47 18.2778 283.367 17.9598C283.264 17.6418 283.101 17.3368 282.877 17.0445C282.654 16.7524 282.361 16.4516 282 16.1422C281.64 15.8328 281.21 15.4976 280.711 15.1367C280.11 14.707 279.495 14.2816 278.868 13.8605C278.241 13.4394 277.673 12.9839 277.166 12.4941C276.659 12.0042 276.247 11.4499 275.929 10.8311C275.611 10.2123 275.452 9.48187 275.452 8.63962C275.452 7.9693 275.589 7.34627 275.864 6.77052C276.139 6.19468 276.53 5.69619 277.037 5.27516C277.545 4.85403 278.155 4.51887 278.868 4.26968C279.581 4.02039 280.376 3.89583 281.253 3.89583C281.562 3.89583 281.906 3.91296 282.284 3.94738C282.662 3.98171 283.045 4.03761 283.431 4.11497C283.818 4.19232 284.192 4.2954 284.553 4.4243C284.914 4.5532 285.232 4.70366 285.507 4.8755C285.49 5.47706 285.503 6.08723 285.545 6.70601C285.588 7.32479 285.627 7.93496 285.661 8.53653L285.429 8.61389C285.309 7.82328 285.099 7.16582 284.798 6.64152C284.497 6.11731 284.149 5.70054 283.754 5.39111C283.358 5.08176 282.942 4.86264 282.503 4.73374C282.065 4.60484 281.657 4.54034 281.279 4.54034C280.832 4.54034 280.415 4.62631 280.028 4.79815C279.641 4.97008 279.306 5.1978 279.023 5.48142C278.739 5.76495 278.516 6.10444 278.352 6.49975C278.189 6.89506 278.107 7.30758 278.107 7.73731C278.107 8.0982 278.168 8.42486 278.288 8.71699C278.408 9.00921 278.589 9.29281 278.825 9.56783C279.066 9.84284 279.353 10.1179 279.689 10.3929C280.024 10.6678 280.411 10.96 280.857 11.2694C281.459 11.7163 282.078 12.1546 282.722 12.5843C283.363 13.014 283.956 13.4823 284.493 13.9894C285.034 14.4964 285.477 15.055 285.816 15.6652C286.16 16.2754 286.332 16.9758 286.332 17.7665ZM305.797 8.14983L305.591 8.09821C305.66 7.067 305.475 6.36659 305.037 5.99701C304.598 5.62743 303.889 5.43414 302.91 5.41693L298.707 5.36538L298.681 16.4774V17.6375C298.681 18.1875 298.681 18.7462 298.681 19.3134C298.681 19.8805 298.698 20.3103 298.733 20.6025C298.767 20.9634 298.836 21.2685 298.939 21.5178C299.042 21.767 299.21 21.9732 299.442 22.1365C299.674 22.2998 299.988 22.433 300.383 22.5361C300.778 22.6393 301.285 22.7165 301.904 22.7682V22.9486C301.629 22.9314 301.298 22.9143 300.911 22.8971C300.525 22.8799 300.117 22.867 299.687 22.8584C299.257 22.8498 298.836 22.8412 298.424 22.8326C298.011 22.824 297.641 22.8197 297.315 22.8197C297.005 22.8197 296.653 22.824 296.258 22.8326C295.863 22.8412 295.463 22.8541 295.059 22.8713C294.655 22.8885 294.26 22.9013 293.873 22.9099C293.486 22.9185 293.155 22.9314 292.88 22.9486V22.7939C293.362 22.7251 293.787 22.6478 294.157 22.5619C294.526 22.4759 294.836 22.3513 295.085 22.1881C295.334 22.0247 295.523 21.8056 295.652 21.5306C295.781 21.2556 295.854 20.886 295.871 20.4219C295.888 20.0782 295.901 19.5411 295.91 18.8107C295.918 18.0801 295.923 17.3023 295.923 16.4774V9.87718C295.923 9.37879 295.918 8.86308 295.91 8.33027C295.901 7.79746 295.897 7.30759 295.897 6.86074V5.36538L291.72 5.41693C291.205 5.41693 290.788 5.45986 290.47 5.54582C290.152 5.63178 289.881 5.77354 289.658 5.9712C289.434 6.16885 289.228 6.4224 289.039 6.73183C288.85 7.04117 288.626 7.41928 288.369 7.86622L288.188 7.73731C288.188 7.68577 288.24 7.43224 288.343 6.97678C288.446 6.52123 288.566 6.01848 288.704 5.46846C288.858 4.84968 289.039 4.14504 289.245 3.35442L289.4 3.19971C289.537 3.45751 289.726 3.65516 289.967 3.79267C290.208 3.93017 290.461 4.03761 290.728 4.11497C290.994 4.19232 291.269 4.24386 291.553 4.26968C291.836 4.2954 292.081 4.30826 292.287 4.30826L297.418 4.43726L303.322 4.30826C303.924 4.29114 304.405 4.26107 304.766 4.21804C305.127 4.17511 305.419 4.11062 305.642 4.02474C305.866 3.93878 306.029 3.83994 306.132 3.72825C306.235 3.61647 306.33 3.48332 306.416 3.3286L306.622 3.43168L305.797 8.14983ZM328.614 13.332C328.614 14.7758 328.356 16.1164 327.841 17.354C327.325 18.5914 326.603 19.6614 325.675 20.5638C324.747 21.4661 323.647 22.1709 322.375 22.6779C321.103 23.1849 319.719 23.4385 318.224 23.4385C316.677 23.4385 315.281 23.1721 314.034 22.6393C312.788 22.1064 311.727 21.3931 310.85 20.4993C309.974 19.6055 309.299 18.5657 308.826 17.3797C308.354 16.1938 308.118 14.9562 308.118 13.6671C308.118 12.4296 308.345 11.2222 308.801 10.0448C309.256 8.86745 309.922 7.81893 310.799 6.89942C311.675 5.97981 312.758 5.23647 314.047 4.66924C315.336 4.10209 316.815 3.81849 318.482 3.81849C319.943 3.81849 321.292 4.04185 322.53 4.48879C323.767 4.93564 324.837 5.57164 325.739 6.39668C326.642 7.22162 327.346 8.21858 327.854 9.3873C328.361 10.5561 328.614 11.871 328.614 13.332ZM318.946 22.5361C319.685 22.5361 320.42 22.3685 321.15 22.0333C321.881 21.6982 322.53 21.1826 323.097 20.4821C323.664 19.7861 324.128 18.8923 324.489 17.7966C324.85 16.7051 325.03 15.4032 325.03 13.8862C325.03 12.5971 324.859 11.3898 324.515 10.2725C324.171 9.15098 323.685 8.17991 323.058 7.35487C322.431 6.52983 321.679 5.87238 320.802 5.39111C319.926 4.90993 318.963 4.66924 317.915 4.66924C317.021 4.66924 316.196 4.86264 315.44 5.24934C314.683 5.63604 314.026 6.19041 313.467 6.91653C312.909 7.63849 312.475 8.52367 312.165 9.57644C311.856 10.6249 311.701 11.8023 311.701 13.1128C311.701 14.4363 311.877 15.6738 312.23 16.8168C312.582 17.9598 313.072 18.961 313.699 19.8118C314.327 20.6626 315.087 21.333 315.981 21.8142C316.875 22.2955 317.863 22.5361 318.946 22.5361ZM357 22.9486C356.639 22.9314 356.252 22.9099 355.84 22.8841C355.427 22.8584 355.019 22.8369 354.615 22.8197C354.211 22.8025 353.816 22.7896 353.429 22.781C353.042 22.7724 352.694 22.7682 352.385 22.7682C351.577 22.7682 350.821 22.7853 350.116 22.8197C349.411 22.854 348.698 22.8971 347.976 22.9486V22.7682C348.458 22.6994 348.87 22.6221 349.214 22.5361C349.558 22.4501 349.841 22.3256 350.065 22.1623C350.288 21.999 350.456 21.7798 350.567 21.5048C350.679 21.2298 350.744 20.8603 350.761 20.3962C350.778 20.1556 350.756 19.6958 350.696 19.0169C350.636 18.338 350.563 17.5946 350.477 16.7867C350.391 15.9789 350.301 15.1711 350.206 14.3633C350.112 13.5554 350.039 12.9022 349.987 12.4038C349.97 12.1804 349.94 11.8925 349.897 11.5401C349.854 11.1877 349.811 10.8355 349.768 10.4831C349.725 10.1307 349.687 9.80843 349.652 9.51621C349.618 9.22408 349.601 9.02642 349.601 8.92325H349.497C349.016 9.95455 348.638 10.7796 348.363 11.3984C348.088 12.0171 347.852 12.5586 347.654 13.0226C347.456 13.4867 347.254 13.9421 347.048 14.389C346.842 14.8359 346.571 15.4074 346.236 16.1035C345.901 16.7996 345.467 17.6891 344.934 18.772C344.401 19.8548 343.705 21.2556 342.846 22.9744H342.665C341.668 20.7571 340.637 18.5614 339.571 16.3871C338.506 14.2129 337.483 12.0171 336.503 9.79982H336.426L336.065 12.3265C335.962 13.0483 335.846 13.8433 335.717 14.7113C335.588 15.5793 335.455 16.4 335.317 17.1734C335.214 17.7922 335.12 18.4024 335.034 19.004C334.948 19.6055 334.896 20.0525 334.879 20.3446C334.862 20.654 334.892 20.9419 334.969 21.2083C335.047 21.4747 335.197 21.7111 335.421 21.9173C335.644 22.1236 335.953 22.2998 336.349 22.4459C336.744 22.592 337.251 22.6908 337.87 22.7423V22.9486C337.475 22.9143 336.899 22.8799 336.142 22.8455C335.386 22.8111 334.621 22.7939 333.848 22.7939C333.092 22.7939 332.417 22.8111 331.824 22.8455C331.231 22.8799 330.737 22.9143 330.342 22.9486V22.7682C330.788 22.6994 331.192 22.5962 331.553 22.4587C331.914 22.3212 332.232 22.115 332.507 21.84C332.782 21.565 333.014 21.2127 333.203 20.7829C333.392 20.3532 333.547 19.8032 333.667 19.1329L335.524 8.33027C335.403 8.05526 335.292 7.78885 335.188 7.53105C335.103 7.32479 335.017 7.11419 334.931 6.89942C334.845 6.68455 334.776 6.52558 334.724 6.42241C334.415 5.7693 334.024 5.29227 333.551 4.99153C333.079 4.69071 332.516 4.49741 331.863 4.41145V4.231C332.035 4.24813 332.245 4.26107 332.494 4.26968C332.744 4.27819 333.001 4.2868 333.268 4.29541C333.534 4.30401 333.788 4.30826 334.028 4.30826C334.269 4.30826 334.475 4.30826 334.647 4.30826C335.094 4.30826 335.528 4.30401 335.949 4.29541C336.37 4.2868 336.735 4.26534 337.045 4.231C337.578 5.39972 338.11 6.61145 338.643 7.86622C339.176 9.1209 339.713 10.3799 340.255 11.6433C340.796 12.9066 341.333 14.1656 341.866 15.4203C342.399 16.675 342.923 17.8782 343.439 19.0298C344.023 17.8782 344.616 16.6837 345.218 15.4461C345.819 14.2085 346.417 12.9581 347.009 11.6948C347.602 10.4315 348.196 9.17252 348.788 7.91775C349.381 6.66307 349.97 5.43414 350.555 4.231C350.692 4.24813 350.86 4.26107 351.057 4.26968C351.255 4.27819 351.461 4.2868 351.676 4.29541C351.891 4.30401 352.097 4.31262 352.295 4.32123C352.492 4.32983 352.66 4.33408 352.798 4.33408C353.262 4.33408 353.678 4.32547 354.048 4.30826C354.418 4.29114 354.757 4.26534 355.066 4.231V4.41145C354.533 4.46299 354.095 4.53608 353.751 4.63056C353.408 4.72513 353.128 4.8583 352.914 5.03022C352.699 5.20206 352.54 5.42552 352.437 5.70053C352.333 5.97555 352.273 6.31931 352.256 6.73183C352.256 6.80058 352.26 6.92514 352.269 7.10567C352.278 7.28612 352.291 7.42788 352.308 7.53105C352.394 8.35609 352.497 9.24979 352.617 10.2123C352.737 11.1749 352.853 12.116 352.965 13.0355C353.077 13.955 353.18 14.7972 353.275 15.5621C353.369 16.3269 353.442 16.9156 353.494 17.3282C353.545 17.8266 353.597 18.2993 353.648 18.7462C353.683 19.1243 353.721 19.4896 353.764 19.8419C353.807 20.1942 353.846 20.4392 353.88 20.5767C353.949 20.9377 354.031 21.2427 354.125 21.4919C354.22 21.7411 354.379 21.9474 354.602 22.1107C354.826 22.2739 355.127 22.4072 355.505 22.5103C355.883 22.6134 356.381 22.6908 357 22.7423V22.9486Z" fill="#27272A"/>
<path d="M91.2523 44.4684C92.5418 44.4684 93.4905 43.9089 94.2082 43.0209L93.6243 42.656C93.1134 43.3615 92.2255 43.8359 91.2523 43.8359C89.3426 43.8359 87.8707 42.364 87.8707 40.2718C87.8707 38.1553 89.3426 36.7077 91.2523 36.7077C92.2255 36.7077 93.1134 37.1821 93.6243 37.8876L94.2082 37.5105C93.5149 36.6469 92.5418 36.0752 91.2523 36.0752C88.9533 36.0752 87.1409 37.7781 87.1409 40.2718C87.1409 42.7654 88.9533 44.4684 91.2523 44.4684ZM99.3379 44.3225V36.8415H101.99V36.209H95.9806V36.8415H98.6324V44.3225H99.3379ZM107.655 44.4684C110.027 44.4684 111.596 42.6438 111.596 40.2718C111.596 37.8998 110.027 36.0752 107.655 36.0752C105.27 36.0752 103.713 37.8998 103.713 40.2718C103.713 42.6438 105.27 44.4684 107.655 44.4684ZM107.655 43.8359C105.684 43.8359 104.443 42.3154 104.443 40.2718C104.443 38.2039 105.684 36.7077 107.655 36.7077C109.601 36.7077 110.866 38.2039 110.866 40.2718C110.866 42.3154 109.601 43.8359 107.655 43.8359ZM121.846 44.3225V36.209H120.8L118.051 42.8992L115.29 36.209H114.256V44.3225H114.949V37.1578L117.917 44.3225H118.185L121.141 37.1578V44.3225H121.846ZM131.489 44.3225L128.168 36.209H127.305L123.984 44.3225H124.786L125.589 42.3276H129.883L130.686 44.3225H131.489ZM129.652 41.695H125.82L127.73 36.951L129.652 41.695ZM135.56 44.3225V36.8415H138.212V36.209H132.203V36.8415H134.855V44.3225H135.56ZM143.877 44.4684C146.249 44.4684 147.818 42.6438 147.818 40.2718C147.818 37.8998 146.249 36.0752 143.877 36.0752C141.493 36.0752 139.936 37.8998 139.936 40.2718C139.936 42.6438 141.493 44.4684 143.877 44.4684ZM143.877 43.8359C141.906 43.8359 140.666 42.3154 140.666 40.2718C140.666 38.2039 141.906 36.7077 143.877 36.7077C145.823 36.7077 147.088 38.2039 147.088 40.2718C147.088 42.3154 145.823 43.8359 143.877 43.8359ZM149.42 44.4684C150.77 44.4684 151.695 43.9089 152.169 40.2718L152.607 36.8415H155.843V44.3225H156.548V36.209H151.987L151.464 40.2109C151.075 43.2155 150.454 43.8359 149.42 43.8359V44.4684ZM163.138 44.4684C165.51 44.4684 167.079 42.6438 167.079 40.2718C167.079 37.8998 165.51 36.0752 163.138 36.0752C160.754 36.0752 159.197 37.8998 159.197 40.2718C159.197 42.6438 160.754 44.4684 163.138 44.4684ZM163.138 43.8359C161.167 43.8359 159.926 42.3154 159.926 40.2718C159.926 38.2039 161.167 36.7077 163.138 36.7077C165.084 36.7077 166.349 38.2039 166.349 40.2718C166.349 42.3154 165.084 43.8359 163.138 43.8359ZM170.432 44.3225V36.8415H174.885V36.209H169.739V44.3225H170.432ZM177.958 44.3225L183.067 37.3524V44.3225H183.761V36.209H183.055L177.971 43.0817V36.209H177.277V44.3225H177.958ZM187.163 36.209H186.47V38.289C186.47 39.8582 187.37 40.953 189.207 40.953C190.058 40.953 190.679 40.8313 191.25 40.6854V44.3225H191.944V36.209H191.25V40.065C190.679 40.2109 189.949 40.3205 189.255 40.3205C187.905 40.3205 187.163 39.6028 187.163 38.289V36.209ZM200.053 44.3225V43.6899H195.601V40.4786H199.968V39.846H195.601V36.8415H200.053V36.209H194.908V44.3225H200.053ZM206.521 44.4684C207.811 44.4684 208.759 43.9089 209.477 43.0209L208.893 42.656C208.382 43.3615 207.494 43.8359 206.521 43.8359C204.611 43.8359 203.14 42.364 203.14 40.2718C203.14 38.1553 204.611 36.7077 206.521 36.7077C207.494 36.7077 208.382 37.1821 208.893 37.8876L209.477 37.5105C208.784 36.6469 207.811 36.0752 206.521 36.0752C204.222 36.0752 202.41 37.7781 202.41 40.2718C202.41 42.7654 204.222 44.4684 206.521 44.4684ZM217.66 44.3225L213.877 40.0772L217.332 36.209H216.443L212.527 40.6489V36.209H211.833V44.3225H212.527V41.4882L213.427 40.5029L216.772 44.3225H217.66ZM226.585 44.3225L223.264 36.209H222.4L219.08 44.3225H219.882L220.685 42.3276H224.979L225.782 44.3225H226.585ZM224.748 41.695H220.916L222.826 36.951L224.748 41.695ZM229.172 44.3225L231.447 40.9652H233.223V44.3225H233.928V36.209H230.899C229.501 36.209 228.43 37.097 228.43 38.581C228.43 40.0528 229.464 40.8679 230.681 40.9165L228.333 44.3225H229.172ZM230.96 40.3327C229.878 40.3327 229.16 39.6028 229.16 38.581C229.16 37.5592 229.878 36.8415 230.96 36.8415H233.223V40.3327H230.96ZM250.911 44.3225L247.128 40.0772L250.582 36.209H249.694L245.777 40.6489V36.209H245.084V44.3225H245.777V41.4882L246.678 40.5029L250.023 44.3225H250.911ZM252.574 44.4684C253.924 44.4684 254.848 43.9089 255.323 40.2718L255.761 36.8415H258.996V44.3225H259.702V36.209H255.14L254.617 40.2109C254.228 43.2155 253.607 43.8359 252.574 43.8359V44.4684ZM263.335 44.3225L268.444 37.3524V44.3225H269.137V36.209H268.432L263.347 43.0817V36.209H262.654V44.3225H263.335ZM278.646 44.3225V36.209H277.941V39.8339H272.795V36.209H272.102V44.3225H272.795V40.4664H277.941V44.3225H278.646ZM282.28 44.3225L287.388 37.3524V44.3225H288.082V36.209H287.376L282.292 43.0817V36.209H281.598V44.3225H282.28ZM296.873 44.3225L293.09 40.0772L296.545 36.209H295.657L291.74 40.6489V36.209H291.046V44.3225H291.74V41.4882L292.64 40.5029L295.985 44.3225H296.873ZM305.798 44.3225L302.477 36.209H301.613L298.293 44.3225H299.095L299.898 42.3276H304.192L304.995 44.3225H305.798ZM303.961 41.695H300.129L302.039 36.951L303.961 41.695Z" fill="#27272A"/>
</svg>
